<?xml version="1.0" encoding="UTF-8"?>
<svg width="50px" height="50px" viewBox="0 0 50 50" version="1.1" xmlns="http://www.w3.org/2000/svg" xmlns:xlink="http://www.w3.org/1999/xlink">
    <title>Apple</title>
    <g id="pc" stroke="none" stroke-width="1" fill="none" fill-rule="evenodd">
        <g id="home更新" transform="translate(-1232.000000, -7303.000000)" fill="#FFFFFF" fill-rule="nonzero">
            <g id="Apple" transform="translate(1232.792076, 7303.625902)">
                <rect id="矩形" opacity="0" x="0" y="0" width="49" height="49"></rect>
                <path d="M37.5012695,30.9886719 C36.4916016,29.4095703 36.0035156,27.6916992 36.0035156,25.8111328 C36.0035156,24.0310547 36.352832,22.418457 37.0610352,21.1073242 C37.8027344,19.7626953 38.9607422,18.619043 40.5589844,17.6620117 C39.6976563,16.3317383 38.5061523,15.2933594 37.0275391,14.5181641 C35.5154297,13.7142578 33.9889648,13.3266602 32.3237305,13.3266602 C31.7160156,13.3266602 31.1130859,13.412793 30.5245117,13.5467773 C29.950293,13.6855469 29.1942383,13.9200195 28.2037109,14.2549805 C27.2083984,14.6425781 26.4188477,14.9105469 25.8829102,15.097168 C25.3756836,15.2981445 25.0072266,15.3842773 24.80625,15.3842773 C24.2176758,15.3842773 23.1936523,15.0636719 21.7293945,14.4272461 C20.2507813,13.8051758 18.9396484,13.4845703 17.8486328,13.4845703 C16.3508789,13.4845703 14.9727539,13.8051758 13.7142578,14.4272461 C12.4557617,15.0636719 11.3456055,15.9393555 10.3885742,17.0973633 C9.44589844,18.221875 8.67070313,19.6 8.13476563,21.1456055 C7.59404297,22.724707 7.32607422,24.437793 7.32607422,26.2705078 C7.32607422,27.4811523 7.46005859,28.6917969 7.68017578,29.950293 C7.86679688,31.2422852 8.18740234,32.4720703 8.55585938,33.6970703 C8.92910156,34.9603516 9.43154297,36.1709961 9.953125,37.3290039 C10.5273438,38.4726563 11.0824219,39.5301758 11.7523438,40.5063477 C12.4557617,41.5447266 13.0969727,42.4012695 13.6999023,43.1094727 C14.2693359,43.7985352 14.790918,44.3679688 15.3125,44.7890625 C15.834082,45.2101563 16.3365234,45.5116211 16.8246094,45.6982422 C17.2791992,45.8657227 17.7672852,45.9518555 18.3032227,45.9518555 C18.6573242,45.9518555 19.1454102,45.8657227 19.7004883,45.6982422 C20.2412109,45.5116211 20.8632813,45.3297852 21.5332031,45.109668 C22.1887695,44.8943359 22.8443359,44.7077148 23.5142578,44.5067383 C24.1506836,44.3057617 24.7727539,44.2196289 25.327832,44.2196289 C25.8494141,44.2196289 26.4044922,44.3057617 27.0600586,44.4732422 C27.6821289,44.6742188 28.3041992,44.8608398 28.940625,45.0618164 C29.5626953,45.262793 30.1704102,45.4446289 30.7733398,45.63125 C31.3619141,45.8130859 31.8643555,45.8992188 32.2854492,45.8992188 C32.9410156,45.8992188 33.5630859,45.7987305 34.1516602,45.4637695 C34.7737305,45.1623047 35.3623047,44.7268555 35.9508789,44.2387695 C36.2379883,43.9181641 36.6734375,43.4635742 37.2285156,42.8080078 C37.730957,42.1524414 38.2716797,41.3963867 38.8411133,40.5207031 C39.3818359,39.6785156 39.903418,38.7358398 40.4058594,37.7118164 C40.8939453,36.7021484 41.3341797,35.6254883 41.6691406,34.5344727 C39.8890625,33.7449219 38.4917969,32.553418 37.5012695,30.9886719 L37.5012695,30.9886719 Z M25.0837891,12.9725586 C26.0599609,12.9725586 27.0169922,12.7189453 27.959668,12.1973633 C28.9166992,11.7092773 29.7541016,11.0202148 30.4958008,10.1301758 C31.2518555,9.27363281 31.8212891,8.29746094 32.2758789,7.20644531 C32.7304688,6.12978516 32.9649414,5.00527344 32.9649414,3.92861328 L32.9649414,3.47402344 C32.9649414,3.35439453 32.9505859,3.22041016 32.8979492,3.05292969 C31.787793,3.11992187 30.7111328,3.42617187 29.6871094,3.96210937 C28.6439453,4.5171875 27.7395508,5.23974609 26.9978516,6.06279297 C26.1891602,6.93847656 25.6005859,7.92900391 25.1316406,8.97216797 C24.6579102,10.0296875 24.4234375,11.0728516 24.4234375,12.1303711 C24.4234375,12.4318359 24.4234375,12.6328125 24.4473633,12.7380859 C24.4808594,12.9199219 24.6818359,12.9725586 25.0837891,12.9725586 Z" id="形状"></path>
            </g>
        </g>
    </g>
</svg>