<svg xmlns="http://www.w3.org/2000/svg" viewBox="0 0 67.38 51.69"><defs><style>.cls-1,.cls-2{fill:#fff;}.cls-2{fill-rule:evenodd;}</style></defs><g id="图层_2" data-name="图层 2"><g id="图层_1-2" data-name="图层 1"><g id="Layer_1" data-name="Layer 1"><g id="Consensys"><g id="main-Logo_4" data-name="main-Logo 4"><path id="_Path_" data-name="&lt;Path&gt;" class="cls-1" d="M32,38.6a.07.07,0,0,0-.06.07.06.06,0,0,0,.06.06.07.07,0,0,0,.07-.06A.07.07,0,0,0,32,38.6Z"/><path id="_Path_2" data-name="&lt;Path&gt;" class="cls-1" d="M30.15,38a.13.13,0,0,0-.13.13.13.13,0,0,0,.13.14.13.13,0,0,0,.13-.14A.13.13,0,0,0,30.15,38Z"/><path id="_Path_3" data-name="&lt;Path&gt;" class="cls-1" d="M28.38,37.14a.18.18,0,0,0-.19.19.19.19,0,0,0,.19.2.2.2,0,0,0,.2-.2A.19.19,0,0,0,28.38,37.14Z"/><path id="_Path_4" data-name="&lt;Path&gt;" class="cls-1" d="M26.71,36.13a.27.27,0,0,0,0,.53.27.27,0,1,0,0-.53Z"/><path id="_Path_5" data-name="&lt;Path&gt;" class="cls-1" d="M25.15,35a.33.33,0,1,0,.33.33A.34.34,0,0,0,25.15,35Z"/><path id="_Path_6" data-name="&lt;Path&gt;" class="cls-1" d="M23.7,33.61a.4.4,0,0,0-.39.4.4.4,0,0,0,.79,0A.39.39,0,0,0,23.7,33.61Z"/><path id="_Path_7" data-name="&lt;Path&gt;" class="cls-1" d="M22.41,32.13a.47.47,0,1,0,.46.46A.47.47,0,0,0,22.41,32.13Z"/><path id="_Path_8" data-name="&lt;Path&gt;" class="cls-1" d="M21.27,30.52a.52.52,0,0,0-.53.53.53.53,0,0,0,.53.53.53.53,0,0,0,.53-.53A.53.53,0,0,0,21.27,30.52Z"/><path id="_Path_9" data-name="&lt;Path&gt;" class="cls-1" d="M20.93,29.37a.6.6,0,0,0-.6-.6.59.59,0,0,0-.59.6.58.58,0,0,0,.59.59A.59.59,0,0,0,20.93,29.37Z"/><path id="_Path_10" data-name="&lt;Path&gt;" class="cls-1" d="M20.29,27.58a.67.67,0,1,0-.66.66A.67.67,0,0,0,20.29,27.58Z"/><path id="_Path_11" data-name="&lt;Path&gt;" class="cls-1" d="M19.89,25.72a.73.73,0,1,0-.73.73A.73.73,0,0,0,19.89,25.72Z"/><path id="_Path_12" data-name="&lt;Path&gt;" class="cls-1" d="M19.74,23.81A.79.79,0,0,0,19,23a.79.79,0,1,0,0,1.58A.79.79,0,0,0,19.74,23.81Z"/><path id="_Path_13" data-name="&lt;Path&gt;" class="cls-1" d="M19,22.75a.86.86,0,1,0-.86-.86A.86.86,0,0,0,19,22.75Z"/><path id="_Path_14" data-name="&lt;Path&gt;" class="cls-1" d="M18.34,20a.93.93,0,1,0,.93-.93A.93.93,0,0,0,18.34,20Z"/><path id="_Path_15" data-name="&lt;Path&gt;" class="cls-1" d="M46.14,34.18a.06.06,0,0,0-.06,0,.06.06,0,1,0,.12,0A.06.06,0,0,0,46.14,34.18Z"/><path id="_Path_16" data-name="&lt;Path&gt;" class="cls-1" d="M44.44,35a.12.12,0,0,0-.12.12.12.12,0,0,0,.24,0A.12.12,0,0,0,44.44,35Z"/><path id="_Path_17" data-name="&lt;Path&gt;" class="cls-1" d="M42.66,35.66a.18.18,0,0,0-.18.18.18.18,0,0,0,.18.17.18.18,0,0,0,.17-.17A.18.18,0,0,0,42.66,35.66Z"/><path id="_Path_18" data-name="&lt;Path&gt;" class="cls-1" d="M40.81,36.12a.24.24,0,1,0,0,.47.24.24,0,0,0,0-.47Z"/><path id="_Path_19" data-name="&lt;Path&gt;" class="cls-1" d="M38.91,36.38a.3.3,0,1,0,.29.29A.29.29,0,0,0,38.91,36.38Z"/><path id="_Path_20" data-name="&lt;Path&gt;" class="cls-1" d="M37,36.44a.36.36,0,0,0,0,.71.36.36,0,0,0,0-.71Z"/><path id="_Path_21" data-name="&lt;Path&gt;" class="cls-1" d="M35.08,36.3a.41.41,0,0,0-.41.41.41.41,0,0,0,.41.41.41.41,0,0,0,.41-.41A.42.42,0,0,0,35.08,36.3Z"/><path id="_Path_22" data-name="&lt;Path&gt;" class="cls-1" d="M33.18,36a.47.47,0,1,0,.46.46A.47.47,0,0,0,33.18,36Z"/><path id="_Path_23" data-name="&lt;Path&gt;" class="cls-1" d="M31.33,35.37a.53.53,0,0,0-.53.53.52.52,0,0,0,.53.52.52.52,0,0,0,.52-.52A.52.52,0,0,0,31.33,35.37Z"/><path id="_Path_24" data-name="&lt;Path&gt;" class="cls-1" d="M29.57,34.55a.59.59,0,1,0,.58.58A.58.58,0,0,0,29.57,34.55Z"/><path id="_Path_25" data-name="&lt;Path&gt;" class="cls-1" d="M28.56,34.14a.64.64,0,0,0-.64-.64.65.65,0,0,0,0,1.29A.65.65,0,0,0,28.56,34.14Z"/><path id="_Path_26" data-name="&lt;Path&gt;" class="cls-1" d="M26.42,32.25a.7.7,0,0,0,0,1.4.7.7,0,1,0,0-1.4Z"/><path id="_Path_27" data-name="&lt;Path&gt;" class="cls-1" d="M25.09,30.8a.76.76,0,1,0,.76.76A.76.76,0,0,0,25.09,30.8Z"/><path id="_Path_28" data-name="&lt;Path&gt;" class="cls-1" d="M23.94,30.84a.82.82,0,1,0-.81-.82A.82.82,0,0,0,23.94,30.84Z"/><path id="_Path_29" data-name="&lt;Path&gt;" class="cls-1" d="M23.89,28.34a.88.88,0,1,0-.88.88A.88.88,0,0,0,23.89,28.34Z"/><path id="_Path_30" data-name="&lt;Path&gt;" class="cls-1" d="M53,21a.05.05,0,1,0,0,.05A0,0,0,0,0,53,21Z"/><path id="_Path_31" data-name="&lt;Path&gt;" class="cls-1" d="M52.45,22.82a.1.1,0,0,0-.11.1.11.11,0,0,0,.11.11.1.1,0,0,0,.1-.11A.09.09,0,0,0,52.45,22.82Z"/><path id="_Path_32" data-name="&lt;Path&gt;" class="cls-1" d="M51.69,24.53a.16.16,0,0,0-.16.16.16.16,0,0,0,.32,0A.16.16,0,0,0,51.69,24.53Z"/><path id="_Path_33" data-name="&lt;Path&gt;" class="cls-1" d="M50.75,26.15a.21.21,0,0,0-.21.21.21.21,0,0,0,.21.21.21.21,0,0,0,.21-.21A.22.22,0,0,0,50.75,26.15Z"/><path id="_Path_34" data-name="&lt;Path&gt;" class="cls-1" d="M49.63,27.67a.26.26,0,0,0-.26.26.27.27,0,0,0,.53,0A.26.26,0,0,0,49.63,27.67Z"/><path id="_Path_35" data-name="&lt;Path&gt;" class="cls-1" d="M48.36,29.05a.32.32,0,1,0,.32.32A.31.31,0,0,0,48.36,29.05Z"/><path id="_Path_36" data-name="&lt;Path&gt;" class="cls-1" d="M47,30.3A.37.37,0,1,0,47,31a.37.37,0,0,0,0-.73Z"/><path id="_Path_37" data-name="&lt;Path&gt;" class="cls-1" d="M45.4,31.39a.42.42,0,1,0,.42.42A.42.42,0,0,0,45.4,31.39Z"/><path id="_Path_38" data-name="&lt;Path&gt;" class="cls-1" d="M43.72,32.27a.47.47,0,1,0,.47.47A.47.47,0,0,0,43.72,32.27Z"/><path id="_Path_39" data-name="&lt;Path&gt;" class="cls-1" d="M41.94,32.92a.53.53,0,0,0-.53.53.53.53,0,0,0,1.05,0A.53.53,0,0,0,41.94,32.92Z"/><path id="_Path_40" data-name="&lt;Path&gt;" class="cls-1" d="M40.07,33.33a.58.58,0,0,0,0,1.16.58.58,0,0,0,0-1.16Z"/><path id="_Path_41" data-name="&lt;Path&gt;" class="cls-1" d="M38.16,33.5a.63.63,0,1,0,0,1.25.63.63,0,1,0,0-1.25Z"/><path id="_Path_42" data-name="&lt;Path&gt;" class="cls-1" d="M36.92,34.09a.68.68,0,1,0-.68.68A.68.68,0,0,0,36.92,34.09Z"/><path id="_Path_43" data-name="&lt;Path&gt;" class="cls-1" d="M35.08,33.81a.74.74,0,1,0-.74.73A.74.74,0,0,0,35.08,33.81Z"/><path id="_Path_44" data-name="&lt;Path&gt;" class="cls-1" d="M33.28,33.28a.79.79,0,1,0-.78.78A.78.78,0,0,0,33.28,33.28Z"/><path id="_Path_45" data-name="&lt;Path&gt;" class="cls-1" d="M31.57,32.51a.84.84,0,1,0-.83.84A.84.84,0,0,0,31.57,32.51Z"/><path id="_Path_46" data-name="&lt;Path&gt;" class="cls-1" d="M48.59,7a.05.05,0,1,0-.05-.05A0,0,0,0,0,48.59,7Z"/><path id="_Path_47" data-name="&lt;Path&gt;" class="cls-1" d="M49.48,8.74a.1.1,0,0,0,.1-.11.1.1,0,1,0-.2,0A.1.1,0,0,0,49.48,8.74Z"/><path id="_Path_48" data-name="&lt;Path&gt;" class="cls-1" d="M50.19,10.57a.16.16,0,0,0,.16-.15.16.16,0,0,0-.16-.16.16.16,0,1,0,0,.31Z"/><path id="_Path_49" data-name="&lt;Path&gt;" class="cls-1" d="M50.71,12.48a.22.22,0,0,0,.21-.21.21.21,0,0,0-.21-.21.21.21,0,0,0-.21.21A.21.21,0,0,0,50.71,12.48Z"/><path id="_Path_50" data-name="&lt;Path&gt;" class="cls-1" d="M50.77,14.16A.26.26,0,1,0,51,13.9.26.26,0,0,0,50.77,14.16Z"/><path id="_Path_51" data-name="&lt;Path&gt;" class="cls-1" d="M51.15,15.76a.32.32,0,1,0,0,.63.32.32,0,0,0,0-.63Z"/><path id="_Path_52" data-name="&lt;Path&gt;" class="cls-1" d="M51.07,17.63a.37.37,0,1,0,0,.73.37.37,0,0,0,0-.73Z"/><path id="_Path_53" data-name="&lt;Path&gt;" class="cls-1" d="M50.78,19.48a.42.42,0,0,0-.42.42.42.42,0,1,0,.84,0A.42.42,0,0,0,50.78,19.48Z"/><path id="_Path_54" data-name="&lt;Path&gt;" class="cls-1" d="M50.72,21.74a.47.47,0,1,0-.94,0,.47.47,0,1,0,.94,0Z"/><path id="_Path_55" data-name="&lt;Path&gt;" class="cls-1" d="M49.49,23a.53.53,0,0,0-.53.53.52.52,0,0,0,.53.52.52.52,0,0,0,.52-.52A.52.52,0,0,0,49.49,23Z"/><path id="_Path_56" data-name="&lt;Path&gt;" class="cls-1" d="M48.5,24.58a.58.58,0,1,0,0,1.15.58.58,0,0,0,0-1.15Z"/><path id="_Path_57" data-name="&lt;Path&gt;" class="cls-1" d="M47.3,26a.63.63,0,1,0,.63.62A.63.63,0,0,0,47.3,26Z"/><path id="_Path_58" data-name="&lt;Path&gt;" class="cls-1" d="M45.92,27.31a.68.68,0,1,0,0,1.36.68.68,0,0,0,0-1.36Z"/><path id="_Path_59" data-name="&lt;Path&gt;" class="cls-1" d="M44.37,28.4a.73.73,0,1,0,0,1.46.73.73,0,1,0,0-1.46Z"/><path id="_Path_60" data-name="&lt;Path&gt;" class="cls-1" d="M42.69,29.27a.79.79,0,0,0-.78.79.79.79,0,0,0,1.57,0A.79.79,0,0,0,42.69,29.27Z"/><path id="_Path_61" data-name="&lt;Path&gt;" class="cls-1" d="M40.91,29.92a.84.84,0,1,0,.84.84A.84.84,0,0,0,40.91,29.92Z"/><path id="_Path_62" data-name="&lt;Path&gt;" class="cls-1" d="M35.44.1a.06.06,0,0,0,.06,0,.06.06,0,0,0-.06,0,0,0,0,0,0,0,.05A0,0,0,0,0,35.44.1Z"/><path id="_Path_63" data-name="&lt;Path&gt;" class="cls-1" d="M37.28.73a.1.1,0,0,0,.1-.11.1.1,0,0,0-.1-.1.11.11,0,0,0-.11.1A.11.11,0,0,0,37.28.73Z"/><path id="_Path_64" data-name="&lt;Path&gt;" class="cls-1" d="M39,1.54a.16.16,0,0,0,.16-.16A.16.16,0,0,0,39,1.23a.16.16,0,0,0-.16.15A.16.16,0,0,0,39,1.54Z"/><path id="_Path_65" data-name="&lt;Path&gt;" class="cls-1" d="M40.72,2.53a.21.21,0,1,0,0-.41.21.21,0,0,0-.21.21A.2.2,0,0,0,40.72,2.53Z"/><path id="_Path_66" data-name="&lt;Path&gt;" class="cls-1" d="M42.28,3.7a.26.26,0,0,0,.26-.26.25.25,0,0,0-.26-.26.26.26,0,0,0-.26.26A.26.26,0,0,0,42.28,3.7Z"/><path id="_Path_67" data-name="&lt;Path&gt;" class="cls-1" d="M43.72,5a.32.32,0,1,0-.31-.31A.31.31,0,0,0,43.72,5Z"/><path id="_Path_68" data-name="&lt;Path&gt;" class="cls-1" d="M45,6.49a.37.37,0,1,0-.37-.36A.37.37,0,0,0,45,6.49Z"/><path id="_Path_69" data-name="&lt;Path&gt;" class="cls-1" d="M46.16,8.09a.42.42,0,1,0-.42-.42A.42.42,0,0,0,46.16,8.09Z"/><path id="_Path_70" data-name="&lt;Path&gt;" class="cls-1" d="M47.1,9.82a.47.47,0,1,0-.48-.47A.48.48,0,0,0,47.1,9.82Z"/><path id="_Path_71" data-name="&lt;Path&gt;" class="cls-1" d="M47.28,11.14a.52.52,0,1,0,1,0,.52.52,0,1,0-1,0Z"/><path id="_Path_72" data-name="&lt;Path&gt;" class="cls-1" d="M47.69,13a.58.58,0,1,0,.58-.58A.58.58,0,0,0,47.69,13Z"/><path id="_Path_73" data-name="&lt;Path&gt;" class="cls-1" d="M47.85,14.91a.63.63,0,1,0,.63-.63A.63.63,0,0,0,47.85,14.91Z"/><path id="_Path_74" data-name="&lt;Path&gt;" class="cls-1" d="M49.12,16.83a.68.68,0,1,0-.68.68A.67.67,0,0,0,49.12,16.83Z"/><path id="_Path_75" data-name="&lt;Path&gt;" class="cls-1" d="M48.89,18.73a.73.73,0,1,0-.73.73A.74.74,0,0,0,48.89,18.73Z"/><path id="_Path_76" data-name="&lt;Path&gt;" class="cls-1" d="M48.42,20.57a.79.79,0,1,0-.79.79A.79.79,0,0,0,48.42,20.57Z"/><path id="_Path_77" data-name="&lt;Path&gt;" class="cls-1" d="M46.86,21.5a.84.84,0,1,0,.84.84A.83.83,0,0,0,46.86,21.5Z"/><path id="_Path_78" data-name="&lt;Path&gt;" class="cls-1" d="M21.29,4.54a.06.06,0,0,0,.05-.06.05.05,0,0,0-.05-.05.06.06,0,0,0-.06.05A.06.06,0,0,0,21.29,4.54Z"/><path id="_Path_79" data-name="&lt;Path&gt;" class="cls-1" d="M23,3.69a.1.1,0,0,0,0-.2.1.1,0,1,0,0,.2Z"/><path id="_Path_80" data-name="&lt;Path&gt;" class="cls-1" d="M24.77,3a.16.16,0,1,0-.16-.16A.16.16,0,0,0,24.77,3Z"/><path id="_Path_81" data-name="&lt;Path&gt;" class="cls-1" d="M26.62,2.57a.21.21,0,0,0,.21-.21.21.21,0,0,0-.21-.21.22.22,0,0,0-.21.21A.21.21,0,0,0,26.62,2.57Z"/><path id="_Path_82" data-name="&lt;Path&gt;" class="cls-1" d="M28.51,2.3A.26.26,0,0,0,28.78,2a.27.27,0,0,0-.53,0A.26.26,0,0,0,28.51,2.3Z"/><path id="_Path_83" data-name="&lt;Path&gt;" class="cls-1" d="M30.43,2.24a.32.32,0,1,0-.31-.32A.31.31,0,0,0,30.43,2.24Z"/><path id="_Path_84" data-name="&lt;Path&gt;" class="cls-1" d="M32.35,2.37a.37.37,0,1,0,0-.73.37.37,0,0,0,0,.73Z"/><path id="_Path_85" data-name="&lt;Path&gt;" class="cls-1" d="M34.25,2.71a.42.42,0,0,0,.42-.42.42.42,0,1,0-.84,0A.42.42,0,0,0,34.25,2.71Z"/><path id="_Path_86" data-name="&lt;Path&gt;" class="cls-1" d="M36.1,3.29a.47.47,0,1,0-.47-.47A.47.47,0,0,0,36.1,3.29Z"/><path id="_Path_87" data-name="&lt;Path&gt;" class="cls-1" d="M37.86,4.11a.52.52,0,0,0,.52-.53.52.52,0,1,0-1,0A.52.52,0,0,0,37.86,4.11Z"/><path id="_Path_88" data-name="&lt;Path&gt;" class="cls-1" d="M38.93,4.57a.58.58,0,1,0,1.15,0,.58.58,0,0,0-1.15,0Z"/><path id="_Path_89" data-name="&lt;Path&gt;" class="cls-1" d="M41,6.4a.63.63,0,0,0,0-1.26A.63.63,0,1,0,41,6.4Z"/><path id="_Path_90" data-name="&lt;Path&gt;" class="cls-1" d="M42.34,7.83a.68.68,0,1,0-.68-.68A.67.67,0,0,0,42.34,7.83Z"/><path id="_Path_91" data-name="&lt;Path&gt;" class="cls-1" d="M43.48,8a.74.74,0,1,0,.74.74A.74.74,0,0,0,43.48,8Z"/><path id="_Path_92" data-name="&lt;Path&gt;" class="cls-1" d="M43.63,10.38a.79.79,0,1,0,.78-.79A.78.78,0,0,0,43.63,10.38Z"/><path id="_Path_93" data-name="&lt;Path&gt;" class="cls-1" d="M44.28,12.16a.84.84,0,1,0,.84-.83A.83.83,0,0,0,44.28,12.16Z"/><path id="_Path_94" data-name="&lt;Path&gt;" class="cls-1" d="M45.58,13.14a.89.89,0,1,0,.89.89A.89.89,0,0,0,45.58,13.14Z"/><path id="_Path_95" data-name="&lt;Path&gt;" class="cls-1" d="M14.41,17.53a.09.09,0,0,0-.1.1.1.1,0,0,0,.1.1.11.11,0,0,0,.1-.1A.1.1,0,0,0,14.41,17.53Z"/><path id="_Path_96" data-name="&lt;Path&gt;" class="cls-1" d="M15,15.6a.2.2,0,1,0,.2.2A.2.2,0,0,0,15,15.6Z"/><path id="_Path_97" data-name="&lt;Path&gt;" class="cls-1" d="M16,14a.31.31,0,0,0-.3-.3.3.3,0,1,0,0,.6A.31.31,0,0,0,16,14Z"/><path id="_Path_98" data-name="&lt;Path&gt;" class="cls-1" d="M16.68,12.75a.4.4,0,1,0-.4-.39A.4.4,0,0,0,16.68,12.75Z"/><path id="_Path_99" data-name="&lt;Path&gt;" class="cls-1" d="M17.79,11.28a.49.49,0,1,0-.49-.49A.49.49,0,0,0,17.79,11.28Z"/><path id="_Path_100" data-name="&lt;Path&gt;" class="cls-1" d="M19.06,9.94a.59.59,0,1,0-.59-.59A.59.59,0,0,0,19.06,9.94Z"/><path id="_Path_101" data-name="&lt;Path&gt;" class="cls-1" d="M20.48,8.74a.69.69,0,1,0-.69-.69A.69.69,0,0,0,20.48,8.74Z"/><path id="_Path_102" data-name="&lt;Path&gt;" class="cls-1" d="M22,7.7a.79.79,0,1,0-.79-.79A.79.79,0,0,0,22,7.7Z"/><path id="_Path_103" data-name="&lt;Path&gt;" class="cls-1" d="M23.7,6.85A.89.89,0,1,0,22.81,6,.88.88,0,0,0,23.7,6.85Z"/><path id="_Path_104" data-name="&lt;Path&gt;" class="cls-1" d="M25.47,6.23a1,1,0,0,0,1-.84,1.07,1.07,0,0,0,.88.46,1.09,1.09,0,0,0,1-.59,1.17,1.17,0,0,0,.94.48,1.19,1.19,0,0,0,.88-.39,1.26,1.26,0,0,0,1,.54,1.22,1.22,0,0,0,.73-.23,1.84,1.84,0,0,0,.17.22,1.39,1.39,0,0,0-.84.38,1.37,1.37,0,0,0-2,.21,1.32,1.32,0,0,0-.8-.28,1.29,1.29,0,0,0-1.17.75,1.27,1.27,0,0,0-.69-.21,1.22,1.22,0,0,0-1.19.95,1.13,1.13,0,0,0-.6-.17,1.15,1.15,0,0,0-1.14,1.15h0a1.09,1.09,0,0,0-.54-.14A1.07,1.07,0,0,0,22,9.59a1,1,0,0,0,.05.3,1,1,0,0,0-.52-.15,1,1,0,1,0,1,1,1,1,0,0,0,0-.25,1.06,1.06,0,0,0,1.65-.85,1.18,1.18,0,0,0,.61.18h.07a1.3,1.3,0,0,0-.43.87l-.23,0a1.25,1.25,0,0,0-1.26,1.26.76.76,0,0,0,0,.15h-.14a1.19,1.19,0,0,0-1.19,1.19,1.21,1.21,0,0,0,.06.38h-.07a1.13,1.13,0,0,0-.95,1.72h0a1.07,1.07,0,0,0-1.06,1.06,1,1,0,0,0,.34.77h0a1,1,0,1,0,1,1,1,1,0,0,0-.3-.7h.07a1,1,0,0,0,.78-.34v0a1.2,1.2,0,0,0,.24.72A1.18,1.18,0,0,0,20.8,19a1.16,1.16,0,0,0,.41.89,1.12,1.12,0,0,0-.65,1,1.09,1.09,0,0,0,.6,1,1.05,1.05,0,0,0,.24,2,1,1,0,0,0,.45,1.87.55.55,0,0,0,.18,0,.94.94,0,0,0,.28,1.83.94.94,0,1,0,0-1.87h-.17a1,1,0,0,0,.7-.94.15.15,0,0,0,0-.07,1.14,1.14,0,0,0,.59.34,1.1,1.1,0,0,0,.84,1.81h0a1,1,0,0,0,.85,1.66,1.36,1.36,0,0,0,.3,0,1,1,0,0,0,.83,1.54,1,1,0,0,0,.62-.22.94.94,0,1,0,1.66.61,1,1,0,0,0-.27-.65,1.15,1.15,0,0,0,.37-.06h0a1.16,1.16,0,0,0,.62,1,.47.47,0,0,0-.17,0,.89.89,0,1,0,.89.89.88.88,0,0,0-.47-.78,1.27,1.27,0,0,0,.28,0,1.17,1.17,0,0,0,.61-.17,1.1,1.1,0,0,0,1.09,1,1.09,1.09,0,0,0,.79-.34,1.05,1.05,0,0,0,1,.88,1,1,0,0,0,.92-.55,1,1,0,0,0,2-.1.94.94,0,1,0,1-1,1.61,1.61,0,0,0,.21-.3,1.16,1.16,0,0,0,.82.34,1.29,1.29,0,0,0,.35-.05.89.89,0,0,0,.5,1.63.89.89,0,0,0,.89-.9.88.88,0,0,0-.89-.88.69.69,0,0,0-.25,0,1.2,1.2,0,0,0,.53-.73,1.08,1.08,0,0,0,.7.26,1.11,1.11,0,0,0,1.11-1.1s0,0,0,0a1.12,1.12,0,0,0,.62.2,1,1,0,0,0,1-1,1,1,0,0,0,0-.3,1,1,0,0,0,.55.17,1,1,0,0,0,1-1,1,1,0,0,0-.22-.62,1,1,0,0,0,.61.23.94.94,0,1,0,0-1.88.91.91,0,0,0-.64.26,1.35,1.35,0,0,0-.07-.36h0a1.16,1.16,0,0,0,1-.63A.88.88,0,0,0,45,24a.89.89,0,1,0,.89-.89.88.88,0,0,0-.78.47,1.26,1.26,0,0,0,0-.28,1.18,1.18,0,0,0-.18-.61,1.09,1.09,0,0,0,.67-1.88,1.05,1.05,0,0,0,.33-2,1,1,0,0,0-.09-2,.93.93,0,0,0,.87-.93.94.94,0,1,0-1,.93,1,1,0,0,0-.41,1.85,1.05,1.05,0,0,0-.87,1,1.08,1.08,0,0,0,.3.74,1.11,1.11,0,0,0-1,1.09,1.2,1.2,0,0,0,.15.56,1.15,1.15,0,0,0-1.09,1.14,1,1,0,0,0,.06.34h-.06a1.21,1.21,0,0,0-1.2,1.21v.08h-.19A1.26,1.26,0,0,0,40.19,26a1.27,1.27,0,0,0-.34,0,1.31,1.31,0,0,0-1.19.76,1.11,1.11,0,0,0-.94-.24,1.15,1.15,0,0,0-.83.66,1.14,1.14,0,0,0-1-.36,1.15,1.15,0,0,0-.86.59,1.14,1.14,0,0,0-.89-.43,1.17,1.17,0,0,0-.85.36,1.16,1.16,0,0,0-.72-.63,1.14,1.14,0,0,0-1,.16A1.15,1.15,0,0,0,30,26a1.15,1.15,0,0,0-1.34-1.11,1.1,1.1,0,0,0-.2-.95,1.12,1.12,0,0,0-.91-.46,1.14,1.14,0,0,0,0-1,1.17,1.17,0,0,0-.71-.57A1.19,1.19,0,0,0,27,21a1.1,1.1,0,0,0-.56-.81,1.15,1.15,0,0,0,.45-.93,1.13,1.13,0,0,0-.39-.86,1.14,1.14,0,0,0,.6-.75,1.17,1.17,0,0,0-.17-1,1.15,1.15,0,0,0,.74-.54,1.19,1.19,0,0,0,.09-1,1.16,1.16,0,0,0,.92-.38,1.14,1.14,0,0,0,.28-.94,1.16,1.16,0,0,0,.93-.18,1.14,1.14,0,0,0,.49-.84,1.18,1.18,0,0,0,1,0,1.15,1.15,0,0,0,.63-.67,1.13,1.13,0,0,0,.89.3h0a1.16,1.16,0,0,0,.86-.54,1.14,1.14,0,0,0,.86.49,1.12,1.12,0,0,0,.89-.33,1.13,1.13,0,0,0,.71.67,1.11,1.11,0,0,0,1-.13,1.18,1.18,0,0,0,.58.8h0a1.15,1.15,0,0,0,.83.11l.1.12a1.09,1.09,0,0,0,.29.69l0,0a5.15,5.15,0,0,1,1.7,4.11c-.07.49.21.75.57.36a7,7,0,0,0,1.78-5.54,1.81,1.81,0,0,0-.14-.62,2.33,2.33,0,0,0,0-.38,1.86,1.86,0,0,0-.74-1.48,1.86,1.86,0,0,0,0-.33,1.77,1.77,0,0,0-1.12-1.65,1.7,1.7,0,0,0-1.43-1.65A1.62,1.62,0,0,0,38.13,6H38a1.54,1.54,0,0,0-1.46-1.06,1.58,1.58,0,0,0-.38.05,1.46,1.46,0,0,0-1.32-.85,1.51,1.51,0,0,0-.64.15,1.37,1.37,0,0,0-1.19-.68,1.35,1.35,0,0,0-.85.3,1.28,1.28,0,0,0-2,0,1.18,1.18,0,0,0-.92-.44,1.17,1.17,0,0,0-1.07.7,1.08,1.08,0,0,0-1.91.58,1,1,0,0,0-1.77.59A1,1,0,0,0,25.47,6.23Z"/><path id="_Path_105" data-name="&lt;Path&gt;" class="cls-1" d="M18.84,31.71a.08.08,0,0,0-.08.08.08.08,0,0,0,.16,0A.08.08,0,0,0,18.84,31.71Z"/><path id="_Path_106" data-name="&lt;Path&gt;" class="cls-1" d="M18,29.93a.16.16,0,0,0-.16.16.16.16,0,0,0,.16.15.15.15,0,0,0,.15-.15A.16.16,0,0,0,18,29.93Z"/><path id="_Path_107" data-name="&lt;Path&gt;" class="cls-1" d="M17.24,28.07a.23.23,0,1,0,0,.46.23.23,0,0,0,0-.46Z"/><path id="_Path_108" data-name="&lt;Path&gt;" class="cls-1" d="M16.72,26.15a.3.3,0,0,0-.31.3.31.31,0,0,0,.31.31.3.3,0,0,0,.3-.31A.29.29,0,0,0,16.72,26.15Z"/><path id="_Path_109" data-name="&lt;Path&gt;" class="cls-1" d="M16.78,24.56a.38.38,0,0,0-.38-.38.38.38,0,1,0,0,.76A.38.38,0,0,0,16.78,24.56Z"/><path id="_Path_110" data-name="&lt;Path&gt;" class="cls-1" d="M16.74,22.64a.46.46,0,1,0-.46.46A.47.47,0,0,0,16.74,22.64Z"/><path id="_Path_111" data-name="&lt;Path&gt;" class="cls-1" d="M15.83,20.72a.53.53,0,0,0,.53.54.54.54,0,1,0,0-1.07A.53.53,0,0,0,15.83,20.72Z"/><path id="_Path_112" data-name="&lt;Path&gt;" class="cls-1" d="M16.65,19.43a.61.61,0,1,0-.61-.61A.61.61,0,0,0,16.65,19.43Z"/><path id="_Path_113" data-name="&lt;Path&gt;" class="cls-1" d="M17.18,16.29a.68.68,0,0,0-.69.68.69.69,0,1,0,1.37,0A.67.67,0,0,0,17.18,16.29Z"/><path id="_Path_114" data-name="&lt;Path&gt;" class="cls-1" d="M17.94,16a.77.77,0,0,0,.76-.77.76.76,0,0,0-1.52,0A.77.77,0,0,0,17.94,16Z"/><path id="_Path_115" data-name="&lt;Path&gt;" class="cls-1" d="M18.93,14.41a.85.85,0,1,0-.84-.84A.85.85,0,0,0,18.93,14.41Z"/><path id="_Path_116" data-name="&lt;Path&gt;" class="cls-1" d="M21,12.06a.92.92,0,1,0-.92.92A.92.92,0,0,0,21,12.06Z"/></g><g id="_Group_" data-name="&lt;Group&gt;"><path id="_Path_117" data-name="&lt;Path&gt;" class="cls-1" d="M3.92,51.68a3.91,3.91,0,0,1-1.53-.31,3.83,3.83,0,0,1-2.08-2.1A3.74,3.74,0,0,1,0,47.74,3.82,3.82,0,0,1,.31,46.2,4,4,0,0,1,1.14,45a4.07,4.07,0,0,1,1.25-.85,3.74,3.74,0,0,1,1.53-.31,3.67,3.67,0,0,1,1.54.32A4,4,0,0,1,6.72,45a.79.79,0,0,1,.18.29.48.48,0,0,1-.05.39.49.49,0,0,1-.39.22h0A.57.57,0,0,1,6,45.72a5,5,0,0,0-1-.64,2.45,2.45,0,0,0-1.16-.28A2.77,2.77,0,0,0,2.78,45a2.84,2.84,0,0,0-.92.63,3,3,0,0,0-.62,3.22,2.91,2.91,0,0,0,.62.93,3,3,0,0,0,.92.63,3,3,0,0,0,2.32,0,2.85,2.85,0,0,0,1-.68.61.61,0,0,1,.31-.18l.12,0a.43.43,0,0,1,.26.09.47.47,0,0,1,.19.4.56.56,0,0,1-.14.39,3.68,3.68,0,0,1-1.29.92A3.82,3.82,0,0,1,3.92,51.68Z"/><path id="_Compound_Path_" data-name="&lt;Compound Path&gt;" class="cls-2" d="M12.11,51.67a4,4,0,0,1-1.53-.31A4,4,0,0,1,8.5,49.28a4.05,4.05,0,0,1,0-3.06A4.29,4.29,0,0,1,9.34,45a4.12,4.12,0,0,1,1.24-.84,3.93,3.93,0,0,1,3.06,0,4.16,4.16,0,0,1,1.25.84,4.1,4.1,0,0,1,.84,1.25,3.91,3.91,0,0,1-.84,4.3,4.29,4.29,0,0,1-1.25.84A4,4,0,0,1,12.11,51.67Zm0-6.84a3,3,0,0,0-2.06.85,3.09,3.09,0,0,0-.62.93,2.92,2.92,0,0,0,.62,3.2,3,3,0,0,0,2.06.85,2.9,2.9,0,0,0,1.14-.23,3,3,0,0,0,.93-.62,2.93,2.93,0,0,0,.62-.92A2.77,2.77,0,0,0,15,47.75a2.69,2.69,0,0,0-.23-1.13,3,3,0,0,0-.62-.94,3,3,0,0,0-.93-.62A2.94,2.94,0,0,0,12.11,44.83Z"/><path id="_Path_118" data-name="&lt;Path&gt;" class="cls-1" d="M23,51.69a.49.49,0,0,1-.36-.15.48.48,0,0,1-.14-.35v-4.5a1.8,1.8,0,0,0-.15-.73,1.94,1.94,0,0,0-.41-.6,1.77,1.77,0,0,0-.61-.41,1.85,1.85,0,0,0-1.46,0,1.65,1.65,0,0,0-.6.41,1.75,1.75,0,0,0-.4.6,1.83,1.83,0,0,0-.15.73v4.5a.45.45,0,0,1-.15.35.51.51,0,0,1-.72,0,.48.48,0,0,1-.14-.35v-4.5A2.88,2.88,0,0,1,19.45,44a2.89,2.89,0,0,1,2.26,0,2.93,2.93,0,0,1,.92.62,3.13,3.13,0,0,1,.63.92,2.89,2.89,0,0,1,.23,1.13v4.5a.45.45,0,0,1-.15.35A.49.49,0,0,1,23,51.69Z"/><path id="_Path_119" data-name="&lt;Path&gt;" class="cls-1" d="M27.94,51.69a3,3,0,0,1-1.09-.19A2.84,2.84,0,0,1,26,51a2.43,2.43,0,0,1-.61-.78,2.17,2.17,0,0,1-.22-1,.48.48,0,1,1,1,0,1.19,1.19,0,0,0,.14.56,1.32,1.32,0,0,0,.39.46,2,2,0,0,0,.59.32,2.19,2.19,0,0,0,.73.12,2.25,2.25,0,0,0,.74-.12,2.2,2.2,0,0,0,.61-.32,1.46,1.46,0,0,0,.4-.46,1,1,0,0,0,.11-.55,1,1,0,0,0-.17-.51,1.67,1.67,0,0,0-.39-.45,3.12,3.12,0,0,0-.57-.32A3.57,3.57,0,0,0,28,47.8a4.14,4.14,0,0,1-1-.19,3.4,3.4,0,0,1-.83-.42,2,2,0,0,1-.59-.61,1.46,1.46,0,0,1-.23-.79,1.57,1.57,0,0,1,.21-.8,2.19,2.19,0,0,1,.58-.64,3,3,0,0,1,.84-.42,3.4,3.4,0,0,1,1-.16,3.47,3.47,0,0,1,1,.16,3.15,3.15,0,0,1,.84.42,2.14,2.14,0,0,1,.57.64,1.48,1.48,0,0,1,.22.8.5.5,0,0,1-.51.5.45.45,0,0,1-.35-.15.62.62,0,0,1-.15-.39.65.65,0,0,0-.13-.34,1.18,1.18,0,0,0-.35-.31,1.7,1.7,0,0,0-.53-.23,2.2,2.2,0,0,0-.64-.09,2.39,2.39,0,0,0-.66.09,1.77,1.77,0,0,0-.52.22,1.1,1.1,0,0,0-.34.34.58.58,0,0,0-.12.37.45.45,0,0,0,.14.34,1.3,1.3,0,0,0,.41.31,3,3,0,0,0,.55.23,4.46,4.46,0,0,0,.56.13,4.11,4.11,0,0,1,1.06.26,3.3,3.3,0,0,1,.88.52,2.33,2.33,0,0,1,.59.74,2,2,0,0,1,.22.92,2.12,2.12,0,0,1-.23,1,2.36,2.36,0,0,1-.61.77,3,3,0,0,1-.89.52A3.07,3.07,0,0,1,27.94,51.69Z"/><path id="_Path_120" data-name="&lt;Path&gt;" class="cls-1" d="M33,51.69a.48.48,0,0,1-.36-.15.45.45,0,0,1-.15-.35v-6.9a.49.49,0,0,1,.15-.36.51.51,0,0,1,.36-.14h4.2a.51.51,0,0,1,.36.14.51.51,0,0,1,0,.72.51.51,0,0,1-.36.15h-3.7v2.41h2.62a.49.49,0,0,1,.36.15.45.45,0,0,1,.15.35.48.48,0,0,1-.15.36.49.49,0,0,1-.36.15H33.54v2.46h3.7a.48.48,0,0,1,.36.15.49.49,0,0,1,.15.36.45.45,0,0,1-.15.35.48.48,0,0,1-.36.15Z"/><path id="_Path_121" data-name="&lt;Path&gt;" class="cls-1" d="M44.4,51.69a.51.51,0,0,1-.51-.5v-4.5a1.76,1.76,0,0,0-.56-1.33,1.65,1.65,0,0,0-.6-.41,1.85,1.85,0,0,0-1.46,0,1.65,1.65,0,0,0-.6.41,2.06,2.06,0,0,0-.41.6,1.83,1.83,0,0,0-.15.73v4.5a.48.48,0,0,1-.14.35.51.51,0,0,1-.72,0,.45.45,0,0,1-.15-.35v-4.5A2.9,2.9,0,0,1,40.87,44a2.89,2.89,0,0,1,2.26,0,2.9,2.9,0,0,1,1.54,1.54,2.75,2.75,0,0,1,.23,1.13v4.5a.48.48,0,0,1-.14.35A.49.49,0,0,1,44.4,51.69Z"/><path id="_Path_122" data-name="&lt;Path&gt;" class="cls-1" d="M49.36,51.69a3,3,0,0,1-1.09-.19,2.84,2.84,0,0,1-.9-.51,2.43,2.43,0,0,1-.61-.78,2,2,0,0,1-.22-1,.49.49,0,0,1,.14-.34.48.48,0,0,1,.68,0,.49.49,0,0,1,.14.34,1.19,1.19,0,0,0,.14.56,1.32,1.32,0,0,0,.39.46,2,2,0,0,0,.59.32,2.15,2.15,0,0,0,.73.12,2.25,2.25,0,0,0,.74-.12,2.2,2.2,0,0,0,.61-.32,1.46,1.46,0,0,0,.4-.46,1,1,0,0,0,.11-.55,1,1,0,0,0-.17-.51,1.55,1.55,0,0,0-.4-.45,2.49,2.49,0,0,0-.56-.32,3.57,3.57,0,0,0-.68-.19,4,4,0,0,1-1-.19,3.47,3.47,0,0,1-.84-.42,2.28,2.28,0,0,1-.59-.61,1.46,1.46,0,0,1-.23-.79A1.63,1.63,0,0,1,47,45a2.06,2.06,0,0,1,.58-.64,3,3,0,0,1,.84-.42,3.4,3.4,0,0,1,1-.16,3.35,3.35,0,0,1,1,.16,3.21,3.21,0,0,1,.85.42,2.16,2.16,0,0,1,.57.64,1.53,1.53,0,0,1,.22.8.49.49,0,0,1-.15.36.52.52,0,0,1-.36.14.43.43,0,0,1-.35-.16.57.57,0,0,1-.15-.38.65.65,0,0,0-.13-.34,1.34,1.34,0,0,0-.35-.31,1.7,1.7,0,0,0-.53-.23,2.2,2.2,0,0,0-.64-.09,2.39,2.39,0,0,0-.66.09,2,2,0,0,0-.53.22,1.37,1.37,0,0,0-.34.34.65.65,0,0,0-.12.37.46.46,0,0,0,.15.34,1.38,1.38,0,0,0,.4.31,3.13,3.13,0,0,0,.56.23,4.09,4.09,0,0,0,.56.13,4.11,4.11,0,0,1,1.06.26,3.24,3.24,0,0,1,.87.52,2.32,2.32,0,0,1,.6.73,2.18,2.18,0,0,1,0,1.89,2.36,2.36,0,0,1-.61.77,3.15,3.15,0,0,1-.89.52A3.07,3.07,0,0,1,49.36,51.69Z"/><path id="_Path_123" data-name="&lt;Path&gt;" class="cls-1" d="M57,51.69a.49.49,0,0,1-.36-.15.45.45,0,0,1-.15-.35V48.62l-3.11-4a.52.52,0,0,1-.11-.36.48.48,0,0,1,.18-.34.51.51,0,0,1,.33-.11.46.46,0,0,1,.37.18L57,47.63,59.87,44a.46.46,0,0,1,.34-.18h0a.54.54,0,0,1,.35.11.46.46,0,0,1,.18.34.47.47,0,0,1-.11.36l-3.17,4v2.57a.48.48,0,0,1-.14.35A.49.49,0,0,1,57,51.69Z"/><path id="_Path_124" data-name="&lt;Path&gt;" class="cls-1" d="M64.56,51.69a3.07,3.07,0,0,1-1.1-.19,2.79,2.79,0,0,1-.89-.51,2.3,2.3,0,0,1-.61-.78,2.05,2.05,0,0,1-.23-1,.49.49,0,0,1,.14-.34.5.5,0,0,1,.35-.14.49.49,0,0,1,.34.14.48.48,0,0,1,.14.34,1.18,1.18,0,0,0,.13.56,1.54,1.54,0,0,0,.39.46,2.08,2.08,0,0,0,.59.32,2.19,2.19,0,0,0,.73.12,2.36,2.36,0,0,0,.75-.12,2.14,2.14,0,0,0,.6-.32,1.35,1.35,0,0,0,.4-.46,1.06,1.06,0,0,0,.12-.55,1.28,1.28,0,0,0-.17-.51,1.9,1.9,0,0,0-.4-.45,2.57,2.57,0,0,0-.57-.32,3.69,3.69,0,0,0-.67-.19,4,4,0,0,1-1-.19,3.3,3.3,0,0,1-.84-.42,2.28,2.28,0,0,1-.59-.61,1.46,1.46,0,0,1-.23-.79,1.62,1.62,0,0,1,.21-.8,2.19,2.19,0,0,1,.58-.64,3,3,0,0,1,.84-.42,3.36,3.36,0,0,1,2,0,2.78,2.78,0,0,1,.84.43,2,2,0,0,1,.58.63,1.62,1.62,0,0,1,.21.8.49.49,0,0,1-.15.36.48.48,0,0,1-.35.14.46.46,0,0,1-.36-.15.62.62,0,0,1-.15-.39.58.58,0,0,0-.13-.34,1.07,1.07,0,0,0-.35-.31,1.64,1.64,0,0,0-.52-.23,2.39,2.39,0,0,0-1.3,0,1.84,1.84,0,0,0-.53.22,1.22,1.22,0,0,0-.34.34.65.65,0,0,0-.12.37.45.45,0,0,0,.14.34,1.43,1.43,0,0,0,.41.31,3,3,0,0,0,.55.23,4.9,4.9,0,0,0,.56.13,4.09,4.09,0,0,1,1.07.26,3.4,3.4,0,0,1,.87.52,2.22,2.22,0,0,1,.59.74,1.92,1.92,0,0,1,.22.92,2.25,2.25,0,0,1-.22,1,2.5,2.5,0,0,1-.61.77,3.07,3.07,0,0,1-2,.71Z"/></g></g></g></g></g></svg>