<?xml version="1.0" encoding="UTF-8"?>
<svg width="45px" height="32px" viewBox="0 0 45 32" version="1.1" xmlns="http://www.w3.org/2000/svg" xmlns:xlink="http://www.w3.org/1999/xlink">
    <title>形状</title>
    <g id="home" stroke="none" stroke-width="1" fill="none" fill-rule="evenodd">
        <g transform="translate(-1850.000000, -845.000000)" fill="#04FFA2" fill-rule="nonzero" id="跟随social">
            <g transform="translate(1825.000000, 541.000000)">
                <g id="discord" transform="translate(15.000000, 296.561058)">
                    <path d="M17.68,12.9725431 C21.0275254,9.98256849 26.8775254,8.26001771 26.8775254,8.26001771 L26.3249746,7.7075431 C20.8325254,7.8050431 15.8600254,11.6075431 15.8600254,11.6075431 C10.27,23.2750177 10.6274746,33.3500431 10.6274746,33.3500431 C15.1775254,39.2325685 21.9374746,38.8100431 21.9374746,38.8100431 L24.2450254,35.8850431 C20.1824746,35.0075431 17.6150254,31.4000431 17.6150254,31.4000431 C17.6150254,31.4000431 23.725,35.5600177 32.5,35.5600177 C41.275,35.5600177 47.3849746,31.4000431 47.3849746,31.4000431 C47.3849746,31.4000431 44.8175254,35.0075431 40.7549746,35.8850431 L43.0625254,38.8100431 C43.0625254,38.8100431 49.8224746,39.2325685 54.3725254,33.3500431 C54.3725254,33.3500431 54.73,23.2750177 49.1399746,11.6075431 C49.1399746,11.6075431 44.1674746,7.8050431 38.6750254,7.7075431 L38.1224746,8.26001771 C38.1224746,8.26001771 43.9724746,9.98256849 47.32,12.9725431 C47.32,12.9725431 41.2100254,9.23501771 32.5,9.23501771 C23.7899746,9.23501771 17.68,12.9725431 17.68,12.9725431 Z M25.7725,21.5525431 C27.8849746,21.5525431 29.6075254,23.4050431 29.575,25.6800685 C29.575,27.9225685 27.8849746,29.8075177 25.7725,29.8075177 C23.6924746,29.8075177 22.0025254,27.9225685 22.0025254,25.6800685 C22.0025254,23.4050431 23.6600254,21.5525431 25.7725,21.5525431 M39.325,21.5525431 C41.4374746,21.5525431 43.1275,23.4050431 43.1275,25.6800685 C43.1275,27.9225685 41.4374746,29.8075177 39.325,29.8075177 C37.2449746,29.8075177 35.5550254,27.9225685 35.5550254,25.6800685 C35.5550254,23.4050431 37.2125254,21.5525431 39.325,21.5525431 Z" id="形状"></path>
                </g>
            </g>
        </g>
    </g>
</svg>