<?xml version="1.0" encoding="UTF-8"?>
<svg width="41px" height="41px" viewBox="0 0 41 41" version="1.1" xmlns="http://www.w3.org/2000/svg" xmlns:xlink="http://www.w3.org/1999/xlink">
    <title>discord</title>
    <g id="home" stroke="none" stroke-width="1" fill="none" fill-rule="evenodd">
        <g transform="translate(-1672.000000, -7796.000000)" fill-rule="nonzero" id="编组-19">
            <g transform="translate(3.000000, 7763.102051)">
                <g id="编组-39" transform="translate(1598.660000, 33.250000)">
                    <g id="discord" transform="translate(71.000000, 0.000000)">
                        <rect id="矩形" fill="#000000" opacity="0" x="0" y="0" width="40" height="40"></rect>
                        <path d="M19.45,2.5 C29.1149831,2.5 36.95,10.3350169 36.95,20 C36.95,29.6649831 29.1149831,37.5 19.45,37.5 C9.78501688,37.5 1.95,29.6649831 1.95,20 C1.95,10.3350169 9.78501688,2.5 19.45,2.5 Z M16.7595469,11.9698307 L16.6329955,11.969875 C16.0468266,11.9809467 13.5926496,12.1483761 10.97,14.0866667 C10.97,14.0866667 10.9610496,14.1022568 10.9441252,14.1327845 L10.8999336,14.2135637 C10.4478926,15.0494766 7.96166668,19.9139394 7.96166668,25.7866667 C7.96166668,25.7866667 9.62833336,28.6866667 14.2,28.7966667 C14.2,28.7966667 14.8666667,27.9083334 15.5416667,27.1266667 C12.975,26.3466667 11.975,24.7866667 11.975,24.7866667 C11.975,24.7866667 12.1983333,24.8966667 12.5333333,25.12 L12.6333333,25.12 C12.6833333,25.12 12.7066666,25.145 12.7333333,25.17 L12.7333333,25.18 C12.76,25.2066667 12.7833333,25.23 12.8333333,25.23 C13.3833333,25.4566667 13.9333333,25.68 14.3833333,25.8966667 C15.3457188,26.3086365 16.352352,26.6083895 17.3833333,26.79 C18.9333333,27.015 20.71,27.1233333 22.7333333,26.79 C23.7333333,26.565 24.7333333,26.345 25.7333333,25.8983333 C26.3833333,25.565 27.1833333,25.2316666 28.0616667,24.67 C28.0616667,24.67 27.0616667,26.23 24.3866667,27.01 C24.9366667,27.7866667 25.7116667,28.6766667 25.7116667,28.6766667 C30.285,28.5766667 32.0616667,25.6766667 32.1616667,25.8 C32.1616667,19.5845455 29.3526667,14.483405 29.1483758,14.1206317 L29.1366667,14.1 L29.1366667,14.1 C26.4942424,12.1379798 24.0163728,12.006434 23.4583073,12.0002632 L23.427,12 L23.12,12.305 C26.575,13.305 28.2466667,14.8666667 28.2466667,14.8666667 C26.02,13.7533334 24.0133334,13.1966667 22.0066667,12.9716667 C20.5566667,12.7466667 19.1066667,12.865 17.8816667,12.9716667 L17.5483333,12.9716667 C16.765,12.9716667 15.0983333,13.305 12.865,14.1966667 C12.0866667,14.535 11.64,14.7566667 11.64,14.7566667 L11.6574048,14.7398294 C11.6690311,14.7287706 11.6865052,14.7124317 11.7098962,14.6913108 L11.7978893,14.614101 C12.2920069,14.1914937 13.9594118,12.9293137 16.99,12.195 L16.765,11.97 L16.7595469,11.9698307 Z M23.7866667,19.3266667 C24.9583334,19.3266667 25.9033333,20.3266667 25.9033333,21.5516667 C25.9033333,22.785 24.9533333,23.785 23.7866667,23.785 C22.62,23.785 21.67,22.785 21.67,21.5616667 C21.6733333,20.3283334 22.625,19.3316667 23.7866667,19.3316667 L23.7866667,19.3266667 Z M16.215,19.3266667 C17.3816667,19.3266667 18.325,20.3266667 18.325,21.5516667 C18.325,22.785 17.375,23.785 16.2083333,23.785 C15.0416666,23.785 14.0916667,22.785 14.0916667,21.5616667 C14.0916667,20.3283334 15.0416667,19.3316667 16.2083333,19.3316667 L16.215,19.3266667 Z" id="形状" fill="#FFFFFF"></path>
                    </g>
                </g>
            </g>
        </g>
    </g>
</svg>