<?xml version="1.0" encoding="UTF-8"?>
<svg width="46px" height="46px" viewBox="0 0 46 46" version="1.1" xmlns="http://www.w3.org/2000/svg" xmlns:xlink="http://www.w3.org/1999/xlink">
    <title>googleplay</title>
    <g id="pc" stroke="none" stroke-width="1" fill="none" fill-rule="evenodd">
        <g id="home更新" transform="translate(-952.000000, -7307.000000)" fill="#FFFFFF" fill-rule="nonzero">
            <g id="googleplay" transform="translate(952.992076, 7307.625902)">
                <rect id="矩形" opacity="0" x="0" y="0" width="45" height="45"></rect>
                <path d="M2.28749999,0 C2.23124999,0.174375 2.17499999,0.346874985 2.17499999,0.577499985 L2.17499999,44.131875 C2.17499999,44.53875 2.289375,44.769375 2.52,45 L23.923125,22.325625 L2.28749999,0 Z M25.366875,23.8275 L30.9,29.536875 L23.000625,34.036875 C23.000625,34.036875 12.96,39.744375 7.42312499,42.9225 L25.366875,23.8275 L25.366875,23.8275 Z M26.86875,22.269375 L32.805,28.441875 C33.735,27.924375 41.000625,23.769375 42.0375,23.191875 C43.1325,22.558125 43.021875,21.691875 42.091875,21.230625 C41.23125,20.7525 33.965625,16.59 32.866875,15.915 L26.86125,22.275 L26.86875,22.269375 L26.86875,22.269375 Z M25.363125,20.769375 L30.958125,14.8275 L22.9725,10.269375 C22.9725,10.269375 9.95437499,2.82187499 5.62312499,0.335624985 L25.366875,20.769375 L25.363125,20.769375 L25.363125,20.769375 Z" id="形状"></path>
            </g>
        </g>
    </g>
</svg>