<?xml version="1.0" encoding="UTF-8"?>
<svg width="30px" height="30px" viewBox="0 0 30 30" version="1.1" xmlns="http://www.w3.org/2000/svg" xmlns:xlink="http://www.w3.org/1999/xlink">
    <title>矩形</title>
    <g id="home" stroke="none" stroke-width="1" fill="none" fill-rule="evenodd">
        <g id="制作画板备份" transform="translate(-1622.000000, -28.000000)" fill-rule="nonzero">
            <g id="top" transform="translate(0.000000, -2.000000)">
                <g id="languages" transform="translate(1622.000000, 30.000000)">
                    <rect id="矩形" opacity="0" x="0" y="0" width="30" height="30"></rect>
                    <path d="M24.8517354,23.5410525 C26.9295506,21.1749649 28.0645161,18.1771459 28.0645161,15.0054979 C28.0645161,11.5345805 26.7059596,8.27134011 24.2390912,5.8169972 C21.8101668,3.40037579 18.5928041,2.0538124 15.1642488,2.01296233 C15.1079168,1.99550198 14.8630927,1.99571054 14.8064013,2.01340928 C11.3915921,2.06340667 8.1886044,3.40901659 5.76833496,5.8169972 C3.34303428,8.23001327 1.98998818,11.4250212 1.94506632,14.8304473 C1.93251815,14.8784782 1.93227855,15.0809112 1.94443742,15.1282269 C1.9761223,18.5532289 3.3306059,21.768647 5.76833496,24.1939986 C8.23520332,26.6483415 11.5150673,28 15.0037281,28 C18.4923589,28 21.7722528,26.6483415 24.2391212,24.1939986 C24.4188086,24.0152235 24.5919074,23.8316514 24.7597355,23.6445037 C24.7745896,23.6313041 24.7890545,23.6174789 24.8028005,23.6025512 C24.8208591,23.5829753 24.8367914,23.5622374 24.8517354,23.5410525 Z M3.15526095,15.5766544 L8.6426445,15.5766544 C8.6813372,17.4890408 8.91346335,19.2822438 9.30128864,20.879271 C7.49587953,21.3651518 6.35073174,21.9965554 5.75788314,22.3906352 C4.23407412,20.5059887 3.2790356,18.1480949 3.15526095,15.5766544 Z M5.74335839,7.6382679 C6.33132551,8.0330032 7.47713214,8.67081293 9.29449046,9.15994145 C8.91409225,10.7359924 8.68496086,12.501962 8.64351296,14.3845228 L3.15756692,14.3845228 C3.29074524,11.840554 4.2378176,9.5077185 5.74335839,7.6382679 Z M26.8498892,14.384493 L21.3639132,14.384493 C21.3224953,12.5026175 21.0934837,10.7372438 20.713355,9.16161002 C22.5265206,8.67555048 23.6761007,8.04221009 24.2711055,7.6469087 C25.7725734,9.51492909 26.7168906,11.844487 26.8498892,14.384493 Z M20.1654582,14.384493 L15.5850468,14.384493 L15.5850468,9.84107436 C17.1129886,9.8091928 18.4268628,9.65315201 19.5439195,9.43245422 C19.9115,10.9505225 20.124729,12.6315441 20.1654582,14.384493 Z M15.5850468,8.64885342 L15.5850468,3.28554263 C16.663231,3.58832796 17.7150012,4.7182756 18.5387482,6.48889336 C18.7965996,7.04315558 19.0258807,7.64315441 19.2254535,8.28021927 C18.2003669,8.47740815 16.9925681,8.6181935 15.5850468,8.64885342 Z M14.3868013,3.29588181 L14.3868013,8.64778077 C12.99653,8.61497555 11.8003211,8.47302816 10.7835899,8.27500501 C10.9828033,7.63987689 11.2115453,7.04160622 11.468678,6.48883379 C12.2834106,4.73773229 13.3211053,3.61332668 14.3868013,3.29588181 Z M14.3868013,9.84047842 L14.3868013,14.384493 L9.84196802,14.384493 C9.88269715,12.6312462 10.0959861,10.9499563 10.4636864,9.4316795 C11.57098,9.65109607 12.8726954,9.80689851 14.3868013,9.84047842 Z M9.84091983,15.5766544 L14.3868013,15.5766544 L14.3868013,20.1966185 C12.876409,20.2313902 11.5767001,20.387729 10.4703947,20.6072648 C10.0950577,19.0673562 9.87898364,17.3586243 9.84091983,15.5766544 Z M14.3868013,21.3892864 L14.3868013,26.715114 C13.3210754,26.3976691 12.2834106,25.2732635 11.468708,23.5221322 C11.2146899,22.9761234 10.9884634,22.3855699 10.790987,21.7590527 C11.8047533,21.5632047 12.9981172,21.4227173 14.3868013,21.3892864 Z M15.5850468,26.7254532 L15.5850468,21.387439 C16.9869978,21.4172945 18.1927301,21.5581394 19.2174275,21.755954 C19.0197114,22.3836033 18.7931556,22.9751998 18.5387482,23.5221024 C17.7150012,25.2927202 16.663231,26.4226678 15.5850468,26.7254532 Z M15.5850468,20.1951287 L15.5850468,15.5766544 L20.1665064,15.5766544 C20.1285025,17.355615 19.9130573,19.061546 19.5388882,20.5994583 C18.4234487,20.3801311 17.1113115,20.225729 15.5850468,20.1951287 Z M21.3648116,15.5766544 L26.8521952,15.5766544 C26.7286601,18.1429998 25.7771854,20.4966924 24.2586472,22.3794617 C23.6595994,21.9814787 22.5133735,21.3516542 20.7085933,20.8692 C21.0949212,19.2747054 21.3261788,17.4850481 21.3648116,15.5766544 Z M23.467843,6.74537596 C22.9314162,7.08227752 21.9369663,7.60012922 20.3990817,8.01178853 C19.8343841,6.17576888 19.0496294,4.66318307 18.1145362,3.6157699 C20.1748918,4.17339906 22.0137527,5.27072026 23.467843,6.74537596 Z M11.89289,3.61576993 C10.9591445,4.6616635 10.1752582,6.17135913 9.61077026,8.00380328 C8.07713834,7.58913458 7.08307771,7.06916737 6.55009495,6.73464946 C8.00253809,5.2653868 9.83753574,4.17205827 11.89289,3.61576993 Z M6.56387096,23.2903801 C7.09898002,22.9544916 8.08857841,22.439262 9.617239,22.0285561 C10.1812478,23.8514358 10.9627682,25.3533547 11.89289,26.3952258 C9.84403442,25.8406955 8.01412794,24.752611 6.56387096,23.2903801 Z M18.1145362,26.3952258 C19.045227,25.352729 19.8271068,23.8496183 20.3912054,22.0252488 C21.9125887,22.433571 22.9072483,22.946268 23.4504732,23.2833483 C21.9991081,24.7490951 20.1666561,25.8398314 18.1145362,26.3952258 Z" id="形状" fill="#D8D8D8"></path>
                </g>
            </g>
        </g>
    </g>
</svg>