<?xml version="1.0" encoding="UTF-8"?>
<svg width="46px" height="40px" viewBox="0 0 46 40" version="1.1" xmlns="http://www.w3.org/2000/svg" xmlns:xlink="http://www.w3.org/1999/xlink">
    <title>矩形</title>
    <g id="home" stroke="none" stroke-width="1" fill="none" fill-rule="evenodd">
        <g id="制作画板备份" transform="translate(-1848.000000, -817.000000)">
            <g id="跟随social" transform="translate(1823.000000, 624.678782)">
                <g id="加入icon" transform="translate(24.552988, 193.000000)">
                    <g id="编组-5" transform="translate(0.000000, 0.321218)" fill="#FFFFFF">
                        <polygon id="路径-9" points="4.2512985 2.82034236 5.71114889 0 40.111006 0 42.0021078 2.82034236 37.3020359 5.9070371 33.2519836 5.9070371 31.8010539 2.82034236 27.1895667 2.82034236 25.5964273 7.78984795 20.747718 7.78984795 19.019133 2.82034236 13.616669 2.82034236 12.483083 5.44196791 8.35551913 5.44196791"></polygon>
                        <polygon id="路径-9" transform="translate(12.902012, 20.728115) rotate(-122.000000) translate(-12.902012, -20.728115) " points="-5.6109137 18.2585753 -4.87602061 17.0825005 29.5238365 17.0825005 31.4149383 19.9028429 26.7148664 22.9895376 22.6648141 22.9895376 21.2138844 19.9028429 16.6023972 19.9028429 15.0331221 24.3737289 10.1844128 24.3737289 8.43196348 19.9028429 3.02949952 19.9028429 -2.75867814 20.0408499"></polygon>
                        <polygon id="路径-9" transform="translate(32.992012, 20.728115) scale(-1, 1) rotate(-122.000000) translate(-32.992012, -20.728115) " points="14.4790863 18.2585753 15.2139794 17.0825005 49.6138365 17.0825005 51.5049383 19.9028429 46.8048664 22.9895376 42.7548141 22.9895376 41.3038844 19.9028429 36.6923972 19.9028429 35.1231221 24.3737289 30.2744128 24.3737289 28.5219635 19.9028429 23.1194995 19.9028429 17.3313219 20.0408499"></polygon>
                    </g>
                    <path d="M19.6637026,9.33034009 L26.8275072,9.45538477 L29.3405309,13.9908591 L26.2221911,13.9908591 L25.2055166,12.1549918 L21.1905861,12.0849109 L19.1224635,15.5268449 L21.0692045,19.0388586 L25.0841152,19.1089391 L26.5853522,16.6088591 L29.7670727,16.6088591 L26.6109244,21.8635086 L19.447118,21.7384639 L15.9734935,15.4718794 L19.6637026,9.33034009 Z" id="形状结合" stroke="#FFFFFF" stroke-width="0.5" fill="#FFFFFF"></path>
                    <rect id="矩形" x="0.447012283" y="0" width="46" height="39"></rect>
                </g>
            </g>
        </g>
    </g>
</svg>