<?xml version="1.0" encoding="UTF-8"?>
<svg width="3194px" height="647px" viewBox="0 0 3194 647" version="1.1" xmlns="http://www.w3.org/2000/svg" xmlns:xlink="http://www.w3.org/1999/xlink">
    <title>61e4a191df912b553a7e1ca6_Avalanche_Horizontal_Black</title>
    <g id="页面-1" stroke="none" stroke-width="1" fill="none" fill-rule="evenodd">
        <g id="61e4a191df912b553a7e1ca6_Avalanche_Horizontal_Black" fill="#FFFFFF" fill-rule="nonzero">
            <path d="M863.927,210.703 L898.649,210.703 L995.807,436.238 L949.936,436.238 L928.911,384.632 L831.116,384.632 L810.728,436.238 L765.812,436.238 L863.927,210.703 Z M914.895,350.229 L880.173,258.486 L844.813,350.229 L914.895,350.229 Z" id="形状"></path>
            <polygon id="路径" points="1038.86 210.703 1085.05 210.703 1146.53 381.128 1209.92 210.703 1253.25 210.703 1162.14 436.238 1127.42 436.238"></polygon>
            <path d="M1396.69,210.703 L1431.42,210.703 L1528.57,436.238 L1482.7,436.238 L1461.68,384.632 L1363.88,384.632 L1343.49,436.238 L1298.58,436.238 L1396.69,210.703 Z M1447.66,350.229 L1412.94,258.486 L1377.58,350.229 L1447.66,350.229 Z" id="形状"></path>
            <polygon id="路径" points="1617.35 210.703 1657.49 210.703 1657.49 399.923 1753.37 399.923 1753.37 436.238 1617.35 436.238"></polygon>
            <path d="M1919.19,210.703 L1953.92,210.703 L2051.07,436.238 L2005.2,436.238 L1984.18,384.632 L1886.38,384.632 L1865.99,436.238 L1821.08,436.238 L1919.19,210.703 Z M1970.16,350.229 L1935.44,258.486 L1900.08,350.229 L1970.16,350.229 Z" id="形状"></path>
            <polygon id="路径" points="2139.85 210.703 2193.05 210.703 2302.31 378.261 2302.95 378.261 2302.95 210.703 2343.08 210.703 2343.08 436.238 2292.12 436.238 2180.62 263.264 2179.99 263.264 2179.99 436.238 2139.85 436.238"></polygon>
            <path d="M2611.91,263.582 C2603.63,254.663 2595.56,248.717 2587.7,245.743 C2580.05,242.77 2572.3,241.284 2564.45,241.284 C2552.77,241.284 2542.15,243.407 2532.59,247.655 C2523.25,251.69 2515.18,257.424 2508.38,264.857 C2501.58,272.077 2496.28,280.572 2492.45,290.341 C2488.84,300.11 2487.04,310.622 2487.04,321.877 C2487.04,333.982 2488.84,345.132 2492.45,355.325 C2496.28,365.519 2501.58,374.332 2508.38,381.765 C2515.18,389.198 2523.25,395.038 2532.59,399.286 C2542.15,403.533 2552.77,405.657 2564.45,405.657 C2573.58,405.657 2582.39,403.533 2590.89,399.286 C2599.59,394.826 2607.66,387.818 2615.1,378.261 L2648.22,401.834 C2638.03,415.85 2625.61,426.044 2610.95,432.415 C2596.3,438.786 2580.69,441.972 2564.13,441.972 C2546.71,441.972 2530.68,439.211 2516.03,433.689 C2501.58,427.955 2489.05,419.992 2478.44,409.798 C2468.03,399.392 2459.85,386.968 2453.91,372.527 C2447.96,358.086 2444.99,342.052 2444.99,324.426 C2444.99,306.375 2447.96,290.022 2453.91,275.369 C2459.85,260.503 2468.03,247.867 2478.44,237.461 C2489.05,227.055 2501.58,219.091 2516.03,213.57 C2530.68,207.836 2546.71,204.969 2564.13,204.969 C2579.42,204.969 2593.54,207.73 2606.49,213.251 C2619.66,218.56 2631.87,227.692 2643.13,240.647 L2611.91,263.582 Z" id="路径"></path>
            <polygon id="路径" points="2738.88 210.703 2779.01 210.703 2779.01 300.534 2884.45 300.534 2884.45 210.703 2924.59 210.703 2924.59 436.238 2884.45 436.238 2884.45 336.849 2779.01 336.849 2779.01 436.238 2738.88 436.238"></polygon>
            <polygon id="路径" points="3038.7 210.703 3188.1 210.703 3188.1 247.018 3078.84 247.018 3078.84 302.446 3182.37 302.446 3182.37 338.761 3078.84 338.761 3078.84 399.923 3193.84 399.923 3193.84 436.238 3038.7 436.238"></polygon>
            <path d="M323.5,0 C502.164,0 647,144.836 647,323.5 C647,502.164 502.164,647 323.5,647 C144.836,647 0,502.164 0,323.5 C0,144.836 144.836,0 323.5,0 Z M331.297,122.566 C326.767,120.262 321.363,120.262 316.833,122.566 C312.621,124.712 309.283,130.513 302.687,142.116 L302.687,142.116 L147.67,415.355 C141.153,426.799 137.895,432.521 138.133,437.21 C138.451,442.296 141.074,446.905 145.365,449.687 C149.094446,452.073508 155.063538,452.22037 166.687425,452.229407 L235.162343,452.229128 C247.761991,452.218843 254.518313,452.087187 260.599,450.402 C267.831,448.256 274.427,444.442 279.91,439.197 C284.947,434.396 288.581,428.036 295.753,415.486 L295.753,415.486 L295.964,415.117 L377.39,271.178 C384.622,258.542 388.199,252.184 389.788,245.508 C391.536,238.276 391.536,230.647 389.788,223.415 C388.211,216.79 384.598,210.478 377.474,198.03 L377.474,198.03 L377.311,197.746 L345.443,142.116 C338.847,130.513 335.509,124.712 331.297,122.566 Z M390.376,452.237 L480.338,452.237 C493.61,452.237 500.285,452.237 504.259,449.615 C508.55,446.833 511.252,442.144 511.491,437.058 C511.721,432.524 508.533,427.023 502.286,416.245 C502.073,415.877 501.856,415.504 501.636,415.124 L456.576,338.037 L456.063,337.17 C449.731,326.461 446.533,321.054 442.43,318.964 C437.9,316.659 432.576,316.659 428.046,318.964 C423.913,321.109 420.575,326.752 413.979,338.116 L369.078,415.203 L368.924,415.469 C362.351,426.815 359.066,432.485 359.303,437.138 C359.621,442.224 362.243,446.913 366.535,449.694 C370.429,452.237 377.104,452.237 390.376,452.237 L390.376,452.237 Z" id="形状"></path>
        </g>
    </g>
</svg>