<?xml version="1.0" encoding="UTF-8"?>
<svg width="170px" height="37px" viewBox="0 0 170 37" version="1.1" xmlns="http://www.w3.org/2000/svg" xmlns:xlink="http://www.w3.org/1999/xlink">
    <title>navbar-logo.a9775f2d</title>
    <g id="pc" stroke="none" stroke-width="1" fill="none" fill-rule="evenodd">
        <g id="home" transform="translate(-516.000000, -3901.000000)" fill-rule="nonzero">
            <g id="navbar-logo.a9775f2d" transform="translate(516.000000, 3901.000000)">
                <path d="M66.5076353,11.8108198 C67.5505416,12.4366779 68.4330685,13.2971101 68.9946165,14.4704168 C69.6364642,15.6438326 69.9573331,17.0518225 69.9573331,18.6163042 C69.9573331,20.1807859 69.6364642,21.5105844 68.9144268,22.6840002 C68.272579,23.8573069 67.3098624,24.7178482 66.1064667,25.2654059 C64.9030709,25.8911549 63.458996,26.2040295 61.9347314,26.2040295 C61.0522045,26.2040295 60.2499774,26.0476467 59.4477502,25.7347722 C58.645413,25.500089 57.9233756,25.0307227 57.3618275,24.483165 L57.3618275,32.618448 L52.708734,32.618448 L52.708734,11.1850707 L56.7199798,11.1850707 L57.1211484,12.9059352 C58.8860922,11.4979453 60.8115254,10.7938958 62.8172583,10.7938958 C64.1810335,10.7938958 65.4647289,11.1067703 66.5076353,11.8108198 Z M63.9403543,21.5105844 C64.7426915,20.806644 65.1437501,19.8679114 65.1437501,18.6946046 C65.1437501,17.5211888 64.7426915,16.5824562 64.020654,15.8002154 C63.2986166,15.0179745 62.3359,14.7051 61.2928837,14.7051 C60.4104668,14.7051 59.6081296,14.8615918 58.9663919,15.2526577 C58.3245441,15.5656413 57.8431858,16.1131989 57.4420173,16.8171394 L57.4420173,20.3372777 C57.6826964,21.0413272 58.1640547,21.5888848 58.7257127,21.9799507 C59.3674505,22.3711257 60.0894879,22.6058088 60.9720148,22.6058088 C62.1754106,22.6058088 63.1381272,22.2146339 63.9403543,21.5105844 Z" id="形状" fill="#FFFFFF"></path>
                <path d="M72.6849935,14.5469724 C73.4070309,13.451857 74.3697475,12.5131244 75.653443,11.8873754 C76.9370285,11.2616263 78.3811034,10.8704514 79.9855577,10.8704514 C81.590122,10.8704514 83.0341969,11.1833259 84.3177824,11.8873754 C85.5211782,12.5131244 86.4838948,13.451857 87.2059322,14.6252728 C87.9279697,15.7985796 88.2489485,17.0501867 88.2489485,18.536477 C88.2489485,20.0226583 87.9279697,21.2742655 87.2059322,22.4475722 C86.4838948,23.620988 85.6014779,24.5597206 84.3177824,25.1854697 C83.1143867,25.8112187 81.590122,26.2023937 79.9855577,26.2023937 C78.3811034,26.2023937 76.9370285,25.8895191 75.653443,25.263661 C74.3697475,24.637912 73.4070309,23.7774798 72.6849935,22.604064 C72.0432557,21.4307572 71.6420871,20.1008497 71.6420871,18.536477 C71.6420871,17.0501867 72.0432557,15.7203882 72.6849935,14.5469724 Z M77.4183868,21.3524568 C78.0601245,22.1346977 78.9426514,22.4475722 79.9855577,22.4475722 C81.028574,22.4475722 81.9109909,22.0565063 82.5528386,21.3524568 C83.1946864,20.6485164 83.5155552,19.6315924 83.5155552,18.536477 C83.5155552,17.3630612 83.1946864,16.4243286 82.5528386,15.7203882 C81.8308012,14.9381474 81.028574,14.5469724 79.905368,14.5469724 C78.8624617,14.5469724 78.0601245,14.9381474 77.338087,15.6420878 C76.6963493,16.4243286 76.3754804,17.3630612 76.3754804,18.536477 C76.3754804,19.6315924 76.6963493,20.570216 77.4183868,21.3524568 Z" id="形状" fill="#FFFFFF"></path>
                <polygon id="路径" fill="#FFFFFF" points="95.7900819 0.0764110696 95.7900819 25.8120911 91.1369883 25.8120911 91.1369883 0.0764110696"></polygon>
                <polygon id="路径" fill="#FFFFFF" points="114.883595 11.5750461 105.417028 32.6955488 100.924644 32.6955488 104.454531 25.1078236 97.7156251 11.5750461 103.010236 11.5750461 106.861323 20.0233126 110.712409 11.5750461"></polygon>
                <path d="M132.694732,11.5745008 L132.694732,25.8112187 C132.694732,27.1410172 132.293233,28.3926244 131.491336,29.4877398 C130.688339,30.5829642 129.645542,31.4433964 128.281547,32.0691455 C126.917552,32.6950036 125.474357,33.0078781 123.869463,33.0078781 C122.666067,33.0078781 121.623271,32.8513863 120.741074,32.6167031 C119.857777,32.3038286 119.13618,31.9909541 118.574082,31.6780796 C117.932784,31.2869046 117.290386,30.8176473 116.568789,30.1917892 L119.296779,27.0628259 C119.938077,27.688684 120.660774,28.1579412 121.302072,28.4709248 C121.94447,28.7837993 122.826666,29.0184825 123.789163,29.0184825 C124.992559,29.0184825 125.955055,28.7054989 126.758053,28.1579412 C127.55995,27.6103836 127.961448,26.7499513 127.961448,25.7330273 L127.961448,23.6991794 C127.47965,24.4032288 126.837252,25.0289779 125.874756,25.4983442 C124.912259,25.9677105 123.789163,26.2023937 122.505468,26.2023937 C121.221772,26.2023937 119.938077,25.8895191 118.814981,25.1854697 C117.691885,24.5597206 116.809688,23.620988 116.08699,22.4475722 C115.445693,21.2742655 115.044194,20.0226583 115.044194,18.6146684 C115.044194,17.2065695 115.365393,15.8767709 116.08699,14.7034642 C116.809688,13.5300484 117.691885,12.5914248 118.89528,11.8873754 C120.018376,11.1833259 121.221772,10.8704514 122.505468,10.8704514 C123.708863,10.8704514 124.75166,11.0269431 125.714156,11.3398177 C126.677753,11.6526922 127.39935,12.1220585 127.881149,12.6696162 L128.361847,11.5745008 L132.694732,11.5745008 Z M127.961448,20.3355328 L127.961448,16.8155036 C127.64025,16.1114541 127.158451,15.5638964 126.436854,15.1728305 C125.714156,14.7816556 124.912259,14.5469724 123.949763,14.5469724 C122.826666,14.5469724 121.86417,14.9381474 121.061173,15.6420878 C120.259276,16.3461372 119.857777,17.2848699 119.857777,18.4581766 C119.857777,19.553292 120.259276,20.570216 121.061173,21.3524568 C121.86417,22.1346977 122.826666,22.5258726 123.949763,22.5258726 C125.794456,22.4476812 127.158451,21.7436318 127.961448,20.3355328 Z" id="形状" fill="#FFFFFF"></path>
                <path d="M136.544718,14.5487173 C137.267416,13.3753015 138.229912,12.5148693 139.513608,11.8108198 C140.797303,11.1850707 142.241598,10.7938958 143.845392,10.7938958 C145.450287,10.7938958 146.894582,11.1067703 148.178277,11.8108198 C149.381673,12.4366779 150.344169,13.3753015 151.065767,14.5487173 C151.708165,15.722024 152.108563,16.9736312 152.108563,18.4599215 C152.108563,19.9461027 151.788464,21.1977099 151.065767,22.3711257 C150.424469,23.5444324 149.461972,24.483165 148.178277,25.1089141 C146.974881,25.7347722 145.450287,26.1258381 143.845392,26.1258381 C142.241598,26.1258381 140.797303,25.8129636 139.513608,25.1871055 C138.229912,24.5613564 137.267416,23.7009242 136.544718,22.5275084 C135.823121,21.3542017 135.501922,20.0244032 135.501922,18.381621 C135.501922,17.0518225 135.823121,15.722024 136.544718,14.5487173 Z M141.198802,21.3542017 C141.840099,22.1364425 142.722296,22.449317 143.765093,22.449317 C144.808989,22.449317 145.691186,22.0581421 146.332484,21.3542017 C146.974881,20.6501522 147.29498,19.6332282 147.29498,18.5381128 C147.29498,17.364697 146.974881,16.4260735 146.332484,15.722024 C145.691186,15.0179745 144.808989,14.6269086 143.765093,14.6269086 C142.722296,14.6269086 141.920399,15.0179745 141.198802,15.722024 C140.476104,16.4260735 140.154905,17.4429975 140.154905,18.5381128 C140.235205,19.6332282 140.556404,20.5719608 141.198802,21.3542017 Z" id="形状" fill="#FFFFFF"></path>
                <path d="M168.555705,12.0438671 C169.518202,12.826108 169.9197,13.843032 170,15.0945301 L170,25.8112187 L165.265617,25.8112187 L165.265617,16.8155036 C165.186417,15.4075137 164.46372,14.7034642 163.099724,14.7034642 C162.056928,14.7034642 161.174731,15.1728305 160.532333,16.1897545 C159.891036,17.2065695 159.569837,18.4581766 159.569837,19.9444669 L159.569837,25.8112187 L154.916853,25.8112187 L154.916853,11.5745008 L159.169438,11.5745008 L159.489537,13.843032 C160.051635,12.9042994 160.773233,12.2002499 161.735729,11.6526922 C162.699326,11.1051345 163.822422,10.8704514 165.106117,10.8704514 C166.469012,10.8704514 167.672408,11.2616263 168.555705,12.0438671 Z" id="路径" fill="#FFFFFF"></path>
                <path d="M32.8125542,11.3033938 C32.010217,10.8340275 30.9673107,10.8340275 30.0848938,11.3033938 L23.8272359,14.9017235 L19.5752009,17.248446 L13.317543,20.8466666 C12.5153158,21.316033 11.4722995,21.316033 10.5898826,20.8466666 L5.61581018,18.0306868 C4.81358301,17.5613205 4.25203499,16.7007793 4.25203499,15.7621557 L4.25203499,10.2082784 C4.25203499,9.2695458 4.73339329,8.40911359 5.61581018,7.93974727 L10.5095829,5.2018498 C11.3119201,4.73259254 12.3548264,4.73259254 13.2373533,5.2018498 L18.131126,7.93974727 C18.9333532,8.40911359 19.4950112,9.2695458 19.4950112,10.2082784 L19.4950112,13.8064991 L23.7469362,11.3815852 L23.7469362,7.78325548 C23.7469362,6.8446319 23.2655779,5.98409064 22.383161,5.51483338 L13.317543,0.3520002 C12.5153158,-0.1173334 11.4722995,-0.1173334 10.5898826,0.3520002 L1.36384119,5.51483338 C0.481358301,5.98409064 0,6.8446319 0,7.78325548 L0,18.1870696 C0,19.1258022 0.481358301,19.9862344 1.36384119,20.4556007 L10.5898826,25.6184121 C11.3921098,26.0876694 12.4350161,26.0876694 13.317543,25.6184121 L19.5752009,22.0982738 L23.8272359,19.6733599 L30.0848938,16.1532216 C30.887121,15.6839643 31.9300273,15.6839643 32.8125542,16.1532216 L37.7063269,18.8911191 C38.5085541,19.3604854 39.0702121,20.2209176 39.0702121,21.1596502 L39.0702121,26.7135275 C39.0702121,27.6521511 38.5888538,28.5126923 37.7063269,28.9820586 L32.8125542,31.7980384 C32.010217,32.2674047 30.9673107,32.2674047 30.0848938,31.7980384 L25.1910111,29.06025 C24.3887839,28.5908837 23.8272359,27.7304515 23.8272359,26.7917188 L23.8272359,23.1933892 L19.5752009,25.6184121 L19.5752009,29.2166327 C19.5752009,30.1553654 20.0565592,31.0157976 20.9390861,31.4851639 L30.1650835,36.6479753 C30.9673107,37.1173416 32.010217,37.1173416 32.8927439,36.6479753 L42.1187413,31.4851639 C42.9210785,31.0157976 43.4826265,30.1553654 43.4826265,29.2166327 L43.4826265,18.8129277 C43.4826265,17.8741951 43.0012682,17.0137628 42.1187413,16.5443965 L32.8125542,11.3033938 Z" id="路径" fill="#8247E5"></path>
            </g>
        </g>
    </g>
</svg>