<?xml version="1.0" encoding="UTF-8"?>
<svg width="101px" height="42px" viewBox="0 0 101 42" version="1.1" xmlns="http://www.w3.org/2000/svg" xmlns:xlink="http://www.w3.org/1999/xlink">
    <title>5f6294c0c7a8cda55cb1c936_Flow_Wordmark</title>
    <g id="pc" stroke="none" stroke-width="1" fill="none" fill-rule="evenodd">
        <g id="home" transform="translate(-375.000000, -3901.000000)" fill-rule="nonzero">
            <g id="5f6294c0c7a8cda55cb1c936_Flow_Wordmark" transform="translate(375.000000, 3901.000000)">
                <path d="M57.806864,20.665668 L55.0412092,20.665668 L55.0412092,30.84375 L51.1821559,30.84375 L51.1821559,20.665668 L49.1883117,20.665668 L49.1883117,17.4027569 L51.1821559,17.4027569 L51.1821559,16.1331417 C51.1821559,12.8448382 53.2617568,11.15625 56.4218927,11.15625 C56.9112161,11.1602999 57.3986292,11.2170636 57.8754694,11.325532 L57.8754694,15.1343777 C57.4594851,14.9696906 57.0158696,14.8835574 56.5676791,14.8804546 C56.1578972,14.8483477 55.754395,14.9947967 55.4633118,15.2812789 C55.1722287,15.5677611 55.0227051,15.9655965 55.0540727,16.3701365 L55.0540727,17.3815966 L57.8197275,17.3815966 L57.806864,20.665668 Z M63.6168831,30.84375 L59.7149515,30.84375 L59.7149515,11.4440294 L63.6168831,11.4440294 L63.6168831,30.84375 Z" id="形状" fill="#FFFFFF"></path>
                <path d="M72.1304791,17.0630507 C75.0505121,17.0579707 77.6856087,18.8148066 78.8054033,21.5132657 C79.925198,24.2117248 79.3088047,27.3195201 77.2440265,29.385576 C75.1792483,31.4516319 72.0733749,32.0684067 69.3765846,30.9479191 C66.6797943,29.8274314 64.9240449,27.1907042 64.9291218,24.2688643 C64.9052897,22.3505526 65.6563466,20.5038376 67.0120637,19.1472815 C68.3677808,17.7907255 70.2133537,17.0392038 72.1304791,17.0630507 L72.1304791,17.0630507 Z M72.1304791,27.8026858 C74.0762265,27.8026858 75.4780014,26.1865068 75.4780014,24.2688643 C75.5203349,23.3539719 75.186429,22.4616367 74.554,21.7995484 C73.921571,21.1374601 73.0457847,20.7633717 72.1304791,20.7643499 C70.2352949,20.8297726 68.7327259,22.3860337 68.7327259,24.2835188 C68.7327259,26.1810039 70.2352949,27.737265 72.1304791,27.8026858 Z" id="形状" fill="#FFFFFF"></path>
                <polygon id="路径" fill="#FFFFFF" points="83.3294324 17.0625 85.7989217 26.2250113 88.2684109 18.9449796 87.5929951 17.0666648 91.3922093 17.0666648 94.6468695 26.2291761 97.0572599 17.0666648 101 17.0666648 96.8504138 30.84375 92.8654602 30.84375 90.0878124 23.2888429 87.4916827 30.8395852 83.481401 30.8395852 79.3571429 17.0625"></polygon>
                <ellipse id="椭圆形" fill="#00EF8B" cx="20.987013" cy="21" rx="20.987013" ry="21"></ellipse>
                <rect id="矩形" fill="#FFFFFF" x="24.2662338" y="17.71875" width="5.9025974" height="5.90625"></rect>
                <path d="M18.3067019,25.921875 C18.3067019,27.1589406 17.3044823,28.1617803 16.0681818,28.1617803 C14.8318813,28.1617803 13.8296617,27.1589406 13.8296617,25.921875 C13.8296617,24.6848094 14.8318813,23.6819697 16.0681818,23.6819697 L18.3067019,23.6819697 L18.3067019,17.71875 L16.0681818,17.71875 C11.5405227,17.71875 7.87012987,21.3914142 7.87012987,25.921875 C7.87012987,30.4523358 11.5405227,34.125 16.0681818,34.125 C20.5958409,34.125 24.2662338,30.4523358 24.2662338,25.921875 L24.2662338,23.6819697 L18.3067019,23.6819697 L18.3067019,25.921875 Z" id="路径" fill="#FFFFFF"></path>
                <path d="M26.6602787,14.65625 L33.4480519,14.65625 L33.4480519,8.53125 L26.6602787,8.53125 C22.0801229,8.53603199 18.3683485,12.302863 18.3636364,16.9509561 L18.3636364,17.71875 L24.3948379,17.71875 L24.3948379,16.9509561 C24.3971955,15.6829236 25.4107777,14.6562477 26.6602787,14.65625 Z" id="路径" fill="#FFFFFF"></path>
                <polygon id="路径" fill="#16FF99" points="18.3636364 23.625 24.2662338 23.625 24.2662338 23.625 24.2662338 17.71875 24.2662338 17.71875 18.3636364 17.71875"></polygon>
            </g>
        </g>
    </g>
</svg>