<?xml version="1.0" encoding="UTF-8"?>
<svg width="41px" height="41px" viewBox="0 0 41 41" version="1.1" xmlns="http://www.w3.org/2000/svg" xmlns:xlink="http://www.w3.org/1999/xlink">
    <title>medium-circle-fill</title>
    <g id="home" stroke="none" stroke-width="1" fill="none" fill-rule="evenodd">
        <g transform="translate(-1601.000000, -7796.000000)" fill-rule="nonzero" id="编组-19">
            <g transform="translate(3.000000, 7763.102051)">
                <g id="medium-circle-fill" transform="translate(1598.660000, 33.250000)">
                    <rect id="矩形" fill="#000000" opacity="0" x="0" y="0" width="40" height="40"></rect>
                    <path d="M25.5626562,27.1752929 L28.43375,13.6401366 C28.5509375,13.06722 28.4825781,12.6570637 28.2286719,12.4096679 C27.9747656,12.1622721 27.6394792,12.1166991 27.2228125,12.2729491 L10.3478125,18.7768554 C9.97020831,18.9200845 9.71304686,19.082845 9.57632813,19.2651366 C9.43960941,19.4474283 9.42333336,19.6199543 9.52749999,19.7827148 C9.63166662,19.9454752 9.83999996,20.0724283 10.1525,20.1635741 L14.4689063,21.5112304 L24.4884375,15.2026366 C24.761875,15.020345 24.9702083,14.9812825 25.1134375,15.0854491 C25.2045833,15.1505533 25.1785417,15.2482096 25.0353125,15.3784179 L16.9298438,22.7026366 L16.6173438,27.1557616 C16.9168229,27.1557616 17.2097917,27.0125325 17.49625,26.7260741 L19.605625,24.6948241 L23.980625,27.9174804 C24.8139583,28.3862304 25.3413021,28.1388346 25.5626562,27.1752929 L25.5626562,27.1752929 Z M37.34,19.1479491 C37.34,21.5177408 36.8777604,23.7833658 35.9532812,25.9448241 C35.0288021,28.1062825 33.7853125,29.9682616 32.2228125,31.5307616 C30.6603125,33.0932616 28.7983333,34.3367512 26.636875,35.2612304 C24.4754167,36.1857095 22.2097917,36.6479491 19.84,36.6479491 C17.4702083,36.6479491 15.2045833,36.1857095 13.043125,35.2612304 C10.8816667,34.3367512 9.0196875,33.0932616 7.45718751,31.5307616 C5.89468752,29.9682616 4.65119794,28.1062825 3.72671876,25.9448241 C2.80223959,23.7833658 2.34,21.5177408 2.34,19.1479491 C2.34,16.7781575 2.80223959,14.5125325 3.72671876,12.3510741 C4.65119794,10.1896158 5.89468752,8.32763663 7.45718751,6.76513664 C9.0196875,5.20263665 10.8816667,3.95914707 13.043125,3.0346679 C15.2045833,2.11018872 17.4702083,1.64794913 19.84,1.64794913 C22.2097917,1.64794913 24.4754167,2.11018872 26.636875,3.0346679 C28.7983333,3.95914707 30.6603125,5.20263665 32.2228125,6.76513664 C33.7853125,8.32763663 35.0288021,10.1896158 35.9532812,12.3510741 C36.8777604,14.5125325 37.34,16.7781575 37.34,19.1479491 Z" id="形状" fill="#FFFFFF"></path>
                </g>
            </g>
        </g>
    </g>
</svg>