<?xml version="1.0" encoding="UTF-8"?>
<svg width="50px" height="50px" viewBox="0 0 50 50" version="1.1" xmlns="http://www.w3.org/2000/svg" xmlns:xlink="http://www.w3.org/1999/xlink">
    <title>头像</title>
    <defs>
        <linearGradient x1="50%" y1="0.720929766%" x2="50%" y2="100%" id="linearGradient-1">
            <stop stop-color="#FFFFFF" offset="0%"></stop>
            <stop stop-color="#A681FF" offset="52.2251774%"></stop>
            <stop stop-color="#4118EC" offset="100%"></stop>
        </linearGradient>
    </defs>
    <g id="页面-1" stroke="none" stroke-width="1" fill="none" fill-rule="evenodd">
        <g id="home-phone-menu" transform="translate(-192.000000, -44.000000)">
            <g id="头像" transform="translate(192.249952, 44.000000)">
                <rect id="矩形" fill="#000000" fill-rule="nonzero" opacity="0" x="0" y="0" width="40.0391246" height="40.0391246"></rect>
                <circle id="椭圆形" fill="#452CB6" cx="24.9325925" cy="25.1150403" r="24.3849597"></circle>
                <path d="M24.9322548,3.00295202 C12.0928595,3.00295202 1.68402028,13.4116948 1.68402028,26.251476 C1.68402028,39.0912573 12.0928595,49.5 24.9323513,49.5 C37.772808,49.5 48.1811648,39.0912572 48.1811648,26.251476 C48.1811648,13.4116948 37.7727115,3.00295202 24.9322548,3.00295202 Z M24.9325443,13.1805073 C27.8718864,13.1805073 30.2547769,15.5633013 30.2547769,18.5027399 C30.2547769,21.4421786 27.8719828,23.8249725 24.9325443,23.8249725 C21.9931057,23.8249725 19.6103117,21.4421785 19.6103117,18.5027399 C19.6103117,15.5633014 21.9932022,13.1805073 24.9325443,13.1805073 Z M24.9324478,44.1003833 C16.6642153,44.1003833 9.96141915,39.9005098 9.96141915,34.7194405 C9.96141915,29.5386607 16.6642153,25.3386908 24.9324478,25.3386908 C33.2007767,25.3386908 39.9035729,29.5386607 39.9035729,34.7194405 C39.9035729,39.9005098 33.2007767,44.1003833 24.9324478,44.1003833 Z" id="形状" fill="url(#linearGradient-1)" fill-rule="nonzero"></path>
            </g>
        </g>
    </g>
</svg>