<?xml version="1.0" encoding="UTF-8"?>
<svg width="50px" height="50px" viewBox="0 0 50 50" version="1.1" xmlns="http://www.w3.org/2000/svg" xmlns:xlink="http://www.w3.org/1999/xlink">
    <title>头像</title>
    <defs>
        <linearGradient x1="50%" y1="0.720929766%" x2="50%" y2="100%" id="linearGradient-1">
            <stop stop-color="#FFFFFF" offset="0%"></stop>
            <stop stop-color="#A681FF" offset="52.2251774%"></stop>
            <stop stop-color="#4118EC" offset="100%"></stop>
        </linearGradient>
    </defs>
    <g id="home" stroke="none" stroke-width="1" fill="none" fill-rule="evenodd">
        <g id="menu" transform="translate(-1814.000000, -21.000000)" fill-rule="nonzero">
            <g id="top" transform="translate(-0.265721, -2.000000)">
                <g id="头像" transform="translate(1814.565717, 23.325014)">
                    <rect id="矩形" fill="#000000" opacity="0" x="0" y="0" width="40.0391246" height="40.0391246"></rect>
                    <path d="M26.2511865,3.00295202 C13.4117912,3.00295202 3.00295202,13.4116948 3.00295202,26.251476 C3.00295202,39.0912573 13.4117912,49.5 26.2512831,49.5 C39.0917397,49.5 49.5000965,39.0912572 49.5000965,26.251476 C49.5000965,13.4116948 39.0916432,3.00295202 26.2511865,3.00295202 Z M26.251476,13.1805073 C29.1908181,13.1805073 31.5737086,15.5633013 31.5737086,18.5027399 C31.5737086,21.4421786 29.1909146,23.8249725 26.251476,23.8249725 C23.3120374,23.8249725 20.9292434,21.4421785 20.9292434,18.5027399 C20.9292434,15.5633014 23.3121339,13.1805073 26.251476,13.1805073 Z M26.2513795,44.1003833 C17.9831471,44.1003833 11.2803509,39.9005098 11.2803509,34.7194405 C11.2803509,29.5386607 17.983147,25.3386908 26.2513795,25.3386908 C34.5197085,25.3386908 41.2225046,29.5386607 41.2225046,34.7194405 C41.2225046,39.9005098 34.5197085,44.1003833 26.2513795,44.1003833 Z" id="形状" fill="url(#linearGradient-1)"></path>
                </g>
            </g>
        </g>
    </g>
</svg>