<?xml version="1.0" encoding="UTF-8"?>
<svg width="41px" height="41px" viewBox="0 0 41 41" version="1.1" xmlns="http://www.w3.org/2000/svg" xmlns:xlink="http://www.w3.org/1999/xlink">
    <title>编组 18</title>
    <defs>
        <filter color-interpolation-filters="auto" id="filter-1">
            <feColorMatrix in="SourceGraphic" type="matrix" values="0 0 0 0 1.000000 0 0 0 0 1.000000 0 0 0 0 1.000000 0 0 0 1.000000 0"></feColorMatrix>
        </filter>
    </defs>
    <g id="home" stroke="none" stroke-width="1" fill="none" fill-rule="evenodd">
        <g transform="translate(-901.000000, -5551.000000)" id="时间轴">
            <g transform="translate(369.615596, 5551.000000)">
                <g id="编组-18" transform="translate(531.993166, 0.000000)">
                    <circle id="椭圆形" fill="#7700E6" cx="20.1833135" cy="20.1833135" r="20.1833135"></circle>
                    <g filter="url(#filter-1)" id="timeline">
                        <g transform="translate(10.683314, 10.683314)">
                            <rect id="矩形" fill="#000000" fill-rule="nonzero" opacity="0" x="0" y="0" width="19" height="19"></rect>
                            <path d="M2.56054688,10.6466797 L2.56054688,8.35332031 C3.45488281,8.12880859 4.11914063,7.31796875 4.11914063,6.35498047 C4.11914063,5.39199219 3.45488281,4.58115234 2.56054688,4.35664062 L2.56054688,1.26357422 C2.56054688,0.987109375 2.33603516,0.762597656 2.05957031,0.762597656 C1.78310547,0.762597656 1.55859375,0.987109375 1.55859375,1.26357422 L1.55859375,4.35664062 C0.664257813,4.58115234 0,5.39199219 0,6.35498047 C0,7.31796875 0.664257813,8.12880859 1.55859375,8.35332031 L1.55859375,10.6485352 C0.664257813,10.8711914 0,11.6820312 0,12.6450195 C0,13.6080078 0.664257813,14.4188477 1.55859375,14.6433594 L1.55859375,17.7364258 C1.55859375,18.0128906 1.78310547,18.2374023 2.05957031,18.2374023 C2.33603516,18.2374023 2.56054688,18.0128906 2.56054688,17.7364258 L2.56054688,14.6433594 C3.45488281,14.4188477 4.11914063,13.6080078 4.11914063,12.6450195 C4.11914063,11.6820312 3.45488281,10.8711914 2.56054688,10.6466797 Z M1.11328125,6.35498047 C1.11328125,5.83359375 1.53818359,5.40869141 2.05957031,5.40869141 C2.58095703,5.40869141 3.00585938,5.83359375 3.00585938,6.35498047 C3.00585938,6.87636719 2.58095703,7.30126953 2.05957031,7.30126953 C1.53818359,7.30126953 1.11328125,6.87636719 1.11328125,6.35498047 Z M2.05957031,13.5913086 C1.53818359,13.5913086 1.11328125,13.1664063 1.11328125,12.6450195 C1.11328125,12.1236328 1.53818359,11.6987305 2.05957031,11.6987305 C2.58095703,11.6987305 3.00585938,12.1236328 3.00585938,12.6450195 C3.00585938,13.1664063 2.58095703,13.5913086 2.05957031,13.5913086 Z M17.4785156,5.25097656 L6.53125,5.25097656 C6.22324219,5.25097656 5.97460938,5.00234375 5.97460938,4.69433594 C5.97460938,4.38632812 6.22324219,4.13769531 6.53125,4.13769531 L17.4785156,4.13769531 C17.7865234,4.13769531 18.0351562,4.38632812 18.0351562,4.69433594 C18.0351562,5.00234375 17.7865234,5.25097656 17.4785156,5.25097656 Z M14.3130859,8.47949219 L6.44960938,8.47949219 C6.18613281,8.47949219 5.97460938,8.26611328 5.97460938,8.00449219 L5.97460938,7.84306641 C5.97460938,7.57958984 6.18798828,7.36806641 6.44960938,7.36806641 L14.3112305,7.36806641 C14.574707,7.36806641 14.7862425,7.58144531 14.7862425,7.84306641 L14.7862425,8.00449219 C14.7880859,8.26611328 14.574707,8.47949219 14.3130859,8.47949219 Z" id="形状" fill="#000000" fill-rule="nonzero"></path>
                            <path d="M17.4785156,11.5966797 L6.53125,11.5966797 C6.22324219,11.5966797 5.97460938,11.3480469 5.97460938,11.0400391 C5.97460938,10.7320313 6.22324219,10.4833984 6.53125,10.4833984 L17.4785156,10.4833984 C17.7865234,10.4833984 18.0351562,10.7320313 18.0351562,11.0400391 C18.0351562,11.3480469 17.7865234,11.5966797 17.4785156,11.5966797 Z M14.3130859,14.8251953 L6.44960938,14.8251953 C6.18613281,14.8251953 5.97460938,14.6118164 5.97460938,14.3501953 L5.97460938,14.1887695 C5.97460938,13.925293 6.18798828,13.7137695 6.44960938,13.7137695 L14.3112305,13.7137695 C14.574707,13.7137695 14.7862425,13.9271484 14.7862425,14.1887695 L14.7862425,14.3501953 C14.7880859,14.6118164 14.574707,14.8251953 14.3130859,14.8251953 Z" id="形状" fill="#000000" fill-rule="nonzero"></path>
                        </g>
                    </g>
                </g>
            </g>
        </g>
    </g>
</svg>