<?xml version="1.0" encoding="UTF-8"?>
<svg width="34px" height="34px" viewBox="0 0 34 34" version="1.1" xmlns="http://www.w3.org/2000/svg" xmlns:xlink="http://www.w3.org/1999/xlink">
    <title>矩形</title>
    <g id="home" stroke="none" stroke-width="1" fill="none" fill-rule="evenodd">
        <g id="制作画板备份" transform="translate(-979.000000, -1081.000000)" fill-rule="nonzero">
            <g id="大banner" transform="translate(-1.000000, -3.000000)">
                <g id="arrow" transform="translate(627.000000, 1037.472789)">
                    <g id="Arrow-down-2" transform="translate(353.000000, 46.527211)">
                        <rect id="矩形" opacity="0" x="0" y="0" width="34" height="34"></rect>
                        <path d="M11.7011,24.48 C11.9657333,24.2148 12.2966667,24.0833333 12.6927667,24.0833333 C13.0894334,24.0833333 13.43,24.2148 13.7133333,24.48 C13.9774,24.7633333 14.1094333,25.1033333 14.1094333,25.5 C14.1094333,25.8966667 13.9774,26.2270333 13.7133333,26.4916667 C13.43,26.775 13.0894333,26.9166667 12.6927667,26.9166667 C12.2966667,26.9166667 11.9657334,26.775 11.7011,26.4916667 C11.4177667,26.2270334 11.2761,25.8966667 11.2761,25.5 C11.2761,25.1033333 11.4177667,24.7633333 11.7011,24.48 L11.7011,24.48 Z M11.7011,22.2416667 C11.4177667,21.9770334 11.2761,21.6466667 11.2761,21.25 C11.2761,20.8533333 11.4177667,20.5133333 11.7011,20.23 C11.9657333,19.9648 12.2966667,19.8333333 12.6927667,19.8333333 C13.0894334,19.8333333 13.43,19.9648 13.7133333,20.23 C13.9774,20.5133333 14.1094333,20.8533333 14.1094333,21.25 C14.1094333,21.6466667 13.9774,21.9770333 13.7133333,22.2416667 C13.43,22.525 13.09,22.6666667 12.6927667,22.6666667 C12.2966667,22.6666667 11.9657334,22.525 11.7011,22.2416667 L11.7011,22.2416667 Z M7.4511,22.2416667 C7.16776668,21.9770334 7.0261,21.6466667 7.0261,21.25 C7.0261,20.8533333 7.16776668,20.5133333 7.4511,20.23 C7.71573332,19.9648 8.04666668,19.8333333 8.44276668,19.8333333 C8.83943336,19.8333333 9.18,19.9648 9.46333332,20.23 C9.7274,20.5133333 9.85943332,20.8533333 9.85943332,21.25 C9.85943332,21.6466667 9.7274,21.9770333 9.46333332,22.2416667 C9.18,22.525 8.84,22.6666667 8.44276668,22.6666667 C8.04666668,22.6666667 7.71573336,22.525 7.4511,22.2416667 L7.4511,22.2416667 Z M16.9716667,28.3333333 C17.3672,28.3333333 17.7083334,28.4648 17.9916667,28.73 C18.2563,29.0133333 18.3883333,29.3533333 18.3883333,29.75 C18.3883333,30.1466667 18.2563,30.4770333 17.9916667,30.7416667 C17.7083334,31.025 17.3672,31.1666667 16.9716667,31.1666667 C16.575,31.1666667 16.2440667,31.025 15.98,30.7416667 C15.6966667,30.4770334 15.555,30.1466667 15.555,29.75 C15.555,29.3533333 15.6966667,29.0133333 15.98,28.73 C16.2440667,28.4648 16.575,28.3333333 16.9716667,28.3333333 Z M15.555,25.5 C15.555,25.1033333 15.6966667,24.7633333 15.98,24.48 C16.2440667,24.2148 16.575,24.0833333 16.9716667,24.0833333 C17.3672,24.0833333 17.7083334,24.2148 17.9916667,24.48 C18.2563,24.7633333 18.3883333,25.1033333 18.3883333,25.5 C18.3883333,25.8966667 18.2563,26.2270333 17.9916667,26.4916667 C17.7083334,26.775 17.3672,26.9166667 16.9716667,26.9166667 C16.575,26.9166667 16.2440667,26.775 15.98,26.4916667 C15.6966667,26.2270334 15.555,25.8966667 15.555,25.5 Z M16.9716667,22.6666667 C16.575,22.6666667 16.2440667,22.525 15.98,22.2416667 C15.6966667,21.9770334 15.555,21.6466667 15.555,21.25 C15.555,20.8533333 15.6966667,20.5133333 15.98,20.23 C16.2440667,19.9648 16.575,19.8333333 16.9716667,19.8333333 C17.3672,19.8333333 17.7083334,19.9648 17.9916667,20.23 C18.2563,20.5133333 18.3883333,20.8533333 18.3883333,21.25 C18.3883333,21.6466667 18.2563,21.9770333 17.9916667,22.2416667 C17.7083334,22.525 17.3672,22.6666667 16.9716667,22.6666667 Z M21.2216667,22.6666667 C20.825,22.6666667 20.4940667,22.525 20.23,22.2416667 C19.9466667,21.9770334 19.805,21.6466667 19.805,21.25 C19.805,20.8533333 19.9466667,20.5133333 20.23,20.23 C20.4940667,19.9648 20.825,19.8333333 21.2216667,19.8333333 C21.6172,19.8333333 21.9583334,19.9648 22.2416667,20.23 C22.5063,20.5133333 22.6383333,20.8533333 22.6383333,21.25 C22.6383333,21.6466667 22.5063,21.9770333 22.2416667,22.2416667 C21.9583334,22.525 21.6172,22.6666667 21.2216667,22.6666667 Z M20.23,26.4916667 C19.9466667,26.2270334 19.805,25.8966667 19.805,25.5 C19.805,25.1033333 19.9466667,24.7633333 20.23,24.48 C20.4940667,24.2148 20.825,24.0833333 21.2216667,24.0833333 C21.6172,24.0833333 21.9583334,24.2148 22.2416667,24.48 C22.5063,24.7633333 22.6383333,25.1033333 22.6383333,25.5 C22.6383333,25.8966667 22.5063,26.2270333 22.2416667,26.4916667 C21.9583334,26.775 21.6172,26.9166667 21.2216667,26.9166667 C20.825,26.9166667 20.4940667,26.775 20.23,26.4916667 Z M24.4233333,22.2416667 C24.14,21.9770334 23.9983333,21.6466667 23.9983333,21.25 C23.9983333,20.8533333 24.14,20.5133333 24.4233333,20.23 C24.6879666,19.9648 25.0189,19.8333333 25.415,19.8333333 C25.8116667,19.8333333 26.1522333,19.9648 26.4355667,20.23 C26.7002,20.5133333 26.8316667,20.8533333 26.8316667,21.25 C26.8316667,21.6466667 26.7002,21.9770333 26.4355667,22.2416667 C26.1516667,22.525 25.8116667,22.6666667 25.415,22.6666667 C25.0183333,22.6666667 24.6874,22.525 24.4233333,22.2416667 Z M3.25833332,15.98 C3.52296664,15.7153667 3.85333332,15.5833333 4.25,15.5833333 C4.64666668,15.5833333 4.98666668,15.7153666 5.27,15.98 C5.53463332,16.2633333 5.66666668,16.6033333 5.66666668,17 C5.66666668,17.3966667 5.53463336,17.7270333 5.27,17.9916667 C4.98666668,18.275 4.64666668,18.4166667 4.25,18.4166667 C3.85333332,18.4166667 3.52296668,18.275 3.25833332,17.9916667 C2.975,17.7270333 2.83333332,17.3966667 2.83333332,17 C2.83333332,16.6033333 2.975,16.2633333 3.25833332,15.98 Z M11.2761,12.75 C11.2761,12.3533333 11.4177667,12.0133333 11.7011,11.73 C11.9657333,11.4653667 12.2966667,11.3333333 12.6927667,11.3333333 C13.0894334,11.3333333 13.43,11.4653666 13.7133333,11.73 C13.9774,12.0133333 14.1094333,12.3533333 14.1094333,12.75 C14.1094333,13.1466667 13.9774,13.4770333 13.7133333,13.7416667 C13.43,14.025 13.09,14.1666667 12.6927667,14.1666667 C12.2966667,14.1666667 11.9657334,14.025 11.7011,13.7416667 C11.4177667,13.4770334 11.2761,13.1466667 11.2761,12.75 L11.2761,12.75 Z M7.0261,17 C7.0261,16.6033333 7.16776668,16.2633333 7.4511,15.98 C7.71573332,15.7153667 8.04666668,15.5833333 8.44276668,15.5833333 C8.83943336,15.5833333 9.18,15.7153666 9.46333332,15.98 C9.7274,16.2633333 9.85943332,16.6033333 9.85943332,17 C9.85943332,17.3966667 9.7274,17.7270333 9.46333332,17.9916667 C9.18,18.275 8.83943332,18.4166667 8.44276668,18.4166667 C8.04666668,18.4166667 7.71573336,18.275 7.4511,17.9916667 C7.16776668,17.7270334 7.0261,17.3966667 7.0261,17 L7.0261,17 Z M11.2761,17 C11.2761,16.6033333 11.4177667,16.2633333 11.7011,15.98 C11.9657333,15.7153667 12.2966667,15.5833333 12.6927667,15.5833333 C13.0894334,15.5833333 13.43,15.7153666 13.7133333,15.98 C13.9774,16.2633333 14.1094333,16.6033333 14.1094333,17 C14.1094333,17.3966667 13.9774,17.7270333 13.7133333,17.9916667 C13.43,18.275 13.0894333,18.4166667 12.6927667,18.4166667 C12.2966667,18.4166667 11.9657334,18.275 11.7011,17.9916667 C11.4177667,17.7270334 11.2761,17.3966667 11.2761,17 L11.2761,17 Z M15.555,17 C15.555,16.6033333 15.6966667,16.2633333 15.98,15.98 C16.2440667,15.7153667 16.575,15.5833333 16.9716667,15.5833333 C17.3672,15.5833333 17.7083334,15.7153666 17.9916667,15.98 C18.2563,16.2633333 18.3883333,16.6033333 18.3883333,17 C18.3883333,17.3966667 18.2563,17.7270333 17.9916667,17.9916667 C17.7083334,18.275 17.3672,18.4166667 16.9716667,18.4166667 C16.575,18.4166667 16.2440667,18.275 15.98,17.9916667 C15.6966667,17.7270334 15.555,17.3966667 15.555,17 L15.555,17 Z M15.555,12.75 C15.555,12.3533333 15.6966667,12.0133333 15.98,11.73 C16.2440667,11.4653667 16.575,11.3333333 16.9716667,11.3333333 C17.3672,11.3333333 17.7083334,11.4653666 17.9916667,11.73 C18.2563,12.0133333 18.3883333,12.3533333 18.3883333,12.75 C18.3883333,13.1466667 18.2563,13.4770333 17.9916667,13.7416667 C17.7083334,14.025 17.3672,14.1666667 16.9716667,14.1666667 C16.575,14.1666667 16.2440667,14.025 15.98,13.7416667 C15.6966667,13.4770334 15.555,13.1466667 15.555,12.75 L15.555,12.75 Z M12.6927667,2.83333332 C13.09,2.83333332 13.43,2.96536664 13.7133333,3.23 C13.9774,3.51333332 14.1094333,3.85333332 14.1094333,4.25 C14.1094333,4.64666668 13.9774,4.97703332 13.7133333,5.24166668 C13.43,5.525 13.09,5.66666668 12.6927667,5.66666668 C12.2966667,5.66666668 11.9657334,5.525 11.7011,5.24166668 C11.4177667,4.97703336 11.2761,4.64666668 11.2761,4.25 C11.2761,3.85333332 11.4177667,3.51333332 11.7011,3.23 C11.9657333,2.96536668 12.2966667,2.83333332 12.6927667,2.83333332 L12.6927667,2.83333332 Z M11.2761,8.5 C11.2761,8.10333332 11.4177667,7.76333332 11.7011,7.48 C11.9657333,7.21536668 12.2966667,7.08333332 12.6927667,7.08333332 C13.0894334,7.08333332 13.43,7.21536664 13.7133333,7.48 C13.9774,7.76333332 14.1094333,8.10333332 14.1094333,8.5 C14.1094333,8.89666668 13.9774,9.22703332 13.7133333,9.49166668 C13.43,9.775 13.0894333,9.91666668 12.6927667,9.91666668 C12.2966667,9.91666668 11.9657334,9.775 11.7011,9.49166668 C11.4177667,9.22703336 11.2761,8.89666668 11.2761,8.5 L11.2761,8.5 Z M15.555,4.25 C15.555,3.85333332 15.6966667,3.51333332 15.98,3.23 C16.2440667,2.96536668 16.575,2.83333332 16.9716667,2.83333332 C17.3672,2.83333332 17.7083334,2.96536664 17.9916667,3.23 C18.2563,3.51333332 18.3883333,3.85333332 18.3883333,4.25 C18.3883333,4.64666668 18.2563,4.97703332 17.9916667,5.24166668 C17.7083334,5.525 17.3672,5.66666668 16.9716667,5.66666668 C16.575,5.66666668 16.2440667,5.525 15.98,5.24166668 C15.6966667,4.97703336 15.555,4.64666668 15.555,4.25 L15.555,4.25 Z M15.98,7.48 C16.2440667,7.21536668 16.575,7.08333332 16.9716667,7.08333332 C17.3672,7.08333332 17.7083334,7.21536664 17.9916667,7.48 C18.2563,7.76333332 18.3883333,8.10333332 18.3883333,8.5 C18.3883333,8.89666668 18.2563,9.22703332 17.9916667,9.49166668 C17.7083334,9.775 17.3672,9.91666668 16.9716667,9.91666668 C16.575,9.91666668 16.2440667,9.775 15.98,9.49166668 C15.6966667,9.22703336 15.555,8.89666668 15.555,8.5 C15.555,8.10333332 15.6966667,7.76333332 15.98,7.48 L15.98,7.48 Z M22.2416667,3.23 C22.5063,3.51333332 22.6383333,3.85333332 22.6383333,4.25 C22.6383333,4.64666668 22.5063,4.97703332 22.2416667,5.24166668 C21.9583334,5.525 21.6172,5.66666668 21.2216667,5.66666668 C20.825,5.66666668 20.4940667,5.525 20.23,5.24166668 C19.9466667,4.97703336 19.805,4.64666668 19.805,4.25 C19.805,3.85333332 19.9466667,3.51333332 20.23,3.23 C20.4940667,2.96536668 20.825,2.83333332 21.2216667,2.83333332 C21.6172,2.83333332 21.9583334,2.96536664 22.2416667,3.23 Z M22.6383333,8.5 C22.6383333,8.89666668 22.5063,9.22703332 22.2416667,9.49166668 C21.9583334,9.775 21.6172,9.91666668 21.2216667,9.91666668 C20.825,9.91666668 20.4940667,9.775 20.23,9.49166668 C19.9466667,9.22703336 19.805,8.89666668 19.805,8.5 C19.805,8.10333332 19.9466667,7.76333332 20.23,7.48 C20.4940667,7.21536668 20.825,7.08333332 21.2216667,7.08333332 C21.6172,7.08333332 21.9583334,7.21536664 22.2416667,7.48 C22.5063,7.76333332 22.6383333,8.10333332 22.6383333,8.5 Z M21.2216667,14.1666667 C20.825,14.1666667 20.4940667,14.025 20.23,13.7416667 C19.9466667,13.4770334 19.805,13.1466667 19.805,12.75 C19.805,12.3533333 19.9466667,12.0133333 20.23,11.73 C20.4940667,11.4653667 20.825,11.3333333 21.2216667,11.3333333 C21.6172,11.3333333 21.9583334,11.4653666 22.2416667,11.73 C22.5063,12.0133333 22.6383333,12.3533333 22.6383333,12.75 C22.6383333,13.1466667 22.5063,13.4770333 22.2416667,13.7416667 C21.9583334,14.025 21.6172,14.1666667 21.2216667,14.1666667 L21.2216667,14.1666667 Z M22.2416667,15.98 C22.5063,16.2633333 22.6383333,16.6033333 22.6383333,17 C22.6383333,17.3966667 22.5063,17.7270333 22.2416667,17.9916667 C21.9583334,18.275 21.6172,18.4166667 21.2216667,18.4166667 C20.825,18.4166667 20.4940667,18.275 20.23,17.9916667 C19.9466667,17.7270334 19.805,17.3966667 19.805,17 C19.805,16.6033333 19.9466667,16.2633333 20.23,15.98 C20.4940667,15.7153667 20.825,15.5833333 21.2216667,15.5833333 C21.6172,15.5833333 21.9583334,15.7153666 22.2416667,15.98 Z M25.415,15.5833333 C25.8116667,15.5833333 26.1522333,15.7153666 26.4355667,15.98 C26.7002,16.2633333 26.8316667,16.6033333 26.8316667,17 C26.8316667,17.3966667 26.7002,17.7270333 26.4355667,17.9916667 C26.1522334,18.275 25.8116667,18.4166667 25.415,18.4166667 C25.0189,18.4166667 24.6879667,18.275 24.4233333,17.9916667 C24.14,17.7270334 23.9983333,17.3966667 23.9983333,17 C23.9983333,16.6033333 24.14,16.2633333 24.4233333,15.98 C24.6874,15.7153667 25.0172,15.5833333 25.415,15.5833333 Z M28.6733333,17.9916667 C28.39,17.7270334 28.2483333,17.3966667 28.2483333,17 C28.2483333,16.6033333 28.39,16.2633333 28.6733333,15.98 C28.9379666,15.7153667 29.2689,15.5833333 29.665,15.5833333 C30.0616667,15.5833333 30.4022333,15.7153666 30.6855667,15.98 C30.9502,16.2633333 31.0816667,16.6033333 31.0816667,17 C31.0816667,17.3966667 30.9502,17.7270333 30.6855667,17.9916667 C30.4022334,18.275 30.0616667,18.4166667 29.665,18.4166667 C29.2683333,18.4166667 28.9374,18.275 28.6733333,17.9916667 Z" id="形状" fill="#FFFFFF"></path>
                    </g>
                </g>
            </g>
        </g>
    </g>
</svg>