<?xml version="1.0" encoding="UTF-8"?>
<svg width="50px" height="50px" viewBox="0 0 50 50" version="1.1" xmlns="http://www.w3.org/2000/svg" xmlns:xlink="http://www.w3.org/1999/xlink">
    <title>steam</title>
    <g id="pc" stroke="none" stroke-width="1" fill="none" fill-rule="evenodd">
        <g id="home更新" transform="translate(-718.000000, -7303.000000)" fill="#FFFFFF" fill-rule="nonzero">
            <g id="steam" transform="translate(718.192076, 7303.625902)">
                <rect id="矩形" opacity="0" x="0" y="0" width="49" height="49"></rect>
                <path d="M24.457125,0 C11.5925833,0 1.04329168,9.9225 0.0449166826,22.533875 L13.1769167,27.960625 C14.327131,27.175123 15.6877424,26.7552691 17.0805833,26.7560417 C17.2092083,26.7560417 17.3357916,26.7642084 17.4644167,26.7682917 L23.305625,18.3117083 L23.305625,18.19125 C23.3101277,13.0919382 27.4428132,8.95925272 32.542125,8.95475 C37.6340417,8.95475 41.778625,13.101375 41.778625,18.197375 C41.778625,23.293375 37.6340417,27.4359167 32.542125,27.4359167 L32.32775,27.4359167 L24.0059167,33.3792083 C24.0059167,33.485375 24.0140834,33.5935833 24.0140833,33.7038333 C24.0162504,35.5412532 23.2881365,37.3042185 21.9900328,38.6046197 C20.6919291,39.9050209 18.9302541,40.6362512 17.0928333,40.6373333 C13.7934501,40.6261782 10.9544175,38.3019386 10.2920417,35.0697083 L0.890166683,31.17625 C3.80158332,41.460125 13.24225,49 24.457125,49 C37.98725,49 48.9550833,38.030125 48.9550833,24.5 C48.9550833,10.969875 37.9852083,0 24.457125,0 Z M15.3941667,37.17875 L12.3867917,35.9333333 C12.9217084,37.0419583 13.8445417,37.9729583 15.0695417,38.4854167 C17.0124416,39.290463 19.2488608,38.848018 20.7388648,37.3638187 C22.2288687,35.8796193 22.6800397,33.6449441 21.8825833,31.6989167 C20.8118586,29.0985262 17.8678095,27.8205104 15.2369583,28.8140417 L18.3464167,30.1002917 C20.301079,30.9149692 21.2252192,33.1599627 20.4105417,35.114625 C19.5958641,37.0692873 17.3508706,37.9934275 15.3962083,37.17875 L15.3941667,37.17875 L15.3941667,37.17875 Z M38.6997917,18.185125 C38.6952928,14.7873324 35.9419592,12.0339989 32.5441667,12.0295 C29.1445089,12.0295 26.3885417,14.7854672 26.3885417,18.185125 C26.3885417,21.5847828 29.1445089,24.34075 32.5441667,24.34075 C35.9438245,24.34075 38.6997917,21.5847828 38.6997917,18.185125 L38.6997917,18.185125 Z M27.9340829,18.1749167 C27.9340829,16.5224219 28.8156787,14.9954537 30.2467812,14.1692063 C31.6778837,13.3429588 33.4410746,13.3429588 34.8721771,14.1692063 C36.3032796,14.9954537 37.184875,16.5224219 37.184875,18.1749167 C37.1826222,20.7287519 35.1122943,22.7981662 32.5584583,22.7992921 C31.3318318,22.7998336 30.155289,22.3127981 29.287933,21.445442 C28.4205769,20.578086 27.9335414,19.4015432 27.9340829,18.1749167 Z" id="形状"></path>
            </g>
        </g>
    </g>
</svg>