<?xml version="1.0" encoding="UTF-8"?>
<svg width="41px" height="41px" viewBox="0 0 41 41" version="1.1" xmlns="http://www.w3.org/2000/svg" xmlns:xlink="http://www.w3.org/1999/xlink">
    <title>推特_twitter43</title>
    <g id="home" stroke="none" stroke-width="1" fill="none" fill-rule="evenodd">
        <g transform="translate(-1743.000000, -7796.000000)" fill-rule="nonzero" id="编组-19">
            <g transform="translate(3.000000, 7763.102051)">
                <g id="编组-39" transform="translate(1598.660000, 33.250000)">
                    <g id="推特_twitter43" transform="translate(142.000000, 0.000000)">
                        <rect id="矩形" fill="#000000" opacity="0" x="0" y="0" width="40" height="40"></rect>
                        <path d="M37.3333333,20 C37.3333333,10.4272727 29.5727273,2.66666667 20,2.66666667 C10.4272727,2.66666667 2.66666667,10.4272727 2.66666667,20 C2.66666667,29.5727273 10.4272727,37.3333333 20,37.3333333 C29.5727273,37.3333333 37.3333333,29.5727273 37.3333333,20 Z M10.6667879,26.1596364 C10.9661818,26.1974546 11.2718788,26.2179394 11.5807273,26.2179394 C13.3755152,26.2210909 15.0269091,25.5734546 16.3363637,24.4861818 C14.6597576,24.4467879 13.2463031,23.2618182 12.759394,21.6356364 C12.9926061,21.6844849 13.233697,21.7128485 13.4795152,21.7144243 C13.8293334,21.716 14.1665455,21.6687273 14.488,21.5773333 C12.7357576,21.189697 11.4152728,19.5272727 11.4152728,17.5465454 C11.4152728,17.5292121 11.4152728,17.5118788 11.4152728,17.4945454 C11.9321213,17.8065454 12.5214546,17.9956364 13.1501818,18.024 C12.1243636,17.2818182 11.4483636,16.0212121 11.4483636,14.6030303 C11.4483636,13.8529697 11.6374546,13.1533333 11.9667879,12.5545454 C13.8561212,15.0521212 16.678303,16.7098182 19.8597576,16.9162424 C19.7935758,16.6184242 19.7604849,16.308 19.7604849,15.9912727 C19.7604849,13.7521212 21.4749091,11.9652121 23.5895758,11.9998788 C24.6910303,12.0187879 25.6869091,12.524606 26.3849697,13.3187879 C27.2579394,13.1517576 28.0773333,12.830303 28.8163636,12.3812121 C28.5311515,13.3156364 27.9229091,14.0940606 27.1318788,14.5809697 C27.9071515,14.494303 28.644606,14.2894546 29.3316364,13.9790303 C28.8179394,14.7779394 28.1687273,15.476 27.4202424,16.0338182 C27.4281212,16.2071515 27.4312727,16.3804849 27.4312727,16.5538182 C27.4312727,21.8704243 23.5785455,28.001697 16.5349091,27.9985482 C14.3745454,28.0001212 12.3607273,27.3225454 10.6667879,26.1596364 Z" id="形状" fill="#FFFFFF"></path>
                    </g>
                </g>
            </g>
        </g>
    </g>
</svg>