<?xml version="1.0" encoding="UTF-8"?>
<svg width="47px" height="40px" viewBox="0 0 47 40" version="1.1" xmlns="http://www.w3.org/2000/svg" xmlns:xlink="http://www.w3.org/1999/xlink">
    <title>路径</title>
    <g id="home" stroke="none" stroke-width="1" fill="none" fill-rule="evenodd">
        <g transform="translate(-1850.000000, -938.000000)" fill="#01FF9F" fill-rule="nonzero" id="跟随social">
            <g transform="translate(1825.000000, 541.000000)">
                <g id="twitter" transform="translate(19.500000, 388.022117)">
                    <path d="M52.5625,14.4037109 C50.8292969,15.1513672 48.9431641,15.6894531 47.0003906,15.8990234 C49.0054688,14.7039062 50.5291016,12.8177734 51.2484375,10.5748047 C49.3962891,11.6792969 47.3005859,12.4892578 45.1199219,12.9083984 C43.3527344,11.0222656 40.8435547,9.85546875 38.0625,9.85546875 C32.7099609,9.85546875 28.4052734,14.1941406 28.4052734,19.5183594 C28.4052734,20.2660156 28.4958984,21.0136719 28.6431641,21.7330078 C20.6285156,21.3138672 13.4804688,17.4849609 8.72832031,11.6226563 C7.89003906,13.0613281 7.41425781,14.7039063 7.41425781,16.4994141 C7.41425781,19.8525391 9.11914062,22.8091797 11.7189453,24.5480469 C10.1330078,24.4857422 8.63769531,24.0382813 7.35195312,23.3189453 L7.35195312,23.4378906 C7.35195312,28.1333984 10.6710937,32.0246094 15.0947266,32.9195313 C14.2847656,33.1291016 13.4181641,33.2480469 12.5515625,33.2480469 C11.9228516,33.2480469 11.328125,33.1857422 10.7277344,33.1007813 C11.9511719,36.9296875 15.5138672,39.7107422 19.75625,39.8013672 C16.4371094,42.4011719 12.2796875,43.9304688 7.76542969,43.9304688 C6.95546875,43.9304688 6.2078125,43.9021484 5.43183594,43.8115234 C9.71386719,46.5585938 14.7945312,48.1445312 20.2660156,48.1445312 C38.0285156,48.1445312 47.7480469,33.4292969 47.7480469,20.6568359 C47.7480469,20.2376953 47.7480469,19.8185547 47.7197266,19.3994141 C49.6001953,18.0230469 51.2484375,16.3181641 52.5625,14.4037109 Z" id="路径"></path>
                </g>
            </g>
        </g>
    </g>
</svg>