<?xml version="1.0" encoding="UTF-8"?>
<svg width="27px" height="19px" viewBox="0 0 27 19" version="1.1" xmlns="http://www.w3.org/2000/svg" xmlns:xlink="http://www.w3.org/1999/xlink">
    <title>wallet</title>
    <g id="home" stroke="none" stroke-width="1" fill="none" fill-rule="evenodd">
        <g id="menu" transform="translate(-1631.000000, -39.000000)" fill-rule="nonzero">
            <g id="wallet" transform="translate(1631.699996, 39.667499)">
                <rect id="矩形" fill="#000000" opacity="0" x="0" y="0" width="17.6" height="17.6"></rect>
                <path d="M25.85,1.32 C25.85,0.605 25.245,4.00568467e-13 24.53,4.00568467e-13 L10.67,4.00568467e-13 C9.955,4.00568467e-13 9.35,0.605 9.35,1.32 L9.35,12.1 C9.35,12.815 9.955,13.42 10.67,13.42 L24.53,13.42 C25.245,13.42 25.85,12.815 25.85,12.1 L25.85,8.635 L21.23,8.635 C20.185,8.635 19.305,7.755 19.305,6.71 C19.305,5.665 20.185,4.785 21.23,4.785 L25.85,4.785 L25.85,1.32 Z" id="路径" fill="#C8C4C4"></path>
                <path d="M20.075,6.71 C20.075,7.34788889 20.5921111,7.865 21.23,7.865 C21.8678889,7.865 22.385,7.34788889 22.385,6.71 C22.385,6.07211111 21.8678889,5.555 21.23,5.555 C20.5921111,5.555 20.075,6.07211111 20.075,6.71 Z" id="路径" fill="#C8C4C4"></path>
            </g>
        </g>
    </g>
</svg>