<?xml version="1.0" encoding="UTF-8"?>
<svg width="78px" height="50px" viewBox="0 0 78 50" version="1.1" xmlns="http://www.w3.org/2000/svg" xmlns:xlink="http://www.w3.org/1999/xlink">
    <title>编组 21</title>
    <defs>
        <path d="M38.5500869,12.5133055 L41.0881912,18.3460205 L46.2694944,12.5133055 L56.3893529,12.5133055 L44.0331651,25.0903817 L49.2919871,36.8560336 L40.6846667,36.8560336 L28.5758334,12.5133055 L38.5500869,12.5133055 Z M32.8373163,25.0903817 L36.217574,31.9874879 L31.3471128,36.8560336 L21.556107,36.8560336 L32.8373163,25.0903817 Z" id="path-1"></path>
        <filter x="-50.2%" y="-63.7%" width="200.5%" height="243.8%" filterUnits="objectBoundingBox" id="filter-2">
            <feOffset dx="0" dy="2" in="SourceAlpha" result="shadowOffsetOuter1"></feOffset>
            <feGaussianBlur stdDeviation="5.5" in="shadowOffsetOuter1" result="shadowBlurOuter1"></feGaussianBlur>
            <feColorMatrix values="0 0 0 0 0.42745098   0 0 0 0 0.290196078   0 0 0 0 1  0 0 0 1 0" type="matrix" in="shadowBlurOuter1"></feColorMatrix>
        </filter>
    </defs>
    <g id="pc" stroke="none" stroke-width="1" fill="none" fill-rule="evenodd">
        <g id="home更新" transform="translate(-1242.000000, -6833.000000)">
            <g id="编组-21" transform="translate(1242.328000, 6833.023965)">
                <rect id="矩形" fill-opacity="0" fill="#D8D8D8" x="20.7156839" y="6.4276235" width="36.5140921" height="36.5140921"></rect>
                <rect id="矩形" stroke="#847BFF" stroke-width="2" x="1" y="1" width="75.1630344" height="47.3693391" rx="20"></rect>
                <path d="M34.9479041,12.5133055 L37.1903885,18.3460205 L41.7682115,12.5133055 L50.709383,12.5133055 L39.7923535,25.0903817 L44.4386664,36.8560336 L36.8338636,36.8560336 L26.1353785,12.5133055 L34.9479041,12.5133055 Z M29.9005151,25.0903817 L32.8870652,31.9874879 L28.5838796,36.8560336 L19.9332584,36.8560336 L29.9005151,25.0903817 Z" id="形状结合" fill="#0100FF"></path>
                <g id="形状结合">
                    <use fill="black" fill-opacity="1" filter="url(#filter-2)" xlink:href="#path-1"></use>
                    <use fill="#FFFFFF" fill-rule="evenodd" xlink:href="#path-1"></use>
                </g>
            </g>
        </g>
    </g>
</svg>