<?xml version="1.0" encoding="UTF-8"?>
<svg width="46px" height="45px" viewBox="0 0 46 45" version="1.1" xmlns="http://www.w3.org/2000/svg" xmlns:xlink="http://www.w3.org/1999/xlink">
    <title>编组 21</title>
    <g id="页面-1" stroke="none" stroke-width="1" fill="none" fill-rule="evenodd">
        <g id="menu2" transform="translate(-1610.000000, -22.000000)">
            <g id="编组-21" transform="translate(1610.928524, 22.000000)">
                <rect id="矩形" fill-opacity="0" fill="#D8D8D8" x="0" y="0" width="45" height="45"></rect>
                <path d="M20.5155343,7.5 L23.424903,14.6882432 L29.3641081,7.5 L40.9642619,7.5 L26.8006568,23 L32.8287198,37.5 L22.9623525,37.5 L9.08228406,7.5 L20.5155343,7.5 Z M13.9671209,23 L17.8418301,31.5 L12.2589359,37.5 L1.03573814,37.5 L13.9671209,23 Z" id="形状结合" fill="#FD00FF"></path>
                <path d="M21.9791344,7.5 L25.1070963,14.6882432 L31.4925391,7.5 L43.9642619,7.5 L28.7364849,23 L35.2174619,37.5 L24.6097924,37.5 L9.68685531,7.5 L21.9791344,7.5 Z M14.9387107,23 L19.1045433,31.5 L13.1021826,37.5 L1.03573814,37.5 L14.9387107,23 Z" id="形状结合" fill="#FFFFFF"></path>
            </g>
        </g>
    </g>
</svg>