<?xml version="1.0" encoding="UTF-8"?>
<svg width="42px" height="42px" viewBox="0 0 42 42" version="1.1" xmlns="http://www.w3.org/2000/svg" xmlns:xlink="http://www.w3.org/1999/xlink">
    <title>矩形</title>
    <g id="home" stroke="none" stroke-width="1" fill="none" fill-rule="evenodd">
        <g id="制作画板备份" transform="translate(-469.000000, -4679.000000)" fill-rule="nonzero">
            <g id="youtube" transform="translate(469.611668, 4679.548306)">
                <rect id="矩形" opacity="0" x="0" y="0" width="41" height="41"></rect>
                <path d="M17.0833333,27.3333333 L17.0833333,15.375 L27.3333333,21.3746667 L17.0833333,27.3333333 Z M40.59,13.0977917 C40.59,13.0977917 40.1885417,10.2534167 38.96025,8.9995 C37.4005417,7.354375 35.6529167,7.34754165 34.8517083,7.251875 C29.115125,6.83333335 20.5085417,6.83333335 20.5085417,6.83333335 L20.4914583,6.83333335 C20.4914583,6.83333335 11.884875,6.83333335 6.14829165,7.251875 C5.345375,7.34754165 3.59945831,7.354375 2.03804165,8.9995 C0.80975,10.2534167 0.41,13.0995 0.41,13.0995 C0.41,13.0995 0,16.4375833 0,19.777375 L0,22.9121667 C0,26.2536667 0.41,29.5951667 0.41,29.5951667 C0.41,29.5951667 0.80975,32.4395417 2.03804165,33.6934583 C3.59945831,35.3385833 5.64775,35.285625 6.56,35.4581667 C9.84,35.777625 20.5,35.875 20.5,35.875 C20.5,35.875 29.115125,35.8613333 34.8517083,35.4445 C35.654625,35.347125 37.4005417,35.3402917 38.96025,33.6951667 C40.19025,32.44125 40.59,29.5951667 40.59,29.5951667 C40.59,29.5951667 41,26.255375 41,22.913875 L41,19.7807917 C41,16.4392917 40.59,13.0977917 40.59,13.0977917 Z" id="形状" fill="#FF0000"></path>
            </g>
        </g>
    </g>
</svg>