<?xml version="1.0" encoding="UTF-8"?>
<svg width="31px" height="31px" viewBox="0 0 31 31" version="1.1" xmlns="http://www.w3.org/2000/svg" xmlns:xlink="http://www.w3.org/1999/xlink">
    <title>编组 2</title>
    <defs>
        <linearGradient x1="47.2537289%" y1="66.9366473%" x2="84.3861219%" y2="17.8334745%" id="linearGradient-1">
            <stop stop-color="#2C2CE2" offset="0%"></stop>
            <stop stop-color="#5C22FB" offset="40.777972%"></stop>
            <stop stop-color="#FFF067" offset="100%"></stop>
        </linearGradient>
        <linearGradient x1="8.74352862%" y1="60.9828%" x2="93.2405866%" y2="28.7749758%" id="linearGradient-2">
            <stop stop-color="#746773" offset="0%"></stop>
            <stop stop-color="#D6BA49" offset="100%"></stop>
        </linearGradient>
        <circle id="path-3" cx="13.96696" cy="13.96696" r="13.96696"></circle>
        <filter x="-5.4%" y="-5.4%" width="110.7%" height="110.7%" filterUnits="objectBoundingBox" id="filter-4">
            <feOffset dx="0" dy="0" in="SourceAlpha" result="shadowOffsetOuter1"></feOffset>
            <feMorphology radius="1" operator="erode" in="SourceAlpha" result="shadowInner"></feMorphology>
            <feOffset dx="0" dy="0" in="shadowInner" result="shadowInner"></feOffset>
            <feComposite in="shadowOffsetOuter1" in2="shadowInner" operator="out" result="shadowOffsetOuter1"></feComposite>
            <feGaussianBlur stdDeviation="0.5" in="shadowOffsetOuter1" result="shadowBlurOuter1"></feGaussianBlur>
            <feColorMatrix values="0 0 0 0 0.574694255   0 0 0 0 0.465598559   0 0 0 0 0.965070199  0 0 0 0.484648164 0" type="matrix" in="shadowBlurOuter1"></feColorMatrix>
        </filter>
        <filter x="-16.4%" y="-18.8%" width="132.7%" height="137.6%" filterUnits="objectBoundingBox" id="filter-5">
            <feOffset dx="0" dy="0" in="SourceAlpha" result="shadowOffsetOuter1"></feOffset>
            <feGaussianBlur stdDeviation="0.5" in="shadowOffsetOuter1" result="shadowBlurOuter1"></feGaussianBlur>
            <feColorMatrix values="0 0 0 0 0.845012754   0 0 0 0 0.580151927   0 0 0 0 0.918110281  0 0 0 0.5 0" type="matrix" in="shadowBlurOuter1" result="shadowMatrixOuter1"></feColorMatrix>
            <feMerge>
                <feMergeNode in="shadowMatrixOuter1"></feMergeNode>
                <feMergeNode in="SourceGraphic"></feMergeNode>
            </feMerge>
        </filter>
        <radialGradient cx="58.5006167%" cy="17.0074919%" fx="58.5006167%" fy="17.0074919%" r="97.6808348%" gradientTransform="translate(0.585006,0.170075),scale(0.859805,1.000000),rotate(90.000000),translate(-0.585006,-0.170075)" id="radialGradient-6">
            <stop stop-color="#FFFFFF" offset="0%"></stop>
            <stop stop-color="#FDFCFE" offset="17.2183976%"></stop>
            <stop stop-color="#AC84FE" offset="72.0143138%"></stop>
            <stop stop-color="#5513FF" offset="100%"></stop>
        </radialGradient>
    </defs>
    <g id="home" stroke="none" stroke-width="1" fill="none" fill-rule="evenodd">
        <g id="mystery-box-list" transform="translate(-1281.000000, -2255.000000)">
            <g id="编组-2" transform="translate(1282.256329, 2256.367244)">
                <g id="编组">
                    <circle id="椭圆形" fill="url(#linearGradient-1)" cx="13.96696" cy="13.96696" r="13.96696"></circle>
                    <g id="椭圆形">
                        <use fill="black" fill-opacity="1" filter="url(#filter-4)" xlink:href="#path-3"></use>
                        <circle stroke="url(#linearGradient-2)" stroke-width="0.8232" stroke-linejoin="square" cx="13.96696" cy="13.96696" r="13.55536"></circle>
                    </g>
                </g>
                <g id="编组-6" filter="url(#filter-5)" transform="translate(5.359475, 8.067360)" fill="url(#radialGradient-6)" stroke="#9A7AFC" stroke-width="0.56">
                    <path d="M0.544744641,2.14251148 L2.54720772,3.06378516 L3.38851842,4.41016371 L2.66379275,5.53369734 L3.62172939,7.06671642 L5.43399065,6.65966837 L6.44120504,8.27154834 L5.31896011,9.78285334 L6.44120504,11.5788207 L7.68945198,13.4743447 L7.68945198,14.7927562 L7.1458256,14.7927562 L-7.99360578e-15,3.3570447 L0.544744641,2.14251148 Z M16.6600421,2.14251148 L17.2047867,3.3570447 L10.0589611,14.7927562 L9.51533472,14.7927562 L9.51533472,13.4743447 L10.7635817,11.5788207 L11.8858266,9.78285334 L10.7635817,8.27154834 L11.7707961,6.65966837 L13.5830573,7.06671642 L14.540994,5.53369734 L13.8162683,4.41016371 L14.657579,3.06378516 L16.6600421,2.14251148 Z M7.4125068,3.84420348 L9.82685903,3.88634615 L10.7298341,5.51620348 L9.53483406,5.51620348 L9.20502266,4.92125566 L7.99784654,4.90018433 L7.37601017,5.93509384 L7.96134992,6.99107469 L9.16852603,7.01214603 L9.65483406,6.20220348 L10.8738341,6.20220348 L9.75386577,8.06812688 L7.33951355,8.0259842 L6.16883406,5.9140225 L7.4125068,3.84420348 Z M15.3306789,0 L16.0719908,1.10557421 L14.2295626,2.31555854 L12.6419421,2.31555854 L12.0731777,1.10557421 L10.2654747,1.10557421 L9.64096403,3.0536204 L7.74026998,3.0536204 L7.06266467,1.10557421 L4.9448988,1.10557421 L4.50053307,2.13325142 L2.88252804,2.13325142 L1.27367355,1.10557421 L1.8459349,0 L15.3306789,0 Z" id="形状结合"></path>
                </g>
            </g>
        </g>
    </g>
</svg>