<svg width="16" height="16" viewBox="0 0 16 16" fill="none" xmlns="http://www.w3.org/2000/svg">
<g id="ic_clear_input">
<path id="angle-left-f" d="M14.2083 0C14.4583 0 14.6875 0.0486111 14.8958 0.145833C15.1042 0.229167 15.2986 0.361111 15.4792 0.541667C15.6597 0.722222 15.7917 0.916667 15.875 1.125C15.9583 1.33333 16 1.55556 16 1.79167V14.2083C16 14.4444 15.9583 14.6667 15.875 14.875C15.7917 15.0833 15.6597 15.2778 15.4792 15.4583C15.2986 15.6389 15.1042 15.7708 14.8958 15.8542C14.6875 15.9514 14.4583 16 14.2083 16H1.79167C1.54167 16 1.3125 15.9514 1.10417 15.8542C0.895833 15.7708 0.701389 15.6389 0.520833 15.4583C0.340278 15.2778 0.208333 15.0833 0.125 14.875C0.0416667 14.6667 0 14.4444 0 14.2083V1.79167C0 1.55556 0.0416667 1.33333 0.125 1.125C0.208333 0.916667 0.340278 0.722222 0.520833 0.541667C0.701389 0.361111 0.895833 0.229167 1.10417 0.145833C1.3125 0.0486111 1.54167 0 1.79167 0H14.2083ZM10.1042 5.375C10.3264 5.15278 10.4306 4.88889 10.4167 4.58333C10.4167 4.27778 10.3125 4.02083 10.1042 3.8125C10.1042 3.8125 10.0972 3.8125 10.0833 3.8125C10.0833 3.79861 10.0833 3.79167 10.0833 3.79167C9.875 3.58333 9.61806 3.47917 9.3125 3.47917C9.00694 3.47917 8.75 3.59028 8.54167 3.8125L5.0625 7.375C4.88194 7.54167 4.79167 7.75 4.79167 8C4.79167 8.23611 4.88194 8.44444 5.0625 8.625L8.54167 12.1667C8.54167 12.1667 8.54167 12.1736 8.54167 12.1875C8.76389 12.3958 9.02083 12.5 9.3125 12.5C9.61806 12.5 9.88194 12.3958 10.1042 12.1875C10.3125 11.9653 10.4167 11.7014 10.4167 11.3958C10.4306 11.0903 10.3264 10.8264 10.1042 10.6042L7.54167 8L10.1042 5.375Z" fill="#8478FF"/>
</g>
</svg>
