<svg width="20" height="20" viewBox="0 0 20 20" fill="none" xmlns="http://www.w3.org/2000/svg">
<g id="ic_dropdown">
<path id="angle-down-bold" d="M14.8936 6.3451C15.1349 6.11503 15.4255 6 15.7655 6C16.1055 6 16.4016 6.11503 16.6538 6.3451C16.8841 6.57516 16.9993 6.85229 16.9993 7.17647C17.0103 7.50065 16.8951 7.77778 16.6538 8.00784C16.6538 8.00784 16.5277 8.1281 16.2755 8.36863C16.0123 8.60915 15.6229 8.97516 15.1075 9.46667C14.603 9.94771 13.9669 10.549 13.1992 11.2706C12.4206 11.9922 11.5213 12.8392 10.5014 13.8118C10.3698 13.9373 10.2053 14 10.0079 14C9.81046 14 9.64596 13.9373 9.51436 13.8118L3.36191 8.00784C3.1316 7.77778 3.01097 7.50588 3 7.19216C3 6.86797 3.12064 6.59085 3.36191 6.36078C3.60318 6.13072 3.8938 6.01569 4.23378 6.01569C4.58472 6.00523 4.88083 6.11503 5.1221 6.3451L10.0079 10.9725L14.8936 6.3451Z" fill="white"/>
</g>
</svg>
