<svg width="228" height="240" viewBox="0 0 228 240" fill="none" xmlns="http://www.w3.org/2000/svg">
<g id="img_No_results">
<path id="Vector 3" d="M1 82.4996L20.5 75.9996V82.4996H1Z" stroke="#514D5C" stroke-width="4"/>
<path id="Vector 1" d="M20.5007 76.0009L102.001 52.5009L196.001 76.0009M20.5007 76.0009L102.001 102.501M20.5007 76.0009V169.501L102.001 207.501M196.001 76.0009L102.001 102.501M196.001 76.0009V77.8134M102.001 102.501V207.501M102.001 207.501L196.001 169.501V107.751V103.126" stroke="#514D5C" stroke-width="4"/>
<path id="Vector 2" d="M132.497 125.5L101.497 103.5L195.497 75.9996L222.747 93.8746L132.497 125.5Z" stroke="#514D5C" stroke-width="4"/>
<rect id="Rectangle 35" x="75.0615" y="65.6244" width="11.25" height="11.25" fill="#8478FF"/>
<rect id="Rectangle 39" x="140.691" y="35.6249" width="11.25" height="13.125" fill="white"/>
<rect id="Rectangle 38" x="60.0652" y="11.2507" width="15" height="15" fill="#04FFA2"/>
<rect id="Rectangle 36" x="131.312" width="11.25" height="11.25" fill="#EDFF00"/>
<rect id="Rectangle 37" x="101.312" y="24.3759" width="9.375" height="16.875" fill="#A81BFF"/>
<ellipse id="Ellipse 11" cx="107.998" cy="228.501" rx="69.5" ry="11.5" fill="#353945"/>
</g>
</svg>
