<svg width="16" height="16" viewBox="0 0 16 16" fill="none" xmlns="http://www.w3.org/2000/svg">
<g id="ic_search_activated">
<path id="search" d="M11.0769 10.5L11.2885 10.6923H11.8654L14.7692 13.5962C14.9231 13.7628 15 13.9615 15 14.1923C15 14.4103 14.9231 14.6026 14.7692 14.7692C14.6026 14.9231 14.4038 15 14.1731 15C13.9551 15 13.7692 14.9231 13.6154 14.7692L10.7115 11.8654V11.2885L10.5 11.0769C10 11.5128 9.42949 11.859 8.78846 12.1154C8.14744 12.359 7.46795 12.4808 6.75 12.4808C5.95513 12.4808 5.20513 12.3333 4.5 12.0385C3.80769 11.7308 3.19872 11.3205 2.67308 10.8077C2.16026 10.2821 1.75 9.67308 1.44231 8.98077C1.14744 8.27564 1 7.52564 1 6.73077C1 5.9359 1.14744 5.19231 1.44231 4.5C1.75 3.80769 2.16026 3.20513 2.67308 2.69231C3.19872 2.16667 3.80769 1.75 4.5 1.44231C5.20513 1.14744 5.95513 1 6.75 1C7.54487 1 8.28846 1.14744 8.98077 1.44231C9.67308 1.75 10.2756 2.16667 10.7885 2.69231C11.3141 3.20513 11.7308 3.80769 12.0385 4.5C12.3333 5.19231 12.4808 5.9359 12.4808 6.73077C12.4808 7.44872 12.3526 8.13462 12.0962 8.78846C11.8526 9.42949 11.5128 10 11.0769 10.5ZM6.75 10.8462C7.3141 10.8462 7.84615 10.7372 8.34615 10.5192C8.84615 10.3013 9.27564 10.0064 9.63461 9.63461C10.0064 9.26282 10.3013 8.82692 10.5192 8.32692C10.7372 7.83974 10.8462 7.30769 10.8462 6.73077C10.8462 6.16667 10.7372 5.63462 10.5192 5.13462C10.3013 4.63462 10.0064 4.20513 9.63461 3.84615C9.27564 3.47436 8.84615 3.17949 8.34615 2.96154C7.84615 2.74359 7.3141 2.63462 6.75 2.63462C6.17308 2.63462 5.64103 2.74359 5.15385 2.96154C4.65385 3.17949 4.21795 3.47436 3.84615 3.84615C3.47436 4.20513 3.17949 4.63462 2.96154 5.13462C2.74359 5.63462 2.63462 6.16667 2.63462 6.73077C2.63462 7.30769 2.74359 7.83974 2.96154 8.32692C3.17949 8.82692 3.47436 9.26282 3.84615 9.63461C4.21795 10.0064 4.65385 10.3013 5.15385 10.5192C5.64103 10.7372 6.17308 10.8462 6.75 10.8462Z" fill="white"/>
</g>
</svg>
