<?xml version="1.0" encoding="UTF-8"?>
<svg width="21px" height="22px" viewBox="0 0 21 22" version="1.1" xmlns="http://www.w3.org/2000/svg" xmlns:xlink="http://www.w3.org/1999/xlink">
    <title>search</title>
    <g id="页面-1" stroke="none" stroke-width="1" fill="none" fill-rule="evenodd">
        <g id="mysterybox-phone" transform="translate(-191.000000, -1241.000000)" fill="#FFFFFF" fill-rule="nonzero">
            <g id="编组-3" transform="translate(13.500000, 1231.001307)">
                <g id="search" transform="translate(177.500000, 10.250000)">
                    <rect id="矩形" opacity="0" x="0" y="0" width="21" height="21"></rect>
                    <path d="M18.6539062,17.5239258 L13.3280273,12.1980469 C14.1544922,11.1295898 14.6015625,9.82324219 14.6015625,8.44921875 C14.6015625,6.80449219 13.959668,5.26230469 12.7989258,4.09951172 C11.6381836,2.93671875 10.0918945,2.296875 8.44921875,2.296875 C6.80654297,2.296875 5.26025391,2.93876953 4.09951172,4.09951172 C2.93671875,5.26025391 2.296875,6.80449219 2.296875,8.44921875 C2.296875,10.0918945 2.93876953,11.6381836 4.09951172,12.7989258 C5.26025391,13.9617187 6.80449219,14.6015625 8.44921875,14.6015625 C9.82324219,14.6015625 11.1275391,14.1544922 12.1959961,13.3300781 L17.521875,18.6539062 C17.5875,18.7195313 17.6941406,18.7195313 17.7597656,18.6539062 L18.6539062,17.7618164 C18.7195312,17.6961914 18.7195312,17.5895508 18.6539062,17.5239258 Z M11.6976562,11.6976562 C10.828125,12.5651367 9.67558594,13.0429688 8.44921875,13.0429688 C7.22285156,13.0429688 6.0703125,12.5651367 5.20078125,11.6976562 C4.33330078,10.828125 3.85546875,9.67558594 3.85546875,8.44921875 C3.85546875,7.22285156 4.33330078,6.06826172 5.20078125,5.20078125 C6.0703125,4.33330078 7.22285156,3.85546875 8.44921875,3.85546875 C9.67558594,3.85546875 10.8301758,4.33125 11.6976562,5.20078125 C12.5651367,6.0703125 13.0429687,7.22285156 13.0429687,8.44921875 C13.0429687,9.67558594 12.5651367,10.8301758 11.6976562,11.6976562 Z" id="形状"></path>
                </g>
            </g>
        </g>
    </g>
</svg>