<?xml version="1.0" encoding="UTF-8"?>
<svg width="108px" height="103px" viewBox="0 0 108 103" version="1.1" xmlns="http://www.w3.org/2000/svg" xmlns:xlink="http://www.w3.org/1999/xlink">
    <title>Fill 330</title>
    <g id="home" stroke="none" stroke-width="1" fill="none" fill-rule="evenodd">
        <g id="mining-phone" transform="translate(-20.000000, -443.000000)" fill="#27E37C">
            <g id="Fill-330" transform="translate(-21.476411, 395.595267)">
                <path d="M95.5296883,150.359417 C90.6758911,150.359417 85.7907487,149.696467 80.9871037,148.353327 C67.1623231,144.491604 55.6696221,135.47517 48.6263658,122.966886 C38.2182071,104.48735 39.6679205,81.5426966 52.3219595,64.5144412 L53.7607021,65.5833109 C41.5266882,82.0442191 40.1239925,104.225618 50.1873545,122.089222 C59.7147143,139.009336 77.3745746,148.533562 95.5359574,148.535129 C104.163711,148.535129 112.901173,146.386419 120.939638,141.860178 C145.898218,127.801876 154.765762,96.0633396 140.710595,71.1063272 C135.131157,61.199691 126.693041,53.562444 116.306824,49.0189638 L117.026196,47.378045 C127.76818,52.0798182 136.499373,59.9803645 142.271583,70.2270956 C149.31484,82.7338125 151.068601,97.2356484 147.203744,111.058862 C143.34202,124.883642 134.325587,136.376343 121.81887,143.4196 C113.656591,148.017934 104.647994,150.359417 95.5296883,150.359417"></path>
            </g>
        </g>
    </g>
</svg>