<?xml version="1.0" encoding="UTF-8"?>
<svg width="97px" height="108px" viewBox="0 0 97 108" version="1.1" xmlns="http://www.w3.org/2000/svg" xmlns:xlink="http://www.w3.org/1999/xlink">
    <title>locked</title>
    <defs>
        <linearGradient x1="50%" y1="0%" x2="50%" y2="98.8636364%" id="linearGradient-1">
            <stop stop-color="#501AA3" offset="0%"></stop>
            <stop stop-color="#12FF7C" offset="100%"></stop>
        </linearGradient>
        <filter x="-64.2%" y="-50.9%" width="228.4%" height="201.9%" filterUnits="objectBoundingBox" id="filter-2">
            <feGaussianBlur stdDeviation="9" in="SourceGraphic"></feGaussianBlur>
        </filter>
    </defs>
    <g id="home" stroke="none" stroke-width="1" fill="none" fill-rule="evenodd">
        <g id="mining-phone" transform="translate(-137.000000, -1533.000000)" fill-rule="nonzero">
            <g id="locked" transform="translate(157.019854, 1557.301991)">
                <rect id="矩形" fill="#000000" opacity="0" x="0" y="0" width="58.5" height="58.5"></rect>
                <path d="M7.3125,56.671875 L7.3125,27.421875 L12.796875,27.421875 L12.796875,18.28125 C12.796875,10.2045937 19.3433906,3.65625 27.421875,3.65625 L29.25,3.65625 C37.3266562,3.65625 43.875,10.2045937 43.875,18.28125 L43.875,27.421875 L49.359375,27.421875 L49.359375,56.671875 L7.3125,56.671875 Z M26.953875,41.6574844 L25.59375,51.1875 L31.078125,51.1875 L29.7161719,41.6574844 C31.048875,41.1127031 31.9921875,39.8055937 31.9921875,38.2754531 C31.9921875,36.2572031 30.3541875,34.6192031 28.3359375,34.6192031 C26.3158594,34.6192031 24.6796875,36.2572031 24.6796875,38.2754531 C24.6796875,39.8055937 25.6211719,41.1127031 26.953875,41.6574844 Z M38.390625,19.1953125 C38.390625,13.6414687 33.8879531,9.140625 28.3359375,9.140625 C22.7820938,9.140625 18.28125,13.6414687 18.28125,19.1953125 L18.28125,27.421875 L38.390625,27.421875 L38.390625,19.1953125 Z" id="形状" fill="url(#linearGradient-1)"></path>
                <path d="M7.3125,56.671875 L7.3125,27.421875 L12.796875,27.421875 L12.796875,18.28125 C12.796875,10.2045937 19.3433906,3.65625 27.421875,3.65625 L29.25,3.65625 C37.3266562,3.65625 43.875,10.2045937 43.875,18.28125 L43.875,27.421875 L49.359375,27.421875 L49.359375,56.671875 L7.3125,56.671875 Z M26.953875,41.6574844 L25.59375,51.1875 L31.078125,51.1875 L29.7161719,41.6574844 C31.048875,41.1127031 31.9921875,39.8055937 31.9921875,38.2754531 C31.9921875,36.2572031 30.3541875,34.6192031 28.3359375,34.6192031 C26.3158594,34.6192031 24.6796875,36.2572031 24.6796875,38.2754531 C24.6796875,39.8055937 25.6211719,41.1127031 26.953875,41.6574844 Z M38.390625,19.1953125 C38.390625,13.6414687 33.8879531,9.140625 28.3359375,9.140625 C22.7820938,9.140625 18.28125,13.6414687 18.28125,19.1953125 L18.28125,27.421875 L38.390625,27.421875 L38.390625,19.1953125 Z" id="形状" fill="url(#linearGradient-1)" filter="url(#filter-2)"></path>
            </g>
        </g>
    </g>
</svg>