<?xml version="1.0" encoding="UTF-8"?>
<svg width="216px" height="207px" viewBox="0 0 216 207" version="1.1" xmlns="http://www.w3.org/2000/svg" xmlns:xlink="http://www.w3.org/1999/xlink">
    <title>Fill 330</title>
    <g id="页面-1" stroke="none" stroke-width="1" fill="none" fill-rule="evenodd">
        <g id="mining" transform="translate(-398.000000, -430.000000)" fill="#27E37C">
            <g id="Fill-330" transform="translate(314.909081, 335.413345)">
                <path d="M191.059377,300.718834 C181.351782,300.718834 171.581497,299.392934 161.974207,296.706654 C134.324646,288.983208 111.339244,270.95034 97.2527315,245.933772 C76.4364141,208.9747 79.3358409,163.085393 104.643919,129.028882 L107.521404,131.166622 C83.0533763,164.088438 80.247985,208.451236 100.374709,244.178443 C119.429429,278.018673 154.749149,297.067123 191.071915,297.070258 C208.327423,297.070258 225.802346,292.772837 241.879276,283.720356 C291.796436,255.603752 309.531524,192.126679 281.421189,142.212654 C270.262314,122.399382 253.386083,107.124888 232.613649,98.0379276 L234.052391,94.7560899 C255.53636,104.159636 272.998746,119.960729 284.543167,140.454191 C298.629679,165.467625 302.137202,194.471297 294.407487,222.117723 C286.684041,249.767285 268.651173,272.752687 243.63774,286.839199 C227.313183,296.035868 209.295988,300.718834 191.059377,300.718834"></path>
            </g>
        </g>
    </g>
</svg>