<?xml version="1.0" encoding="UTF-8"?>
<svg width="108px" height="119px" viewBox="0 0 108 119" version="1.1" xmlns="http://www.w3.org/2000/svg" xmlns:xlink="http://www.w3.org/1999/xlink">
    <title>locked</title>
    <defs>
        <linearGradient x1="50%" y1="0%" x2="50%" y2="98.8636364%" id="linearGradient-1">
            <stop stop-color="#501AA3" offset="0%"></stop>
            <stop stop-color="#12FF7C" offset="100%"></stop>
        </linearGradient>
        <filter x="-64.2%" y="-50.9%" width="228.4%" height="201.9%" filterUnits="objectBoundingBox" id="filter-2">
            <feGaussianBlur stdDeviation="10" in="SourceGraphic"></feGaussianBlur>
        </filter>
    </defs>
    <g id="页面-1" stroke="none" stroke-width="1" fill="none" fill-rule="evenodd">
        <g id="mining" transform="translate(-1058.000000, -899.000000)" fill-rule="nonzero">
            <g id="locked" transform="translate(1080.632341, 924.981727)">
                <rect id="矩形" fill="#000000" opacity="0" x="0" y="0" width="65" height="65"></rect>
                <path d="M8.125,62.96875 L8.125,30.46875 L14.21875,30.46875 L14.21875,20.3125 C14.21875,11.3384375 21.4926562,4.0625 30.46875,4.0625 L32.5,4.0625 C41.4740625,4.0625 48.75,11.3384375 48.75,20.3125 L48.75,30.46875 L54.84375,30.46875 L54.84375,62.96875 L8.125,62.96875 Z M29.94875,46.2860937 L28.4375,56.875 L34.53125,56.875 L33.0179687,46.2860937 C34.49875,45.6807813 35.546875,44.2284375 35.546875,42.5282812 C35.546875,40.2857812 33.726875,38.4657812 31.484375,38.4657812 C29.2398437,38.4657812 27.421875,40.2857812 27.421875,42.5282812 C27.421875,44.2284375 28.4679688,45.6807812 29.94875,46.2860937 Z M42.65625,21.328125 C42.65625,15.1571875 37.6532812,10.15625 31.484375,10.15625 C25.3134375,10.15625 20.3125,15.1571875 20.3125,21.328125 L20.3125,30.46875 L42.65625,30.46875 L42.65625,21.328125 Z" id="形状" fill="url(#linearGradient-1)"></path>
                <path d="M8.125,62.96875 L8.125,30.46875 L14.21875,30.46875 L14.21875,20.3125 C14.21875,11.3384375 21.4926562,4.0625 30.46875,4.0625 L32.5,4.0625 C41.4740625,4.0625 48.75,11.3384375 48.75,20.3125 L48.75,30.46875 L54.84375,30.46875 L54.84375,62.96875 L8.125,62.96875 Z M29.94875,46.2860937 L28.4375,56.875 L34.53125,56.875 L33.0179687,46.2860937 C34.49875,45.6807813 35.546875,44.2284375 35.546875,42.5282812 C35.546875,40.2857812 33.726875,38.4657812 31.484375,38.4657812 C29.2398437,38.4657812 27.421875,40.2857812 27.421875,42.5282812 C27.421875,44.2284375 28.4679688,45.6807812 29.94875,46.2860937 Z M42.65625,21.328125 C42.65625,15.1571875 37.6532812,10.15625 31.484375,10.15625 C25.3134375,10.15625 20.3125,15.1571875 20.3125,21.328125 L20.3125,30.46875 L42.65625,30.46875 L42.65625,21.328125 Z" id="形状" fill="url(#linearGradient-1)" filter="url(#filter-2)"></path>
            </g>
        </g>
    </g>
</svg>