<?xml version="1.0" encoding="UTF-8"?>
<svg width="22px" height="22px" viewBox="0 0 22 22" version="1.1" xmlns="http://www.w3.org/2000/svg" xmlns:xlink="http://www.w3.org/1999/xlink">
    <title>编组 4备份</title>
    <g id="home" stroke="none" stroke-width="1" fill="none" fill-rule="evenodd">
        <g id="home-phone-menu" transform="translate(-335.000000, -12.000000)">
            <g id="编组-2" transform="translate(59.000000, 0.000000)">
                <g id="编组-4备份" transform="translate(276.000000, 12.000000)">
                    <rect id="矩形" x="0" y="0" width="22" height="22"></rect>
                    <g id="编组-3" transform="translate(3.000000, 3.000000)" fill="#FFFFFF">
                        <path d="M2.66666667,0.888888889 L15.1111111,13.3333333 C15.6020309,13.8242531 15.6020309,14.6201913 15.1111111,15.1111111 C14.6201913,15.6020309 13.8242531,15.6020309 13.3333333,15.1111111 L0.888888889,2.66666667 C0.397969111,2.17574689 0.397969111,1.37980867 0.888888889,0.888888889 C1.37980867,0.397969111 2.17574689,0.397969111 2.66666667,0.888888889 Z" id="矩形"></path>
                        <path d="M15.1111111,2.66666667 L2.66666667,15.1111111 C2.17574689,15.6020309 1.37980867,15.6020309 0.888888889,15.1111111 C0.397969111,14.6201913 0.397969111,13.8242531 0.888888889,13.3333333 L13.3333333,0.888888889 C13.8242531,0.397969111 14.6201913,0.397969111 15.1111111,0.888888889 C15.6020309,1.37980867 15.6020309,2.17574689 15.1111111,2.66666667 Z" id="矩形备份-5"></path>
                    </g>
                </g>
            </g>
        </g>
    </g>
</svg>