<?xml version="1.0" encoding="UTF-8"?>
<svg width="41px" height="42px" viewBox="0 0 41 42" version="1.1" xmlns="http://www.w3.org/2000/svg" xmlns:xlink="http://www.w3.org/1999/xlink">
    <title>discord</title>
    <g id="home" stroke="none" stroke-width="1" fill="none" fill-rule="evenodd">
        <g id="home-phone" transform="translate(-175.000000, -5506.000000)" fill-rule="nonzero">
            <g id="编组-19" transform="translate(16.272979, 5393.788688)">
                <g id="编组-39" transform="translate(87.089214, 112.735750)">
                    <g id="discord" transform="translate(71.990000, 0.000000)">
                        <rect id="矩形" fill="#000000" opacity="0" x="0" y="0" width="40.56" height="40.56"></rect>
                        <path d="M19.7223,2.535 C29.5225929,2.535 37.4673,10.4797071 37.4673,20.28 C37.4673,30.0802929 29.5225929,38.025 19.7223,38.025 C9.92200711,38.025 1.9773,30.0802929 1.9773,20.28 C1.9773,10.4797071 9.92200711,2.535 19.7223,2.535 Z M11.12358,14.28388 C11.12358,14.28388 11.0418985,14.4261551 10.9052677,14.6928444 L10.8063332,14.888873 C10.025418,16.4587072 8.07313001,20.907328 8.07313001,26.14768 C8.07313001,26.14768 9.76313003,29.08828 14.3988,29.19982 L14.4229213,29.1678422 C14.5491265,29.0009842 15.15085,28.2109822 15.75925,27.50644 C13.15665,26.71552 12.14265,25.13368 12.14265,25.13368 C12.14265,25.13368 12.36911,25.24522 12.7088,25.47168 L12.8102,25.47168 C12.8609,25.47168 12.88456,25.49703 12.9116,25.52238 L12.9116,25.53252 C12.93864,25.55956 12.9623,25.58322 13.013,25.58322 C13.5707,25.81306 14.1284,26.03952 14.5847,26.25922 C15.5605589,26.6769574 16.5812849,26.9809069 17.6267,27.16506 C19.1984,27.39321 20.99994,27.50306 23.0516,27.16506 C24.0656,26.93691 25.0796,26.71383 26.0936,26.26091 C26.7527,25.92291 27.5639,25.58491 28.45453,25.01538 C28.45453,25.01538 27.44053,26.59722 24.72808,27.38814 C25.1618467,28.0006711 25.73363,28.6827217 25.9663354,28.9556069 L26.0439154,29.0461112 C26.0619282,29.0669985 26.07163,29.07814 26.07163,29.07814 C30.70899,28.97674 32.51053,26.03614 32.61193,26.1612 C32.61193,19.6209 29.54458,14.2974 29.54458,14.2974 C26.8651618,12.3079115 24.3526021,12.1745241 23.7867236,12.1682669 L23.7553,12.168 L23.44368,12.47727 C26.94705,13.49127 28.64212,15.0748 28.64212,15.0748 C26.38428,13.94588 24.34952,13.38142 22.31476,13.15327 C20.84446,12.92512 19.37416,13.04511 18.13201,13.15327 L17.79401,13.15327 C16.99971,13.15327 15.30971,13.49127 13.04511,14.39542 C12.25588,14.73849 11.80296,14.96326 11.80296,14.96326 C11.80296,14.96326 13.49634,13.26988 17.22786,12.36573 L16.99971,12.13758 L16.9788425,12.1370776 C16.7165801,12.1326705 14.0215075,12.142143 11.12358,14.28388 Z M24.11968,19.59724 C25.30775,19.59724 26.26598,20.61124 26.26598,21.85339 C26.26598,23.10399 25.30268,24.11799 24.11968,24.11799 C22.93668,24.11799 21.97338,23.10399 21.97338,21.86353 C21.97676,20.61293 22.94175,19.60231 24.11968,19.60231 L24.11968,19.59724 Z M16.44201,19.59724 C17.62501,19.59724 18.58155,20.61124 18.58155,21.85339 C18.58155,23.10399 17.61825,24.11799 16.43525,24.11799 C15.25225,24.11799 14.28895,23.10399 14.28895,21.86353 C14.28895,20.61293 15.25225,19.60231 16.43525,19.60231 L16.44201,19.59724 Z" id="形状" fill="#FFFFFF"></path>
                    </g>
                </g>
            </g>
        </g>
    </g>
</svg>