<?xml version="1.0" encoding="UTF-8"?>
<svg width="23px" height="17px" viewBox="0 0 23 17" version="1.1" xmlns="http://www.w3.org/2000/svg" xmlns:xlink="http://www.w3.org/1999/xlink">
    <title>形状</title>
    <g id="home" stroke="none" stroke-width="1" fill="none" fill-rule="evenodd">
        <g id="home-phone" transform="translate(-341.000000, -390.000000)" fill="#04FFA2" fill-rule="nonzero">
            <g id="编组-21" transform="translate(328.648022, 236.102665)">
                <path d="M16.56876,156.933536 C18.2659554,155.417619 21.2319054,154.544286 21.2319054,154.544286 L20.9517621,154.264181 C18.1670904,154.313614 15.6460329,156.241481 15.6460329,156.241481 C12.81189,162.156891 12.9931296,167.264929 12.9931296,167.264929 C15.3000054,170.247369 18.7272996,170.033149 18.7272996,170.033149 L19.8972279,168.550174 C17.8375146,168.105281 16.5358179,166.276279 16.5358179,166.276279 C16.5358179,166.276279 19.633575,168.385386 24.0825,168.385386 C28.531425,168.385386 31.6291821,166.276279 31.6291821,166.276279 C31.6291821,166.276279 30.3274854,168.105281 28.2677721,168.550174 L29.4377004,170.033149 C29.4377004,170.033149 32.8649946,170.247369 35.1718704,167.264929 C35.1718704,167.264929 35.35311,162.156891 32.5189671,156.241481 C32.5189671,156.241481 29.9979096,154.313614 27.2132379,154.264181 L26.9330946,154.544286 C26.9330946,154.544286 29.8990446,155.417619 31.59624,156.933536 C31.59624,156.933536 28.4984829,155.038611 24.0825,155.038611 C19.6665171,155.038611 16.56876,156.933536 16.56876,156.933536 Z M20.6716575,161.283596 C21.7426821,161.283596 22.6160154,162.222814 22.599525,163.376251 C22.599525,164.513199 21.7426821,165.468868 20.6716575,165.468868 C19.6170846,165.468868 18.7602804,164.513199 18.7602804,163.376251 C18.7602804,162.222814 19.6006329,161.283596 20.6716575,161.283596 M27.542775,161.283596 C28.6137996,161.283596 29.4706425,162.222814 29.4706425,163.376251 C29.4706425,164.513199 28.6137996,165.468868 27.542775,165.468868 C26.4882021,165.468868 25.6313979,164.513199 25.6313979,163.376251 C25.6313979,162.222814 26.4717504,161.283596 27.542775,161.283596 Z" id="形状"></path>
            </g>
        </g>
    </g>
</svg>