<?xml version="1.0" encoding="UTF-8"?>
<svg width="24px" height="21px" viewBox="0 0 24 21" version="1.1" xmlns="http://www.w3.org/2000/svg" xmlns:xlink="http://www.w3.org/1999/xlink">
    <title>编组 6</title>
    <defs>
        <filter color-interpolation-filters="auto" id="filter-1">
            <feColorMatrix in="SourceGraphic" type="matrix" values="0 0 0 0 1.000000 0 0 0 0 1.000000 0 0 0 0 1.000000 0 0 0 1.000000 0"></feColorMatrix>
        </filter>
    </defs>
    <g id="home" stroke="none" stroke-width="1" fill="none" fill-rule="evenodd">
        <g id="home-phone" transform="translate(-341.000000, -333.000000)">
            <g id="编组-6" transform="translate(328.648022, 236.102665)" filter="url(#filter-1)">
                <g transform="translate(12.448365, 97.862213)">
                    <g id="编组-5" fill="#FFFFFF">
                        <polygon id="路径-9" points="2.15540834 1.42991358 2.89555249 0 20.33628 0 21.2950686 1.42991358 18.9121322 2.99486781 16.8587557 2.99486781 16.1231343 1.42991358 13.7851103 1.42991358 12.9773886 3.94945291 10.519093 3.94945291 9.64270042 1.42991358 6.90365119 1.42991358 6.32892308 2.75907773 4.2362482 2.75907773"></polygon>
                        <polygon id="路径-9" transform="translate(6.541320, 10.509154) rotate(-122.000000) translate(-6.541320, -10.509154) " points="-2.84473325 9.25709768 -2.47214245 8.66082777 14.9685851 8.66082777 15.9273737 10.0907413 13.5444373 11.6556956 11.4910608 11.6556956 10.7554394 10.0907413 8.41741536 10.0907413 7.62179289 12.3574805 5.16349727 12.3574805 4.27500549 10.0907413 1.53595626 10.0907413 -1.39864982 10.1607109"></polygon>
                        <polygon id="路径-9" transform="translate(16.726950, 10.509154) scale(-1, 1) rotate(-122.000000) translate(-16.726950, -10.509154) " points="7.34089675 9.25709768 7.71348755 8.66082777 25.1542151 8.66082777 26.1130037 10.0907413 23.7300673 11.6556956 21.6766908 11.6556956 20.9410694 10.0907413 18.6030454 10.0907413 17.8074229 12.3574805 15.3491273 12.3574805 14.4606355 10.0907413 11.7215863 10.0907413 8.78698018 10.1607109"></polygon>
                    </g>
                    <path d="M10.2624177,5.09606775 L13.2903323,5.1489202 L13.9878723,6.40761725 L13.0904961,5.48182754 L10.4507066,5.43574984 L9.09098396,7.69870833 L10.3709022,10.0077419 L13.0106891,10.0538196 L13.7751221,8.78061725 L13.198767,10.393498 L10.1708733,10.3406459 L8.70266621,7.69193022 L10.2624177,5.09606775 Z" id="形状结合" stroke="#979797" stroke-width="1.3" fill="#FFFFFF"></path>
                </g>
            </g>
        </g>
    </g>
</svg>