<svg width="74" height="75" viewBox="0 0 74 75" fill="none" xmlns="http://www.w3.org/2000/svg">
<g id="ic_spinning">
<g id="Group 85">
<g id="2. Circular">
<path id="Surface" fill-rule="evenodd" clip-rule="evenodd" d="M37 66.332C53.0163 66.332 66 53.3483 66 37.332C66 21.3158 53.0163 8.33203 37 8.33203V13.6048C50.1042 13.6048 60.7273 24.2278 60.7273 37.332C60.7273 50.4362 50.1042 61.0593 37 61.0593C23.8958 61.0593 13.2727 50.4362 13.2727 37.332H8C8 53.3483 20.9837 66.332 37 66.332Z" fill="#BB86FC"/>
<mask id="mask0_163_7435" style="mask-type:alpha" maskUnits="userSpaceOnUse" x="8" y="8" width="58" height="59">
<path id="Surface_2" fill-rule="evenodd" clip-rule="evenodd" d="M37 66.332C53.0163 66.332 66 53.3483 66 37.332C66 21.3158 53.0163 8.33203 37 8.33203V13.6048C50.1042 13.6048 60.7273 24.2278 60.7273 37.332C60.7273 50.4362 50.1042 61.0593 37 61.0593C23.8958 61.0593 13.2727 50.4362 13.2727 37.332H8C8 53.3483 20.9837 66.332 37 66.332Z" fill="white"/>
</mask>
<g mask="url(#mask0_163_7435)">
</g>
</g>
<g id="Progress Indicators/2. Circular_secondary" filter="url(#filter0_d_163_7435)">
<path id="Surface_3" fill-rule="evenodd" clip-rule="evenodd" d="M36.7563 57.5617C48.3311 57.5617 57.7143 48.1785 57.7143 36.6037C57.7143 25.029 48.3311 15.6458 36.7563 15.6458L36.7563 19.4563C46.2266 19.4563 53.9038 27.1335 53.9038 36.6037C53.9038 46.074 46.2266 53.7512 36.7563 53.7512C27.2861 53.7512 19.6089 46.074 19.6089 36.6037H15.7983C15.7983 48.1785 25.1815 57.5617 36.7563 57.5617Z" fill="#03DAC5"/>
<mask id="mask1_163_7435" style="mask-type:alpha" maskUnits="userSpaceOnUse" x="15" y="15" width="43" height="43">
<path id="Surface_4" fill-rule="evenodd" clip-rule="evenodd" d="M36.7563 57.5617C48.3311 57.5617 57.7143 48.1785 57.7143 36.6037C57.7143 25.029 48.3311 15.6458 36.7563 15.6458L36.7563 19.4563C46.2266 19.4563 53.9038 27.1335 53.9038 36.6037C53.9038 46.074 46.2266 53.7512 36.7563 53.7512C27.2861 53.7512 19.6089 46.074 19.6089 36.6037H15.7983C15.7983 48.1785 25.1815 57.5617 36.7563 57.5617Z" fill="white"/>
</mask>
<g mask="url(#mask1_163_7435)">
</g>
</g>
</g>
</g>
<defs>
<filter id="filter0_d_163_7435" x="11.7983" y="15.6458" width="49.916" height="49.916" filterUnits="userSpaceOnUse" color-interpolation-filters="sRGB">
<feFlood flood-opacity="0" result="BackgroundImageFix"/>
<feColorMatrix in="SourceAlpha" type="matrix" values="0 0 0 0 0 0 0 0 0 0 0 0 0 0 0 0 0 0 127 0" result="hardAlpha"/>
<feOffset dy="4"/>
<feGaussianBlur stdDeviation="2"/>
<feComposite in2="hardAlpha" operator="out"/>
<feColorMatrix type="matrix" values="0 0 0 0 0.028802 0 0 0 0 0.9875 0 0 0 0 0.642369 0 0 0 0.76 0"/>
<feBlend mode="normal" in2="BackgroundImageFix" result="effect1_dropShadow_163_7435"/>
<feBlend mode="normal" in="SourceGraphic" in2="effect1_dropShadow_163_7435" result="shape"/>
</filter>
</defs>
</svg>
