<svg width="179" height="172" viewBox="0 0 179 172" fill="none" xmlns="http://www.w3.org/2000/svg">
<g id="Frame 1502">
<rect y="0.332031" width="179" height="171.336" rx="4" fill="#23262F" fill-opacity="0.98"/>
<g id="Group 84">
<g id="ic_spinning">
<g id="Group 85">
<g id="2. Circular">
<path id="Surface" fill-rule="evenodd" clip-rule="evenodd" d="M91 98.332C107.016 98.332 120 85.3483 120 69.332C120 53.3158 107.016 40.332 91 40.332V45.6048C104.104 45.6048 114.727 56.2278 114.727 69.332C114.727 82.4362 104.104 93.0593 91 93.0593C77.8958 93.0593 67.2727 82.4362 67.2727 69.332H62C62 85.3483 74.9837 98.332 91 98.332Z" fill="#BB86FC"/>
<mask id="mask0_137_6863" style="mask-type:alpha" maskUnits="userSpaceOnUse" x="62" y="40" width="58" height="59">
<path id="Surface_2" fill-rule="evenodd" clip-rule="evenodd" d="M91 98.332C107.016 98.332 120 85.3483 120 69.332C120 53.3158 107.016 40.332 91 40.332V45.6048C104.104 45.6048 114.727 56.2278 114.727 69.332C114.727 82.4362 104.104 93.0593 91 93.0593C77.8958 93.0593 67.2727 82.4362 67.2727 69.332H62C62 85.3483 74.9837 98.332 91 98.332Z" fill="white"/>
</mask>
<g mask="url(#mask0_137_6863)">
</g>
</g>
<g id="Progress Indicators/2. Circular_secondary" filter="url(#filter0_d_137_6863)">
<path id="Surface_3" fill-rule="evenodd" clip-rule="evenodd" d="M90.7563 89.5617C102.331 89.5617 111.714 80.1785 111.714 68.6037C111.714 57.029 102.331 47.6458 90.7563 47.6458L90.7563 51.4563C100.227 51.4563 107.904 59.1335 107.904 68.6037C107.904 78.074 100.227 85.7512 90.7563 85.7512C81.2861 85.7512 73.6089 78.074 73.6089 68.6037H69.7983C69.7983 80.1785 79.1815 89.5617 90.7563 89.5617Z" fill="#03DAC5"/>
<mask id="mask1_137_6863" style="mask-type:alpha" maskUnits="userSpaceOnUse" x="69" y="47" width="43" height="43">
<path id="Surface_4" fill-rule="evenodd" clip-rule="evenodd" d="M90.7563 89.5617C102.331 89.5617 111.714 80.1785 111.714 68.6037C111.714 57.029 102.331 47.6458 90.7563 47.6458L90.7563 51.4563C100.227 51.4563 107.904 59.1335 107.904 68.6037C107.904 78.074 100.227 85.7512 90.7563 85.7512C81.2861 85.7512 73.6089 78.074 73.6089 68.6037H69.7983C69.7983 80.1785 79.1815 89.5617 90.7563 89.5617Z" fill="white"/>
</mask>
<g mask="url(#mask1_137_6863)">
</g>
</g>
</g>
</g>
<path id="DEMO VIDEO" d="M35.062 127.4C35.062 124.84 35.642 123.013 36.802 121.92C37.962 120.813 39.6353 120.26 41.822 120.26C43.1553 120.26 44.2686 120.42 45.162 120.74V123.76C44.2286 123.427 43.202 123.26 42.082 123.26C41.322 123.26 40.7086 123.393 40.242 123.66C39.7886 123.913 39.4553 124.34 39.242 124.94C39.0286 125.54 38.922 126.36 38.922 127.4C38.922 128.48 39.0286 129.313 39.242 129.9C39.4686 130.487 39.8086 130.9 40.262 131.14C40.7153 131.367 41.3286 131.48 42.102 131.48C43.2753 131.48 44.3486 131.307 45.322 130.96V133.98C44.882 134.153 44.362 134.287 43.762 134.38C43.162 134.487 42.5486 134.54 41.922 134.54C40.4286 134.54 39.182 134.34 38.182 133.94C37.1953 133.54 36.4286 132.82 35.882 131.78C35.3353 130.727 35.062 129.267 35.062 127.4ZM46.8913 128.94C46.8913 127.5 47.098 126.373 47.5113 125.56C47.938 124.747 48.538 124.173 49.3113 123.84C50.098 123.507 51.098 123.34 52.3113 123.34C53.5113 123.34 54.5047 123.507 55.2913 123.84C56.078 124.173 56.678 124.747 57.0913 125.56C57.5047 126.373 57.7113 127.5 57.7113 128.94C57.7113 130.38 57.5047 131.507 57.0913 132.32C56.678 133.133 56.078 133.707 55.2913 134.04C54.5047 134.373 53.5113 134.54 52.3113 134.54C51.098 134.54 50.098 134.373 49.3113 134.04C48.538 133.707 47.938 133.133 47.5113 132.32C47.098 131.507 46.8913 130.38 46.8913 128.94ZM52.3113 132.04C52.8313 132.04 53.2313 131.947 53.5113 131.76C53.7913 131.573 53.9913 131.26 54.1113 130.82C54.2313 130.38 54.2913 129.753 54.2913 128.94C54.2913 128.127 54.2313 127.5 54.1113 127.06C53.9913 126.607 53.7847 126.287 53.4913 126.1C53.2113 125.9 52.818 125.8 52.3113 125.8C51.7913 125.8 51.3913 125.9 51.1113 126.1C50.8313 126.287 50.6313 126.607 50.5113 127.06C50.3913 127.5 50.3313 128.127 50.3313 128.94C50.3313 129.753 50.3913 130.38 50.5113 130.82C50.6313 131.26 50.8313 131.573 51.1113 131.76C51.4047 131.947 51.8047 132.04 52.3113 132.04ZM70.1137 127V134.34H66.7337V127.82C66.7337 127.34 66.687 126.973 66.5937 126.72C66.5003 126.467 66.3337 126.293 66.0937 126.2C65.867 126.093 65.5337 126.04 65.0937 126.04C64.5603 126.04 64.1403 126.133 63.8337 126.32C63.527 126.507 63.3137 126.8 63.1937 127.2V134.34H59.8337V123.54H63.1937V124.74C63.4737 124.3 63.9003 123.96 64.4737 123.72C65.047 123.467 65.7403 123.34 66.5537 123.34C67.8337 123.34 68.747 123.633 69.2937 124.22C69.8403 124.793 70.1137 125.72 70.1137 127ZM82.9652 127V134.34H79.5852V127.82C79.5852 127.34 79.5386 126.973 79.4452 126.72C79.3519 126.467 79.1852 126.293 78.9452 126.2C78.7186 126.093 78.3852 126.04 77.9452 126.04C77.4119 126.04 76.9919 126.133 76.6852 126.32C76.3786 126.507 76.1652 126.8 76.0452 127.2V134.34H72.6852V123.54H76.0452V124.74C76.3252 124.3 76.7519 123.96 77.3252 123.72C77.8986 123.467 78.5919 123.34 79.4052 123.34C80.6852 123.34 81.5986 123.633 82.1452 124.22C82.6919 124.793 82.9652 125.72 82.9652 127ZM95.1568 129.78L88.3568 130.18C88.4368 130.78 88.6968 131.227 89.1368 131.52C89.5901 131.8 90.2235 131.94 91.0368 131.94C91.7035 131.94 92.3968 131.86 93.1168 131.7C93.8368 131.54 94.3701 131.367 94.7168 131.18V133.72C94.3701 133.947 93.7968 134.14 92.9968 134.3C92.1968 134.46 91.3235 134.54 90.3768 134.54C89.1901 134.54 88.2035 134.373 87.4168 134.04C86.6435 133.707 86.0435 133.133 85.6168 132.32C85.2035 131.493 84.9968 130.367 84.9968 128.94C84.9968 127.5 85.2035 126.373 85.6168 125.56C86.0435 124.747 86.6568 124.173 87.4568 123.84C88.2568 123.507 89.2768 123.34 90.5168 123.34C91.7435 123.34 92.7035 123.527 93.3968 123.9C94.1035 124.26 94.5901 124.793 94.8568 125.5C95.1368 126.193 95.2768 127.08 95.2768 128.16C95.2768 128.76 95.2368 129.3 95.1568 129.78ZM92.2368 127.58C92.2368 127.02 92.1168 126.593 91.8768 126.3C91.6368 125.993 91.1835 125.84 90.5168 125.84C89.7568 125.84 89.2168 125.993 88.8968 126.3C88.5768 126.593 88.3968 127.12 88.3568 127.88L92.2368 127.58ZM96.7741 128.94C96.7741 127.513 96.9875 126.393 97.4141 125.58C97.8408 124.753 98.4475 124.173 99.2341 123.84C100.034 123.507 101.041 123.34 102.254 123.34C102.761 123.34 103.261 123.373 103.754 123.44C104.261 123.493 104.687 123.567 105.034 123.66V126.44C104.367 126.187 103.614 126.06 102.774 126.06C101.881 126.06 101.227 126.267 100.814 126.68C100.414 127.093 100.214 127.847 100.214 128.94C100.214 129.687 100.307 130.267 100.494 130.68C100.681 131.08 100.961 131.367 101.334 131.54C101.721 131.7 102.227 131.78 102.854 131.78C103.694 131.78 104.461 131.653 105.154 131.4V134.12C104.834 134.24 104.394 134.34 103.834 134.42C103.287 134.5 102.761 134.54 102.254 134.54C101.041 134.54 100.034 134.373 99.2341 134.04C98.4475 133.707 97.8408 133.133 97.4141 132.32C96.9875 131.493 96.7741 130.367 96.7741 128.94ZM112.074 131.86C112.407 131.86 112.647 131.84 112.794 131.8V134.36C112.327 134.427 111.841 134.46 111.334 134.46C110.374 134.46 109.627 134.353 109.094 134.14C108.561 133.927 108.174 133.56 107.934 133.04C107.694 132.52 107.574 131.78 107.574 130.82V126.16H106.234V123.54H107.574V120.98H110.954V123.54H113.034V126.16H110.954V130.52C110.954 131.067 111.027 131.427 111.174 131.6C111.334 131.773 111.634 131.86 112.074 131.86ZM114.398 120.48C114.398 119.947 114.445 119.567 114.538 119.34C114.632 119.1 114.798 118.947 115.038 118.88C115.292 118.813 115.698 118.78 116.258 118.78C116.818 118.78 117.218 118.813 117.458 118.88C117.698 118.947 117.865 119.1 117.958 119.34C118.052 119.567 118.098 119.947 118.098 120.48C118.098 121.027 118.052 121.42 117.958 121.66C117.865 121.9 117.698 122.06 117.458 122.14C117.218 122.207 116.818 122.24 116.258 122.24C115.698 122.24 115.292 122.207 115.038 122.14C114.798 122.06 114.632 121.9 114.538 121.66C114.445 121.42 114.398 121.027 114.398 120.48ZM114.558 123.54H117.938V134.34H114.558V123.54ZM130.778 127V134.34H127.398V127.82C127.398 127.34 127.351 126.973 127.258 126.72C127.164 126.467 126.998 126.293 126.758 126.2C126.531 126.093 126.198 126.04 125.758 126.04C125.224 126.04 124.804 126.133 124.498 126.32C124.191 126.507 123.978 126.8 123.858 127.2V134.34H120.498V123.54H123.858V124.74C124.138 124.3 124.564 123.96 125.138 123.72C125.711 123.467 126.404 123.34 127.218 123.34C128.498 123.34 129.411 123.633 129.958 124.22C130.504 124.793 130.778 125.72 130.778 127ZM137.389 138.34C136.883 138.34 136.329 138.313 135.729 138.26C135.129 138.22 134.596 138.16 134.129 138.08V135.44C134.543 135.547 135.023 135.633 135.569 135.7C136.116 135.767 136.623 135.8 137.089 135.8C137.876 135.8 138.503 135.727 138.969 135.58C139.436 135.433 139.776 135.187 139.989 134.84C140.203 134.493 140.309 134.007 140.309 133.38V132.96C140.083 133.413 139.723 133.76 139.229 134C138.736 134.227 138.043 134.34 137.149 134.34C135.523 134.34 134.389 133.873 133.749 132.94C133.123 132.007 132.809 130.64 132.809 128.84C132.809 127.16 133.129 125.827 133.769 124.84C134.423 123.84 135.549 123.34 137.149 123.34C138.056 123.34 138.756 123.453 139.249 123.68C139.743 123.893 140.096 124.227 140.309 124.68V123.54H143.669V133.46C143.669 135.06 143.196 136.273 142.249 137.1C141.303 137.927 139.683 138.34 137.389 138.34ZM138.249 131.96C138.889 131.96 139.369 131.847 139.689 131.62C140.009 131.38 140.216 131.047 140.309 130.62C140.416 130.18 140.469 129.587 140.469 128.84C140.469 128.12 140.416 127.553 140.309 127.14C140.216 126.713 140.009 126.387 139.689 126.16C139.369 125.92 138.889 125.8 138.249 125.8C137.436 125.8 136.896 126.067 136.629 126.6C136.376 127.133 136.249 127.88 136.249 128.84C136.249 129.84 136.383 130.613 136.649 131.16C136.916 131.693 137.449 131.96 138.249 131.96Z" fill="white"/>
</g>
</g>
<defs>
<filter id="filter0_d_137_6863" x="65.7983" y="47.6458" width="49.916" height="49.916" filterUnits="userSpaceOnUse" color-interpolation-filters="sRGB">
<feFlood flood-opacity="0" result="BackgroundImageFix"/>
<feColorMatrix in="SourceAlpha" type="matrix" values="0 0 0 0 0 0 0 0 0 0 0 0 0 0 0 0 0 0 127 0" result="hardAlpha"/>
<feOffset dy="4"/>
<feGaussianBlur stdDeviation="2"/>
<feComposite in2="hardAlpha" operator="out"/>
<feColorMatrix type="matrix" values="0 0 0 0 0.028802 0 0 0 0 0.9875 0 0 0 0 0.642369 0 0 0 0.76 0"/>
<feBlend mode="normal" in2="BackgroundImageFix" result="effect1_dropShadow_137_6863"/>
<feBlend mode="normal" in="SourceGraphic" in2="effect1_dropShadow_137_6863" result="shape"/>
</filter>
</defs>
</svg>
