<?xml version="1.0" encoding="UTF-8"?>
<svg width="41px" height="42px" viewBox="0 0 41 42" version="1.1" xmlns="http://www.w3.org/2000/svg" xmlns:xlink="http://www.w3.org/1999/xlink">
    <title>medium-circle-fill</title>
    <g id="home" stroke="none" stroke-width="1" fill="none" fill-rule="evenodd">
        <g id="home-phone" transform="translate(-103.000000, -5506.000000)" fill-rule="nonzero">
            <g id="编组-19" transform="translate(16.272979, 5393.788688)">
                <g id="medium-circle-fill" transform="translate(87.089214, 112.735750)">
                    <rect id="矩形" fill="#000000" opacity="0" x="0" y="0" width="40.56" height="40.56"></rect>
                    <path d="M25.9205334,27.555747 L28.8318225,13.8310985 C28.9506506,13.2501611 28.8813342,12.8342626 28.6238733,12.5834032 C28.3664123,12.3325439 28.0264319,12.2863329 27.6039319,12.4447704 L10.4926819,19.0397314 C10.1097912,19.1849657 9.84902952,19.3500048 9.71039673,19.5348485 C9.57176394,19.7196923 9.55526003,19.8946337 9.66088499,20.0596728 C9.76650995,20.2247119 9.97775996,20.3534423 10.294635,20.4458642 L14.6714709,21.8123876 L24.8312756,15.4154736 C25.1085413,15.2306298 25.3197912,15.1910204 25.4650256,15.2966454 C25.5574475,15.362661 25.5310412,15.4616845 25.3858069,15.5937157 L17.1668616,23.0204735 L16.8499866,27.5359423 C17.1536584,27.5359423 17.4507287,27.3907079 17.7411975,27.1002392 L19.8801037,25.0405517 L24.3163537,28.3083251 C25.1613538,28.7836376 25.6960803,28.5327783 25.9205334,27.555747 L25.9205334,27.555747 Z M37.86276,19.4160204 C37.86276,21.8189892 37.3940491,24.1163329 36.4566272,26.3080517 C35.5192053,28.4997704 34.2583069,30.3878173 32.6739319,31.9721923 C31.0895569,33.5565673 29.20151,34.8174657 27.0097913,35.7548876 C24.8180725,36.6923095 22.5207288,37.1610204 20.11776,37.1610204 C17.7147913,37.1610204 15.4174475,36.6923095 13.2257287,35.7548876 C11.03401,34.8174657 9.14596312,33.5565673 7.56158813,31.9721923 C5.97721315,30.3878173 4.71631471,28.4997704 3.77889283,26.3080517 C2.84147094,24.1163329 2.37276,21.8189892 2.37276,19.4160204 C2.37276,17.0130517 2.84147094,14.7157079 3.77889283,12.5239892 C4.71631471,10.3322704 5.97721315,8.44422354 7.56158813,6.85984855 C9.14596312,5.27547357 11.03401,4.01457513 13.2257287,3.07715325 C15.4174475,2.13973136 17.7147913,1.67102042 20.11776,1.67102042 C22.5207288,1.67102042 24.8180725,2.13973136 27.0097913,3.07715325 C29.20151,4.01457513 31.0895569,5.27547357 32.6739319,6.85984855 C34.2583069,8.44422354 35.5192053,10.3322704 36.4566272,12.5239892 C37.3940491,14.7157079 37.86276,17.0130517 37.86276,19.4160204 Z" id="形状" fill="#FFFFFF"></path>
                </g>
            </g>
        </g>
    </g>
</svg>