<?xml version="1.0" encoding="UTF-8"?>
<svg width="17px" height="16px" viewBox="0 0 17 16" version="1.1" xmlns="http://www.w3.org/2000/svg" xmlns:xlink="http://www.w3.org/1999/xlink">
    <title>编组 18</title>
    <defs>
        <filter color-interpolation-filters="auto" id="filter-1">
            <feColorMatrix in="SourceGraphic" type="matrix" values="0 0 0 0 1.000000 0 0 0 0 1.000000 0 0 0 0 1.000000 0 0 0 1.000000 0"></feColorMatrix>
        </filter>
    </defs>
    <g id="home" stroke="none" stroke-width="1" fill="none" fill-rule="evenodd">
        <g id="home-phone" transform="translate(-182.000000, -4414.000000)">
            <g id="时间轴" transform="translate(-24.614064, 4414.123934)">
                <g id="编组-18" transform="translate(207.477335, 0.000000)">
                    <circle id="椭圆形" fill="#7700E6" cx="7.87149228" cy="7.87149228" r="7.87149228"></circle>
                    <g filter="url(#filter-1)" id="timeline">
                        <g transform="translate(4.166492, 4.166492)">
                            <rect id="矩形" fill="#000000" fill-rule="nonzero" opacity="0" x="0" y="0" width="7.41" height="7.41"></rect>
                            <path d="M0.998613281,4.15220508 L0.998613281,3.25779492 C1.3474043,3.17023535 1.60646484,2.85400781 1.60646484,2.47844238 C1.60646484,2.10287695 1.3474043,1.78664941 0.998613281,1.69908984 L0.998613281,0.492793945 C0.998613281,0.384972656 0.911053711,0.297413086 0.803232422,0.297413086 C0.695411133,0.297413086 0.607851563,0.384972656 0.607851563,0.492793945 L0.607851563,1.69908984 C0.259060547,1.78664941 0,2.10287695 0,2.47844238 C0,2.85400781 0.259060547,3.17023535 0.607851563,3.25779492 L0.607851563,4.15292871 C0.259060547,4.23976465 0,4.55599219 0,4.93155762 C0,5.30712305 0.259060547,5.62335059 0.607851563,5.71091016 L0.607851563,6.91720605 C0.607851563,7.02502734 0.695411133,7.11258691 0.803232422,7.11258691 C0.911053711,7.11258691 0.998613281,7.02502734 0.998613281,6.91720605 L0.998613281,5.71091016 C1.3474043,5.62335059 1.60646484,5.30712305 1.60646484,4.93155762 C1.60646484,4.55599219 1.3474043,4.23976465 0.998613281,4.15220508 Z M0.434179687,2.47844238 C0.434179687,2.27510156 0.599891602,2.10938965 0.803232422,2.10938965 C1.00657324,2.10938965 1.17228516,2.27510156 1.17228516,2.47844238 C1.17228516,2.6817832 1.00657324,2.84749512 0.803232422,2.84749512 C0.599891602,2.84749512 0.434179687,2.6817832 0.434179687,2.47844238 Z M0.803232422,5.30061035 C0.599891602,5.30061035 0.434179687,5.13489844 0.434179687,4.93155762 C0.434179687,4.7282168 0.599891602,4.56250488 0.803232422,4.56250488 C1.00657324,4.56250488 1.17228516,4.7282168 1.17228516,4.93155762 C1.17228516,5.13489844 1.00657324,5.30061035 0.803232422,5.30061035 Z M6.81662109,2.04788086 L2.5471875,2.04788086 C2.42706445,2.04788086 2.33009766,1.95091406 2.33009766,1.83079102 C2.33009766,1.71066797 2.42706445,1.61370117 2.5471875,1.61370117 L6.81662109,1.61370117 C6.93674414,1.61370117 7.03371094,1.71066797 7.03371094,1.83079102 C7.03371094,1.95091406 6.93674414,2.04788086 6.81662109,2.04788086 Z M5.58210352,3.30700195 L2.51534766,3.30700195 C2.4125918,3.30700195 2.33009766,3.22378418 2.33009766,3.12175195 L2.33009766,3.0587959 C2.33009766,2.95604004 2.41331543,2.8735459 2.51534766,2.8735459 L5.58137988,2.8735459 C5.68413574,2.8735459 5.76663457,2.95676367 5.76663457,3.0587959 L5.76663457,3.12175195 C5.76735352,3.22378418 5.68413574,3.30700195 5.58210352,3.30700195 Z" id="形状" fill="#000000" fill-rule="nonzero"></path>
                            <path d="M6.81662109,4.52270508 L2.5471875,4.52270508 C2.42706445,4.52270508 2.33009766,4.42573828 2.33009766,4.30561523 C2.33009766,4.18549219 2.42706445,4.08852539 2.5471875,4.08852539 L6.81662109,4.08852539 C6.93674414,4.08852539 7.03371094,4.18549219 7.03371094,4.30561523 C7.03371094,4.42573828 6.93674414,4.52270508 6.81662109,4.52270508 Z M5.58210352,5.78182617 L2.51534766,5.78182617 C2.4125918,5.78182617 2.33009766,5.6986084 2.33009766,5.59657617 L2.33009766,5.53362012 C2.33009766,5.43086426 2.41331543,5.34837012 2.51534766,5.34837012 L5.58137988,5.34837012 C5.68413574,5.34837012 5.76663457,5.43158789 5.76663457,5.53362012 L5.76663457,5.59657617 C5.76735352,5.6986084 5.68413574,5.78182617 5.58210352,5.78182617 Z" id="形状" fill="#000000" fill-rule="nonzero"></path>
                        </g>
                    </g>
                </g>
            </g>
        </g>
    </g>
</svg>