<?xml version="1.0" encoding="UTF-8"?>
<svg width="18px" height="18px" viewBox="0 0 18 18" version="1.1" xmlns="http://www.w3.org/2000/svg" xmlns:xlink="http://www.w3.org/1999/xlink">
    <title>Arrow down 2</title>
    <defs>
        <filter color-interpolation-filters="auto" id="filter-1">
            <feColorMatrix in="SourceGraphic" type="matrix" values="0 0 0 0 1.000000 0 0 0 0 1.000000 0 0 0 0 1.000000 0 0 0 1.000000 0"></feColorMatrix>
        </filter>
    </defs>
    <g id="home" stroke="none" stroke-width="1" fill="none" fill-rule="evenodd">
        <g id="home-phone" transform="translate(-178.000000, -303.000000)">
            <g id="大banner" transform="translate(-96.111179, 26.595676)">
                <g id="title" transform="translate(95.424179, 68.442194)">
                    <g id="Arrow-down-2" transform="translate(0.000000, 184.800000)" filter="url(#filter-1)">
                        <g transform="translate(178.971000, 23.589296)">
                            <rect id="矩形" fill="#000000" fill-rule="nonzero" opacity="0" x="0" y="0" width="17.238" height="17.238"></rect>
                            <path d="M5.9324577,12.41136 C6.06662679,12.2769036 6.23441001,12.21025 6.43523271,12.21025 C6.63634271,12.21025 6.80901,12.2769036 6.95265999,12.41136 C7.0865418,12.55501 7.15348269,12.72739 7.15348269,12.9285 C7.15348269,13.12961 7.0865418,13.2971059 6.95265999,13.431275 C6.80901,13.574925 6.63634269,13.64675 6.43523271,13.64675 C6.23441001,13.64675 6.06662681,13.574925 5.9324577,13.431275 C5.78880771,13.2971059 5.7169827,13.12961 5.7169827,12.9285 C5.7169827,12.72739 5.78880771,12.55501 5.9324577,12.41136 L5.9324577,12.41136 Z M5.9324577,11.276525 C5.78880771,11.1423559 5.7169827,10.97486 5.7169827,10.77375 C5.7169827,10.57264 5.78880771,10.40026 5.9324577,10.25661 C6.06662679,10.1221536 6.23441001,10.0555 6.43523271,10.0555 C6.63634271,10.0555 6.80901,10.1221536 6.95265999,10.25661 C7.0865418,10.40026 7.15348269,10.57264 7.15348269,10.77375 C7.15348269,10.97486 7.0865418,11.1423559 6.95265999,11.276525 C6.80901,11.420175 6.63663,11.492 6.43523271,11.492 C6.23441001,11.492 6.06662681,11.420175 5.9324577,11.276525 L5.9324577,11.276525 Z M3.7777077,11.276525 C3.63405771,11.1423559 3.5622327,10.97486 3.5622327,10.77375 C3.5622327,10.57264 3.63405771,10.40026 3.7777077,10.25661 C3.91187679,10.1221536 4.07966001,10.0555 4.28048271,10.0555 C4.48159271,10.0555 4.65426,10.1221536 4.79790999,10.25661 C4.9317918,10.40026 4.99873269,10.57264 4.99873269,10.77375 C4.99873269,10.97486 4.9317918,11.1423559 4.79790999,11.276525 C4.65426,11.420175 4.48188,11.492 4.28048271,11.492 C4.07966001,11.492 3.91187681,11.420175 3.7777077,11.276525 L3.7777077,11.276525 Z M8.60463501,14.365 C8.8051704,14.365 8.97812501,14.4316536 9.12177501,14.56611 C9.2559441,14.70976 9.32288499,14.88214 9.32288499,15.08325 C9.32288499,15.28436 9.2559441,15.4518559 9.12177501,15.586025 C8.97812501,15.729675 8.8051704,15.8015 8.60463501,15.8015 C8.403525,15.8015 8.23574181,15.729675 8.10186,15.586025 C7.95821001,15.4518559 7.886385,15.28436 7.886385,15.08325 C7.886385,14.88214 7.95821001,14.70976 8.10186,14.56611 C8.23574181,14.4316536 8.403525,14.365 8.60463501,14.365 Z M7.886385,12.9285 C7.886385,12.72739 7.95821001,12.55501 8.10186,12.41136 C8.23574181,12.2769036 8.403525,12.21025 8.60463501,12.21025 C8.8051704,12.21025 8.97812501,12.2769036 9.12177501,12.41136 C9.2559441,12.55501 9.32288499,12.72739 9.32288499,12.9285 C9.32288499,13.12961 9.2559441,13.2971059 9.12177501,13.431275 C8.97812501,13.574925 8.8051704,13.64675 8.60463501,13.64675 C8.403525,13.64675 8.23574181,13.574925 8.10186,13.431275 C7.95821001,13.2971059 7.886385,13.12961 7.886385,12.9285 Z M8.60463501,11.492 C8.403525,11.492 8.23574181,11.420175 8.10186,11.276525 C7.95821001,11.1423559 7.886385,10.97486 7.886385,10.77375 C7.886385,10.57264 7.95821001,10.40026 8.10186,10.25661 C8.23574181,10.1221536 8.403525,10.0555 8.60463501,10.0555 C8.8051704,10.0555 8.97812501,10.1221536 9.12177501,10.25661 C9.2559441,10.40026 9.32288499,10.57264 9.32288499,10.77375 C9.32288499,10.97486 9.2559441,11.1423559 9.12177501,11.276525 C8.97812501,11.420175 8.8051704,11.492 8.60463501,11.492 Z M10.759385,11.492 C10.558275,11.492 10.3904918,11.420175 10.25661,11.276525 C10.11296,11.1423559 10.041135,10.97486 10.041135,10.77375 C10.041135,10.57264 10.11296,10.40026 10.25661,10.25661 C10.3904918,10.1221536 10.558275,10.0555 10.759385,10.0555 C10.9599204,10.0555 11.132875,10.1221536 11.276525,10.25661 C11.4106941,10.40026 11.477635,10.57264 11.477635,10.77375 C11.477635,10.97486 11.4106941,11.1423559 11.276525,11.276525 C11.132875,11.420175 10.9599204,11.492 10.759385,11.492 Z M10.25661,13.431275 C10.11296,13.2971059 10.041135,13.12961 10.041135,12.9285 C10.041135,12.72739 10.11296,12.55501 10.25661,12.41136 C10.3904918,12.2769036 10.558275,12.21025 10.759385,12.21025 C10.9599204,12.21025 11.132875,12.2769036 11.276525,12.41136 C11.4106941,12.55501 11.477635,12.72739 11.477635,12.9285 C11.477635,13.12961 11.4106941,13.2971059 11.276525,13.431275 C11.132875,13.574925 10.9599204,13.64675 10.759385,13.64675 C10.558275,13.64675 10.3904918,13.574925 10.25661,13.431275 Z M12.38263,11.276525 C12.23898,11.1423559 12.167155,10.97486 12.167155,10.77375 C12.167155,10.57264 12.23898,10.40026 12.38263,10.25661 C12.5167991,10.1221536 12.6845823,10.0555 12.885405,10.0555 C13.086515,10.0555 13.2591823,10.1221536 13.4028323,10.25661 C13.5370014,10.40026 13.603655,10.57264 13.603655,10.77375 C13.603655,10.97486 13.5370014,11.1423559 13.4028323,11.276525 C13.258895,11.420175 13.086515,11.492 12.885405,11.492 C12.684295,11.492 12.5165118,11.420175 12.38263,11.276525 Z M1.65197499,8.10186 C1.78614409,7.96769091 1.95363999,7.90074999 2.15475,7.90074999 C2.35586001,7.90074999 2.52824001,7.96769089 2.67189,8.10186 C2.80605909,8.24550999 2.87300001,8.41788999 2.87300001,8.619 C2.87300001,8.82011001 2.80605911,8.98760589 2.67189,9.12177501 C2.52824001,9.265425 2.35586001,9.33725001 2.15475,9.33725001 C1.95363999,9.33725001 1.78614411,9.265425 1.65197499,9.12177501 C1.508325,8.98760589 1.43649999,8.82011001 1.43649999,8.619 C1.43649999,8.41788999 1.508325,8.24550999 1.65197499,8.10186 Z M5.7169827,6.46425 C5.7169827,6.26313999 5.78880771,6.09075999 5.9324577,5.94711 C6.06662679,5.81294091 6.23441001,5.74599999 6.43523271,5.74599999 C6.63634271,5.74599999 6.80901,5.81294089 6.95265999,5.94711 C7.0865418,6.09075999 7.15348269,6.26313999 7.15348269,6.46425 C7.15348269,6.66536001 7.0865418,6.83285589 6.95265999,6.96702501 C6.80901,7.110675 6.63663,7.18250001 6.43523271,7.18250001 C6.23441001,7.18250001 6.06662681,7.110675 5.9324577,6.96702501 C5.78880771,6.83285591 5.7169827,6.66536001 5.7169827,6.46425 L5.7169827,6.46425 Z M3.5622327,8.619 C3.5622327,8.41788999 3.63405771,8.24550999 3.7777077,8.10186 C3.91187679,7.96769091 4.07966001,7.90074999 4.28048271,7.90074999 C4.48159271,7.90074999 4.65426,7.96769089 4.79790999,8.10186 C4.9317918,8.24550999 4.99873269,8.41788999 4.99873269,8.619 C4.99873269,8.82011001 4.9317918,8.98760589 4.79790999,9.12177501 C4.65426,9.265425 4.48159269,9.33725001 4.28048271,9.33725001 C4.07966001,9.33725001 3.91187681,9.265425 3.7777077,9.12177501 C3.63405771,8.98760591 3.5622327,8.82011001 3.5622327,8.619 L3.5622327,8.619 Z M5.7169827,8.619 C5.7169827,8.41788999 5.78880771,8.24550999 5.9324577,8.10186 C6.06662679,7.96769091 6.23441001,7.90074999 6.43523271,7.90074999 C6.63634271,7.90074999 6.80901,7.96769089 6.95265999,8.10186 C7.0865418,8.24550999 7.15348269,8.41788999 7.15348269,8.619 C7.15348269,8.82011001 7.0865418,8.98760589 6.95265999,9.12177501 C6.80901,9.265425 6.63634269,9.33725001 6.43523271,9.33725001 C6.23441001,9.33725001 6.06662681,9.265425 5.9324577,9.12177501 C5.78880771,8.98760591 5.7169827,8.82011001 5.7169827,8.619 L5.7169827,8.619 Z M7.886385,8.619 C7.886385,8.41788999 7.95821001,8.24550999 8.10186,8.10186 C8.23574181,7.96769091 8.403525,7.90074999 8.60463501,7.90074999 C8.8051704,7.90074999 8.97812501,7.96769089 9.12177501,8.10186 C9.2559441,8.24550999 9.32288499,8.41788999 9.32288499,8.619 C9.32288499,8.82011001 9.2559441,8.98760589 9.12177501,9.12177501 C8.97812501,9.265425 8.8051704,9.33725001 8.60463501,9.33725001 C8.403525,9.33725001 8.23574181,9.265425 8.10186,9.12177501 C7.95821001,8.98760591 7.886385,8.82011001 7.886385,8.619 L7.886385,8.619 Z M7.886385,6.46425 C7.886385,6.26313999 7.95821001,6.09075999 8.10186,5.94711 C8.23574181,5.81294091 8.403525,5.74599999 8.60463501,5.74599999 C8.8051704,5.74599999 8.97812501,5.81294089 9.12177501,5.94711 C9.2559441,6.09075999 9.32288499,6.26313999 9.32288499,6.46425 C9.32288499,6.66536001 9.2559441,6.83285589 9.12177501,6.96702501 C8.97812501,7.110675 8.8051704,7.18250001 8.60463501,7.18250001 C8.403525,7.18250001 8.23574181,7.110675 8.10186,6.96702501 C7.95821001,6.83285591 7.886385,6.66536001 7.886385,6.46425 L7.886385,6.46425 Z M6.43523271,1.43649999 C6.63663,1.43649999 6.80901,1.50344089 6.95265999,1.63761 C7.0865418,1.78125999 7.15348269,1.95363999 7.15348269,2.15475 C7.15348269,2.35586001 7.0865418,2.52335589 6.95265999,2.65752501 C6.80901,2.801175 6.63663,2.87300001 6.43523271,2.87300001 C6.23441001,2.87300001 6.06662681,2.801175 5.9324577,2.65752501 C5.78880771,2.52335591 5.7169827,2.35586001 5.7169827,2.15475 C5.7169827,1.95363999 5.78880771,1.78125999 5.9324577,1.63761 C6.06662679,1.50344091 6.23441001,1.43649999 6.43523271,1.43649999 L6.43523271,1.43649999 Z M5.7169827,4.3095 C5.7169827,4.10838999 5.78880771,3.93600999 5.9324577,3.79236 C6.06662679,3.65819091 6.23441001,3.59124999 6.43523271,3.59124999 C6.63634271,3.59124999 6.80901,3.65819089 6.95265999,3.79236 C7.0865418,3.93600999 7.15348269,4.10838999 7.15348269,4.3095 C7.15348269,4.51061001 7.0865418,4.67810589 6.95265999,4.81227501 C6.80901,4.955925 6.63634269,5.02775001 6.43523271,5.02775001 C6.23441001,5.02775001 6.06662681,4.955925 5.9324577,4.81227501 C5.78880771,4.67810591 5.7169827,4.51061001 5.7169827,4.3095 L5.7169827,4.3095 Z M7.886385,2.15475 C7.886385,1.95363999 7.95821001,1.78125999 8.10186,1.63761 C8.23574181,1.50344091 8.403525,1.43649999 8.60463501,1.43649999 C8.8051704,1.43649999 8.97812501,1.50344089 9.12177501,1.63761 C9.2559441,1.78125999 9.32288499,1.95363999 9.32288499,2.15475 C9.32288499,2.35586001 9.2559441,2.52335589 9.12177501,2.65752501 C8.97812501,2.801175 8.8051704,2.87300001 8.60463501,2.87300001 C8.403525,2.87300001 8.23574181,2.801175 8.10186,2.65752501 C7.95821001,2.52335591 7.886385,2.35586001 7.886385,2.15475 L7.886385,2.15475 Z M8.10186,3.79236 C8.23574181,3.65819091 8.403525,3.59124999 8.60463501,3.59124999 C8.8051704,3.59124999 8.97812501,3.65819089 9.12177501,3.79236 C9.2559441,3.93600999 9.32288499,4.10838999 9.32288499,4.3095 C9.32288499,4.51061001 9.2559441,4.67810589 9.12177501,4.81227501 C8.97812501,4.955925 8.8051704,5.02775001 8.60463501,5.02775001 C8.403525,5.02775001 8.23574181,4.955925 8.10186,4.81227501 C7.95821001,4.67810591 7.886385,4.51061001 7.886385,4.3095 C7.886385,4.10838999 7.95821001,3.93600999 8.10186,3.79236 L8.10186,3.79236 Z M11.276525,1.63761 C11.4106941,1.78125999 11.477635,1.95363999 11.477635,2.15475 C11.477635,2.35586001 11.4106941,2.52335589 11.276525,2.65752501 C11.132875,2.801175 10.9599204,2.87300001 10.759385,2.87300001 C10.558275,2.87300001 10.3904918,2.801175 10.25661,2.65752501 C10.11296,2.52335591 10.041135,2.35586001 10.041135,2.15475 C10.041135,1.95363999 10.11296,1.78125999 10.25661,1.63761 C10.3904918,1.50344091 10.558275,1.43649999 10.759385,1.43649999 C10.9599204,1.43649999 11.132875,1.50344089 11.276525,1.63761 Z M11.477635,4.3095 C11.477635,4.51061001 11.4106941,4.67810589 11.276525,4.81227501 C11.132875,4.955925 10.9599204,5.02775001 10.759385,5.02775001 C10.558275,5.02775001 10.3904918,4.955925 10.25661,4.81227501 C10.11296,4.67810591 10.041135,4.51061001 10.041135,4.3095 C10.041135,4.10838999 10.11296,3.93600999 10.25661,3.79236 C10.3904918,3.65819091 10.558275,3.59124999 10.759385,3.59124999 C10.9599204,3.59124999 11.132875,3.65819089 11.276525,3.79236 C11.4106941,3.93600999 11.477635,4.10838999 11.477635,4.3095 Z M10.759385,7.18250001 C10.558275,7.18250001 10.3904918,7.110675 10.25661,6.96702501 C10.11296,6.83285591 10.041135,6.66536001 10.041135,6.46425 C10.041135,6.26313999 10.11296,6.09075999 10.25661,5.94711 C10.3904918,5.81294091 10.558275,5.74599999 10.759385,5.74599999 C10.9599204,5.74599999 11.132875,5.81294089 11.276525,5.94711 C11.4106941,6.09075999 11.477635,6.26313999 11.477635,6.46425 C11.477635,6.66536001 11.4106941,6.83285589 11.276525,6.96702501 C11.132875,7.110675 10.9599204,7.18250001 10.759385,7.18250001 L10.759385,7.18250001 Z M11.276525,8.10186 C11.4106941,8.24550999 11.477635,8.41788999 11.477635,8.619 C11.477635,8.82011001 11.4106941,8.98760589 11.276525,9.12177501 C11.132875,9.265425 10.9599204,9.33725001 10.759385,9.33725001 C10.558275,9.33725001 10.3904918,9.265425 10.25661,9.12177501 C10.11296,8.98760591 10.041135,8.82011001 10.041135,8.619 C10.041135,8.41788999 10.11296,8.24550999 10.25661,8.10186 C10.3904918,7.96769091 10.558275,7.90074999 10.759385,7.90074999 C10.9599204,7.90074999 11.132875,7.96769089 11.276525,8.10186 Z M12.885405,7.90074999 C13.086515,7.90074999 13.2591823,7.96769089 13.4028323,8.10186 C13.5370014,8.24550999 13.603655,8.41788999 13.603655,8.619 C13.603655,8.82011001 13.5370014,8.98760589 13.4028323,9.12177501 C13.2591823,9.265425 13.086515,9.33725001 12.885405,9.33725001 C12.6845823,9.33725001 12.5167991,9.265425 12.38263,9.12177501 C12.23898,8.98760591 12.167155,8.82011001 12.167155,8.619 C12.167155,8.41788999 12.23898,8.24550999 12.38263,8.10186 C12.5165118,7.96769091 12.6837204,7.90074999 12.885405,7.90074999 Z M14.53738,9.12177501 C14.39373,8.98760591 14.321905,8.82011001 14.321905,8.619 C14.321905,8.41788999 14.39373,8.24550999 14.53738,8.10186 C14.6715491,7.96769091 14.8393323,7.90074999 15.040155,7.90074999 C15.241265,7.90074999 15.4139323,7.96769089 15.5575823,8.10186 C15.6917514,8.24550999 15.758405,8.41788999 15.758405,8.619 C15.758405,8.82011001 15.6917514,8.98760589 15.5575823,9.12177501 C15.4139323,9.265425 15.241265,9.33725001 15.040155,9.33725001 C14.839045,9.33725001 14.6712618,9.265425 14.53738,9.12177501 Z" id="形状" fill="#000000" fill-rule="nonzero"></path>
                        </g>
                    </g>
                </g>
            </g>
        </g>
    </g>
</svg>