<?xml version="1.0" encoding="UTF-8"?>
<svg width="41px" height="42px" viewBox="0 0 41 42" version="1.1" xmlns="http://www.w3.org/2000/svg" xmlns:xlink="http://www.w3.org/1999/xlink">
    <title>推特_twitter43</title>
    <g id="home" stroke="none" stroke-width="1" fill="none" fill-rule="evenodd">
        <g id="home-phone" transform="translate(-247.000000, -5506.000000)" fill-rule="nonzero">
            <g id="编组-19" transform="translate(16.272979, 5393.788688)">
                <g id="编组-39" transform="translate(87.089214, 112.735750)">
                    <g id="推特_twitter43" transform="translate(143.980000, 0.000000)">
                        <rect id="矩形" fill="#000000" opacity="0" x="0" y="0" width="40.56" height="40.56"></rect>
                        <path d="M37.856,20.28 C37.856,10.5732546 29.9867454,2.704 20.28,2.704 C10.5732546,2.704 2.704,10.5732546 2.704,20.28 C2.704,29.9867454 10.5732546,37.856 20.28,37.856 C29.9867454,37.856 37.856,29.9867454 37.856,20.28 Z M10.8161229,26.5258713 C11.1197084,26.5642189 11.4296851,26.5849906 11.7428575,26.5849906 C13.5627724,26.5881862 15.2372858,25.9314829 16.5650728,24.8289884 C14.8649942,24.7890429 13.4317513,23.5874836 12.9380255,21.9385353 C13.1745026,21.9880676 13.4189688,22.0168284 13.6682284,22.0184262 C14.022944,22.020024 14.3648771,21.9720895 14.690832,21.879416 C12.9140582,21.4863527 11.5750866,19.8006546 11.5750866,17.7921971 C11.5750866,17.7746211 11.5750866,17.7570451 11.5750866,17.7394691 C12.099171,18.0558371 12.696755,18.2475753 13.3342844,18.276336 C12.2941047,17.5237636 11.6086407,16.2455091 11.6086407,14.8074727 C11.6086407,14.0469113 11.8003789,13.33748 12.1343229,12.7303091 C14.0501069,15.2628509 16.9117993,16.9437556 20.1377942,17.1530698 C20.0706858,16.8510822 20.0371316,16.536312 20.0371316,16.2151505 C20.0371316,13.9446509 21.7755578,12.1327251 23.9198298,12.1678771 C25.0367048,12.1870509 26.0465258,12.6999505 26.7543593,13.5052509 C27.6395506,13.3358822 28.470416,13.0099272 29.2197927,12.5545491 C28.9305876,13.5020553 28.3138298,14.2913774 27.5117251,14.7851033 C28.2978516,14.6972233 29.0456305,14.4895069 29.7422793,14.1747367 C29.2213906,14.9848305 28.5630895,15.692664 27.8041258,16.2582916 C27.8121149,16.4340516 27.8153106,16.6098116 27.8153106,16.7855716 C27.8153106,22.1766102 23.9086451,28.3937207 16.7663978,28.3905279 C14.5757891,28.3921229 12.5337774,27.7050611 10.8161229,26.5258713 Z" id="形状" fill="#FFFFFF"></path>
                    </g>
                </g>
            </g>
        </g>
    </g>
</svg>