<?xml version="1.0" encoding="UTF-8"?>
<svg width="25px" height="21px" viewBox="0 0 25 21" version="1.1" xmlns="http://www.w3.org/2000/svg" xmlns:xlink="http://www.w3.org/1999/xlink">
    <title>路径</title>
    <g id="home" stroke="none" stroke-width="1" fill="none" fill-rule="evenodd">
        <g id="home-phone" transform="translate(-341.000000, -437.000000)" fill="#01FF9F" fill-rule="nonzero">
            <g id="编组-21" transform="translate(328.648022, 236.102665)">
                <g id="twitter" transform="translate(9.886500, 196.727213)">
                    <path d="M26.6491875,7.30268145 C25.7704535,7.68174316 24.8141842,7.95455273 23.829198,8.06080488 C24.8457727,7.45488047 25.6182545,6.49861113 25.9829578,5.36142598 C25.0439186,5.92140352 23.9813971,6.33205371 22.8758004,6.54455801 C21.9798363,5.58828867 20.7076822,4.99672266 19.2976875,4.99672266 C16.5839502,4.99672266 14.4014736,7.1964293 14.4014736,9.8958082 C14.4014736,10.2748699 14.4474205,10.6539316 14.5220842,11.018635 C10.4586574,10.8061307 6.83459766,8.8648752 4.4252584,5.89268672 C4.0002498,6.62209336 3.75902871,7.45488047 3.75902871,8.36520293 C3.75902871,10.0652373 4.6234043,11.5642541 5.94150527,12.4458598 C5.13743496,12.4142713 4.37931152,12.1874086 3.72744023,11.8227053 L3.72744023,11.8830105 C3.72744023,14.263633 5.41024453,16.236477 7.65302637,16.6902023 C7.24237617,16.7964545 6.80300918,16.8567598 6.36364219,16.8567598 C6.04488574,16.8567598 5.74335938,16.8251713 5.43896133,16.7820961 C6.05924414,18.7233516 7.86553066,20.1333463 10.0164188,20.1792932 C8.33361445,21.4973941 6.22580156,22.2727477 3.93707285,22.2727477 C3.52642266,22.2727477 3.14736094,22.2583893 2.75394082,22.2124424 C4.92493066,23.605207 7.50082734,24.4092773 10.2748699,24.4092773 C19.2804574,24.4092773 24.2082598,16.9486535 24.2082598,10.4730158 C24.2082598,10.2605115 24.2082598,10.0480072 24.1939014,9.83550293 C25.147299,9.13768477 25.9829578,8.27330918 26.6491875,7.30268145 Z" id="路径"></path>
                </g>
            </g>
        </g>
    </g>
</svg>