<?xml version="1.0" encoding="UTF-8"?>
<svg width="53px" height="52px" viewBox="0 0 53 52" version="1.1" xmlns="http://www.w3.org/2000/svg" xmlns:xlink="http://www.w3.org/1999/xlink">
    <title>youtube</title>
    <g id="home" stroke="none" stroke-width="1" fill="none" fill-rule="evenodd">
        <g id="home-phone" transform="translate(-161.000000, -3374.000000)" fill-rule="nonzero">
            <g id="编组-3" transform="translate(-223.364105, 3199.764360)">
                <g id="编组-14" transform="translate(333.348743, 0.000000)">
                    <g id="youtube" transform="translate(51.931362, 174.459937)">
                        <rect id="矩形" fill="#000000" opacity="0" x="0" y="0" width="51.168" height="51.168"></rect>
                        <path d="M21.32,34.112 L21.32,19.188 L34.112,26.675584 L21.32,34.112 Z M50.65632,16.346044 C50.65632,16.346044 50.1553,12.796264 48.622392,11.231376 C46.675876,9.17826 44.49484,9.16973198 43.494932,9.05034 C36.335676,8.52800002 25.59466,8.52800002 25.59466,8.52800002 L25.57334,8.52800002 C25.57334,8.52800002 14.832324,8.52800002 7.67306798,9.05034 C6.671028,9.16973198 4.49212397,9.17826 2.54347598,11.231376 C1.010568,12.796264 0.51168,16.348176 0.51168,16.348176 C0.51168,16.348176 0,20.514104 0,24.682164 L0,28.594384 C0,32.764576 0.51168,36.934768 0.51168,36.934768 C0.51168,36.934768 1.010568,40.484548 2.54347598,42.049436 C4.49212397,44.102552 7.048392,44.03646 8.18688,44.251792 C12.28032,44.650476 25.584,44.772 25.584,44.772 C25.584,44.772 36.335676,44.754944 43.494932,44.234736 C44.496972,44.113212 46.675876,44.104684 48.622392,42.051568 C50.157432,40.48668 50.65632,36.934768 50.65632,36.934768 C50.65632,36.934768 51.168,32.766708 51.168,28.596516 L51.168,24.686428 C51.168,20.516236 50.65632,16.346044 50.65632,16.346044 Z" id="形状" fill="#FF0000"></path>
                    </g>
                </g>
            </g>
        </g>
    </g>
</svg>